<svg xmlns="http://www.w3.org/2000/svg" xmlns:xlink="http://www.w3.org/1999/xlink" contentStyleType="text/css" data-diagram-type="CLASS" height="2318px" preserveAspectRatio="none" style="width:1035px;height:2318px;background:#FFFFFF;" version="1.1" viewBox="0 0 1035 2318" width="1035px" zoomAndPan="magnify"><defs/><g><!--cluster MarcoConsiglio--><g class="cluster" data-entity="MarcoConsiglio" data-source-line="15" data-uid="ent0004" id="cluster_MarcoConsiglio"><path d="M207.5,4 L328.9287,4 A3.75,3.75 0 0 1 331.4287,6.5 L338.4287,26.2969 L1025.5,26.2969 A2.5,2.5 0 0 1 1028,28.7969 L1028,2308.5 A2.5,2.5 0 0 1 1025.5,2311 L207.5,2311 A2.5,2.5 0 0 1 205,2308.5 L205,6.5 A2.5,2.5 0 0 1 207.5,4" fill="none" style="stroke:#000000;stroke-width:1.5;"/><line style="stroke:#000000;stroke-width:1.5;" x1="205" x2="338.4287" y1="26.2969" y2="26.2969"/><text fill="#000000" font-family="sans-serif" font-size="14" font-weight="bold" lengthAdjust="spacing" textLength="120.4287" x="209" y="18.9951">MarcoConsiglio</text></g><!--cluster Ephemeris--><g class="cluster" data-entity="Ephemeris" data-source-line="14" data-uid="ent0002" id="cluster_Ephemeris"><path d="M215.5,31 L299.666,31 A3.75,3.75 0 0 1 302.166,33.5 L309.166,53.2969 L1017.5,53.2969 A2.5,2.5 0 0 1 1020,55.7969 L1020,2300.5 A2.5,2.5 0 0 1 1017.5,2303 L215.5,2303 A2.5,2.5 0 0 1 213,2300.5 L213,33.5 A2.5,2.5 0 0 1 215.5,31" fill="none" style="stroke:#000000;stroke-width:1.5;"/><line style="stroke:#000000;stroke-width:1.5;" x1="213" x2="309.166" y1="53.2969" y2="53.2969"/><text fill="#000000" font-family="sans-serif" font-size="14" font-weight="bold" lengthAdjust="spacing" textLength="83.166" x="217" y="45.9951">Ephemeris</text></g><!--cluster Command--><g class="cluster" data-entity="Command" data-source-line="38" data-uid="ent0018" id="cluster_Command"><path d="M235.5,58 L315.0039,58 A3.75,3.75 0 0 1 317.5039,60.5 L324.5039,80.2969 L461.5,80.2969 A2.5,2.5 0 0 1 464,82.7969 L464,172.5 A2.5,2.5 0 0 1 461.5,175 L235.5,175 A2.5,2.5 0 0 1 233,172.5 L233,60.5 A2.5,2.5 0 0 1 235.5,58" fill="none" style="stroke:#000000;stroke-width:1.5;"/><line style="stroke:#000000;stroke-width:1.5;" x1="233" x2="324.5039" y1="80.2969" y2="80.2969"/><text fill="#000000" font-family="sans-serif" font-size="14" font-weight="bold" lengthAdjust="spacing" textLength="78.5039" x="237" y="72.9951">Command</text></g><!--cluster Enums--><g class="cluster" data-entity="Enums" data-source-line="50" data-uid="ent0024" id="cluster_Enums"><path d="M276.5,183 L329.918,183 A3.75,3.75 0 0 1 332.418,185.5 L339.418,205.2969 L949.5,205.2969 A2.5,2.5 0 0 1 952,207.7969 L952,474.5 A2.5,2.5 0 0 1 949.5,477 L276.5,477 A2.5,2.5 0 0 1 274,474.5 L274,185.5 A2.5,2.5 0 0 1 276.5,183" fill="none" style="stroke:#000000;stroke-width:1.5;"/><line style="stroke:#000000;stroke-width:1.5;" x1="274" x2="339.418" y1="205.2969" y2="205.2969"/><text fill="#000000" font-family="sans-serif" font-size="14" font-weight="bold" lengthAdjust="spacing" textLength="52.418" x="278" y="197.9951">Enums</text></g><!--cluster Moon--><g class="cluster" data-entity="Moon" data-source-line="78" data-uid="ent0032" id="cluster_Moon"><path d="M305,210 L349.1348,210 A3.75,3.75 0 0 1 351.6348,212.5 L358.6348,232.2969 L392,232.2969 A2.5,2.5 0 0 1 394.5,234.7969 L394.5,324.5 A2.5,2.5 0 0 1 392,327 L305,327 A2.5,2.5 0 0 1 302.5,324.5 L302.5,212.5 A2.5,2.5 0 0 1 305,210" fill="none" style="stroke:#000000;stroke-width:1.5;"/><line style="stroke:#000000;stroke-width:1.5;" x1="302.5" x2="358.6348" y1="232.2969" y2="232.2969"/><text fill="#000000" font-family="sans-serif" font-size="14" font-weight="bold" lengthAdjust="spacing" textLength="43.1348" x="306.5" y="224.9951">Moon</text></g><!--cluster Exceptions--><g class="cluster" data-entity="Exceptions" data-source-line="88" data-uid="ent0036" id="cluster_Exceptions"><path d="M253,485 L339.8184,485 A3.75,3.75 0 0 1 342.3184,487.5 L349.3184,507.2969 L444,507.2969 A2.5,2.5 0 0 1 446.5,509.7969 L446.5,549.5 A2.5,2.5 0 0 1 444,552 L253,552 A2.5,2.5 0 0 1 250.5,549.5 L250.5,487.5 A2.5,2.5 0 0 1 253,485" fill="none" style="stroke:#000000;stroke-width:1.5;"/><line style="stroke:#000000;stroke-width:1.5;" x1="250.5" x2="349.3184" y1="507.2969" y2="507.2969"/><text fill="#000000" font-family="sans-serif" font-size="14" font-weight="bold" lengthAdjust="spacing" textLength="85.8184" x="254.5" y="499.9951">Exceptions</text></g><!--cluster Records--><g class="cluster" data-entity="Records" data-source-line="93" data-uid="ent0041" id="cluster_Records"><path d="M239.5,560 L303.9512,560 A3.75,3.75 0 0 1 306.4512,562.5 L313.4512,582.2969 L697.5,582.2969 A2.5,2.5 0 0 1 700,584.7969 L700,759.5 A2.5,2.5 0 0 1 697.5,762 L239.5,762 A2.5,2.5 0 0 1 237,759.5 L237,562.5 A2.5,2.5 0 0 1 239.5,560" fill="none" style="stroke:#000000;stroke-width:1.5;"/><line style="stroke:#000000;stroke-width:1.5;" x1="237" x2="313.4512" y1="582.2969" y2="582.2969"/><text fill="#000000" font-family="sans-serif" font-size="14" font-weight="bold" lengthAdjust="spacing" textLength="63.4512" x="241" y="574.9951">Records</text></g><!--cluster Moon--><g class="cluster" data-entity="Moon" data-source-line="92" data-uid="ent0039" id="cluster_Moon"><path d="M247.5,587 L291.6348,587 A3.75,3.75 0 0 1 294.1348,589.5 L301.1348,609.2969 L689.5,609.2969 A2.5,2.5 0 0 1 692,611.7969 L692,751.5 A2.5,2.5 0 0 1 689.5,754 L247.5,754 A2.5,2.5 0 0 1 245,751.5 L245,589.5 A2.5,2.5 0 0 1 247.5,587" fill="none" style="stroke:#000000;stroke-width:1.5;"/><line style="stroke:#000000;stroke-width:1.5;" x1="245" x2="301.1348" y1="609.2969" y2="609.2969"/><text fill="#000000" font-family="sans-serif" font-size="14" font-weight="bold" lengthAdjust="spacing" textLength="43.1348" x="249" y="601.9951">Moon</text></g><!--cluster Rhythms--><g class="cluster" data-entity="Rhythms" data-source-line="109" data-uid="ent0048" id="cluster_Rhythms"><path d="M251,770 L321.4531,770 A3.75,3.75 0 0 1 323.9531,772.5 L330.9531,792.2969 L1009.5,792.2969 A2.5,2.5 0 0 1 1012,794.7969 L1012,1909.5 A2.5,2.5 0 0 1 1009.5,1912 L251,1912 A2.5,2.5 0 0 1 248.5,1909.5 L248.5,772.5 A2.5,2.5 0 0 1 251,770" fill="none" style="stroke:#000000;stroke-width:1.5;"/><line style="stroke:#000000;stroke-width:1.5;" x1="248.5" x2="330.9531" y1="792.2969" y2="792.2969"/><text fill="#000000" font-family="sans-serif" font-size="14" font-weight="bold" lengthAdjust="spacing" textLength="69.4531" x="252.5" y="784.9951">Rhythms</text></g><!--cluster Builders--><g class="cluster" data-entity="Builders" data-source-line="109" data-uid="ent0049" id="cluster_Builders"><path d="M264.5,797 L330.4893,797 A3.75,3.75 0 0 1 332.9893,799.5 L339.9893,819.2969 L1001.5,819.2969 A2.5,2.5 0 0 1 1004,821.7969 L1004,1576.5 A2.5,2.5 0 0 1 1001.5,1579 L264.5,1579 A2.5,2.5 0 0 1 262,1576.5 L262,799.5 A2.5,2.5 0 0 1 264.5,797" fill="none" style="stroke:#000000;stroke-width:1.5;"/><line style="stroke:#000000;stroke-width:1.5;" x1="262" x2="339.9893" y1="819.2969" y2="819.2969"/><text fill="#000000" font-family="sans-serif" font-size="14" font-weight="bold" lengthAdjust="spacing" textLength="64.9893" x="266" y="811.9951">Builders</text></g><!--cluster Interfaces--><g class="cluster" data-entity="Interfaces" data-source-line="108" data-uid="ent0046" id="cluster_Interfaces"><path d="M272.5,1103 L353.4326,1103 A3.75,3.75 0 0 1 355.9326,1105.5 L362.9326,1125.2969 L424.5,1125.2969 A2.5,2.5 0 0 1 427,1127.7969 L427,1217.5 A2.5,2.5 0 0 1 424.5,1220 L272.5,1220 A2.5,2.5 0 0 1 270,1217.5 L270,1105.5 A2.5,2.5 0 0 1 272.5,1103" fill="none" style="stroke:#000000;stroke-width:1.5;"/><line style="stroke:#000000;stroke-width:1.5;" x1="270" x2="362.9326" y1="1125.2969" y2="1125.2969"/><text fill="#000000" font-family="sans-serif" font-size="14" font-weight="bold" lengthAdjust="spacing" textLength="79.9326" x="274" y="1117.9951">Interfaces</text></g><!--cluster Moon--><g class="cluster" data-entity="Moon" data-source-line="121" data-uid="ent0055" id="cluster_Moon"><path d="M788.5,1194 L832.6348,1194 A3.75,3.75 0 0 1 835.1348,1196.5 L842.1348,1216.2969 L993.5,1216.2969 A2.5,2.5 0 0 1 996,1218.7969 L996,1568.5 A2.5,2.5 0 0 1 993.5,1571 L788.5,1571 A2.5,2.5 0 0 1 786,1568.5 L786,1196.5 A2.5,2.5 0 0 1 788.5,1194" fill="none" style="stroke:#000000;stroke-width:1.5;"/><line style="stroke:#000000;stroke-width:1.5;" x1="786" x2="842.1348" y1="1216.2969" y2="1216.2969"/><text fill="#000000" font-family="sans-serif" font-size="14" font-weight="bold" lengthAdjust="spacing" textLength="43.1348" x="790" y="1208.9951">Moon</text></g><!--cluster Apogees--><g class="cluster" data-entity="Apogees" data-source-line="120" data-uid="ent0053" id="cluster_Apogees"><path d="M823,1496 L891.8193,1496 A3.75,3.75 0 0 1 894.3193,1498.5 L901.3193,1518.2969 L959,1518.2969 A2.5,2.5 0 0 1 961.5,1520.7969 L961.5,1560.5 A2.5,2.5 0 0 1 959,1563 L823,1563 A2.5,2.5 0 0 1 820.5,1560.5 L820.5,1498.5 A2.5,2.5 0 0 1 823,1496" fill="none" style="stroke:#000000;stroke-width:1.5;"/><line style="stroke:#000000;stroke-width:1.5;" x1="820.5" x2="901.3193" y1="1518.2969" y2="1518.2969"/><text fill="#000000" font-family="sans-serif" font-size="14" font-weight="bold" lengthAdjust="spacing" textLength="67.8193" x="824.5" y="1510.9951">Apogees</text></g><!--cluster Periods--><g class="cluster" data-entity="Periods" data-source-line="124" data-uid="ent0057" id="cluster_Periods"><path d="M796.5,1296 L856.9316,1296 A3.75,3.75 0 0 1 859.4316,1298.5 L866.4316,1318.2969 L985.5,1318.2969 A2.5,2.5 0 0 1 988,1320.7969 L988,1360.5 A2.5,2.5 0 0 1 985.5,1363 L796.5,1363 A2.5,2.5 0 0 1 794,1360.5 L794,1298.5 A2.5,2.5 0 0 1 796.5,1296" fill="none" style="stroke:#000000;stroke-width:1.5;"/><line style="stroke:#000000;stroke-width:1.5;" x1="794" x2="866.4316" y1="1318.2969" y2="1318.2969"/><text fill="#000000" font-family="sans-serif" font-size="14" font-weight="bold" lengthAdjust="spacing" textLength="59.4316" x="798" y="1310.9951">Periods</text></g><!--cluster Phases--><g class="cluster" data-entity="Phases" data-source-line="128" data-uid="ent0060" id="cluster_Phases"><path d="M796.5,1221 L853.3359,1221 A3.75,3.75 0 0 1 855.8359,1223.5 L862.8359,1243.2969 L985.5,1243.2969 A2.5,2.5 0 0 1 988,1245.7969 L988,1285.5 A2.5,2.5 0 0 1 985.5,1288 L796.5,1288 A2.5,2.5 0 0 1 794,1285.5 L794,1223.5 A2.5,2.5 0 0 1 796.5,1221" fill="none" style="stroke:#000000;stroke-width:1.5;"/><line style="stroke:#000000;stroke-width:1.5;" x1="794" x2="862.8359" y1="1243.2969" y2="1243.2969"/><text fill="#000000" font-family="sans-serif" font-size="14" font-weight="bold" lengthAdjust="spacing" textLength="55.8359" x="798" y="1235.9951">Phases</text></g><!--cluster SynodicRhythm--><g class="cluster" data-entity="SynodicRhythm" data-source-line="132" data-uid="ent0063" id="cluster_SynodicRhythm"><path d="M823,1371 L947.0332,1371 A3.75,3.75 0 0 1 949.5332,1373.5 L956.5332,1393.2969 L959,1393.2969 A2.5,2.5 0 0 1 961.5,1395.7969 L961.5,1485.5 A2.5,2.5 0 0 1 959,1488 L823,1488 A2.5,2.5 0 0 1 820.5,1485.5 L820.5,1373.5 A2.5,2.5 0 0 1 823,1371" fill="none" style="stroke:#000000;stroke-width:1.5;"/><line style="stroke:#000000;stroke-width:1.5;" x1="820.5" x2="956.5332" y1="1393.2969" y2="1393.2969"/><text fill="#000000" font-family="sans-serif" font-size="14" font-weight="bold" lengthAdjust="spacing" textLength="123.0332" x="824.5" y="1385.9951">SynodicRhythm</text></g><!--cluster Strategies--><g class="cluster" data-entity="Strategies" data-source-line="141" data-uid="ent0070" id="cluster_Strategies"><path d="M509,824 L591.9629,824 A3.75,3.75 0 0 1 594.4629,826.5 L601.4629,846.2969 L973.5,846.2969 A2.5,2.5 0 0 1 976,848.7969 L976,1183.5 A2.5,2.5 0 0 1 973.5,1186 L509,1186 A2.5,2.5 0 0 1 506.5,1183.5 L506.5,826.5 A2.5,2.5 0 0 1 509,824" fill="none" style="stroke:#000000;stroke-width:1.5;"/><line style="stroke:#000000;stroke-width:1.5;" x1="506.5" x2="601.4629" y1="846.2969" y2="846.2969"/><text fill="#000000" font-family="sans-serif" font-size="14" font-weight="bold" lengthAdjust="spacing" textLength="81.9629" x="510.5" y="838.9951">Strategies</text></g><!--cluster Moon--><g class="cluster" data-entity="Moon" data-source-line="141" data-uid="ent0071" id="cluster_Moon"><path d="M517,851 L561.1348,851 A3.75,3.75 0 0 1 563.6348,853.5 L570.6348,873.2969 L965.5,873.2969 A2.5,2.5 0 0 1 968,875.7969 L968,1175.5 A2.5,2.5 0 0 1 965.5,1178 L517,1178 A2.5,2.5 0 0 1 514.5,1175.5 L514.5,853.5 A2.5,2.5 0 0 1 517,851" fill="none" style="stroke:#000000;stroke-width:1.5;"/><line style="stroke:#000000;stroke-width:1.5;" x1="514.5" x2="570.6348" y1="873.2969" y2="873.2969"/><text fill="#000000" font-family="sans-serif" font-size="14" font-weight="bold" lengthAdjust="spacing" textLength="43.1348" x="518.5" y="865.9951">Moon</text></g><!--cluster Anomalies--><g class="cluster" data-entity="Anomalies" data-source-line="140" data-uid="ent0068" id="cluster_Anomalies"><path d="M525,1103 L607.8809,1103 A3.75,3.75 0 0 1 610.3809,1105.5 L617.3809,1125.2969 L709,1125.2969 A2.5,2.5 0 0 1 711.5,1127.7969 L711.5,1167.5 A2.5,2.5 0 0 1 709,1170 L525,1170 A2.5,2.5 0 0 1 522.5,1167.5 L522.5,1105.5 A2.5,2.5 0 0 1 525,1103" fill="none" style="stroke:#000000;stroke-width:1.5;"/><line style="stroke:#000000;stroke-width:1.5;" x1="522.5" x2="617.3809" y1="1125.2969" y2="1125.2969"/><text fill="#000000" font-family="sans-serif" font-size="14" font-weight="bold" lengthAdjust="spacing" textLength="81.8809" x="526.5" y="1117.9951">Anomalies</text></g><!--cluster Phases--><g class="cluster" data-entity="Phases" data-source-line="144" data-uid="ent0073" id="cluster_Phases"><path d="M544.5,878 L601.3359,878 A3.75,3.75 0 0 1 603.8359,880.5 L610.8359,900.2969 L957.5,900.2969 A2.5,2.5 0 0 1 960,902.7969 L960,1092.5 A2.5,2.5 0 0 1 957.5,1095 L544.5,1095 A2.5,2.5 0 0 1 542,1092.5 L542,880.5 A2.5,2.5 0 0 1 544.5,878" fill="none" style="stroke:#000000;stroke-width:1.5;"/><line style="stroke:#000000;stroke-width:1.5;" x1="542" x2="610.8359" y1="900.2969" y2="900.2969"/><text fill="#000000" font-family="sans-serif" font-size="14" font-weight="bold" lengthAdjust="spacing" textLength="55.8359" x="546" y="892.9951">Phases</text></g><!--cluster Moon--><g class="cluster" data-entity="Moon" data-source-line="176" data-uid="ent0091" id="cluster_Moon"><path d="M259,1587 L303.1348,1587 A3.75,3.75 0 0 1 305.6348,1589.5 L312.6348,1609.2969 L438,1609.2969 A2.5,2.5 0 0 1 440.5,1611.7969 L440.5,1901.5 A2.5,2.5 0 0 1 438,1904 L259,1904 A2.5,2.5 0 0 1 256.5,1901.5 L256.5,1589.5 A2.5,2.5 0 0 1 259,1587" fill="none" style="stroke:#000000;stroke-width:1.5;"/><line style="stroke:#000000;stroke-width:1.5;" x1="256.5" x2="312.6348" y1="1609.2969" y2="1609.2969"/><text fill="#000000" font-family="sans-serif" font-size="14" font-weight="bold" lengthAdjust="spacing" textLength="43.1348" x="260.5" y="1601.9951">Moon</text></g><!--cluster Traits--><g class="cluster" data-entity="Traits" data-source-line="148" data-uid="ent0076" id="cluster_Traits"><path d="M526,1920 L572.7256,1920 A3.75,3.75 0 0 1 575.2256,1922.5 L582.2256,1942.2969 L708,1942.2969 A2.5,2.5 0 0 1 710.5,1944.7969 L710.5,1992.5 A2.5,2.5 0 0 1 708,1995 L526,1995 A2.5,2.5 0 0 1 523.5,1992.5 L523.5,1922.5 A2.5,2.5 0 0 1 526,1920" fill="none" style="stroke:#000000;stroke-width:1.5;"/><line style="stroke:#000000;stroke-width:1.5;" x1="523.5" x2="582.2256" y1="1942.2969" y2="1942.2969"/><text fill="#000000" font-family="sans-serif" font-size="14" font-weight="bold" lengthAdjust="spacing" textLength="45.7256" x="527.5" y="1934.9951">Traits</text></g><!--cluster Templates--><g class="cluster" data-entity="Templates" data-source-line="200" data-uid="ent0103" id="cluster_Templates"><path d="M281,2003 L364.4209,2003 A3.75,3.75 0 0 1 366.9209,2005.5 L373.9209,2025.2969 L734.5,2025.2969 A2.5,2.5 0 0 1 737,2027.7969 L737,2152.5 A2.5,2.5 0 0 1 734.5,2155 L281,2155 A2.5,2.5 0 0 1 278.5,2152.5 L278.5,2005.5 A2.5,2.5 0 0 1 281,2003" fill="none" style="stroke:#000000;stroke-width:1.5;"/><line style="stroke:#000000;stroke-width:1.5;" x1="278.5" x2="373.9209" y1="2025.2969" y2="2025.2969"/><text fill="#000000" font-family="sans-serif" font-size="14" font-weight="bold" lengthAdjust="spacing" textLength="82.4209" x="282.5" y="2017.9951">Templates</text></g><!--cluster Moon--><g class="cluster" data-entity="Moon" data-source-line="204" data-uid="ent0105" id="cluster_Moon"><path d="M507.5,2030 L551.6348,2030 A3.75,3.75 0 0 1 554.1348,2032.5 L561.1348,2052.2969 L726.5,2052.2969 A2.5,2.5 0 0 1 729,2054.7969 L729,2144.5 A2.5,2.5 0 0 1 726.5,2147 L507.5,2147 A2.5,2.5 0 0 1 505,2144.5 L505,2032.5 A2.5,2.5 0 0 1 507.5,2030" fill="none" style="stroke:#000000;stroke-width:1.5;"/><line style="stroke:#000000;stroke-width:1.5;" x1="505" x2="561.1348" y1="2052.2969" y2="2052.2969"/><text fill="#000000" font-family="sans-serif" font-size="14" font-weight="bold" lengthAdjust="spacing" textLength="43.1348" x="509" y="2044.9951">Moon</text></g><!--cluster Carbon--><g class="cluster" data-entity="Carbon" data-source-line="18" data-uid="ent0005" id="cluster_Carbon"><path d="M49.5,1623 L106.7324,1623 A3.75,3.75 0 0 1 109.2324,1625.5 L116.2324,1645.2969 L152.5,1645.2969 A2.5,2.5 0 0 1 155,1647.7969 L155,1695.5 A2.5,2.5 0 0 1 152.5,1698 L49.5,1698 A2.5,2.5 0 0 1 47,1695.5 L47,1625.5 A2.5,2.5 0 0 1 49.5,1623" fill="none" style="stroke:#000000;stroke-width:1.5;"/><line style="stroke:#000000;stroke-width:1.5;" x1="47" x2="116.2324" y1="1645.2969" y2="1645.2969"/><text fill="#000000" font-family="sans-serif" font-size="14" font-weight="bold" lengthAdjust="spacing" textLength="56.2324" x="51" y="1637.9951">Carbon</text></g><!--cluster Illuminate--><g class="cluster" data-entity="Illuminate" data-source-line="27" data-uid="ent0011" id="cluster_Illuminate"><path d="M16.5,1706 L97.2617,1706 A3.75,3.75 0 0 1 99.7617,1708.5 L106.7617,1728.2969 L185.5,1728.2969 A2.5,2.5 0 0 1 188,1730.7969 L188,1871.5 A2.5,2.5 0 0 1 185.5,1874 L16.5,1874 A2.5,2.5 0 0 1 14,1871.5 L14,1708.5 A2.5,2.5 0 0 1 16.5,1706" fill="none" style="stroke:#000000;stroke-width:1.5;"/><line style="stroke:#000000;stroke-width:1.5;" x1="14" x2="106.7617" y1="1728.2969" y2="1728.2969"/><text fill="#000000" font-family="sans-serif" font-size="14" font-weight="bold" lengthAdjust="spacing" textLength="79.7617" x="18" y="1720.9951">Illuminate</text></g><!--cluster Support--><g class="cluster" data-entity="Support" data-source-line="26" data-uid="ent0009" id="cluster_Support"><path d="M24.5,1733 L88.8076,1733 A3.75,3.75 0 0 1 91.3076,1735.5 L98.3076,1755.2969 L177.5,1755.2969 A2.5,2.5 0 0 1 180,1757.7969 L180,1863.5 A2.5,2.5 0 0 1 177.5,1866 L24.5,1866 A2.5,2.5 0 0 1 22,1863.5 L22,1735.5 A2.5,2.5 0 0 1 24.5,1733" fill="none" style="stroke:#000000;stroke-width:1.5;"/><line style="stroke:#000000;stroke-width:1.5;" x1="22" x2="98.3076" y1="1755.2969" y2="1755.2969"/><text fill="#000000" font-family="sans-serif" font-size="14" font-weight="bold" lengthAdjust="spacing" textLength="63.3076" x="26" y="1747.9951">Support</text></g><!--cluster AdamBrett--><g class="cluster" data-entity="AdamBrett" data-source-line="35" data-uid="ent0016" id="cluster_AdamBrett"><path d="M28.5,1882 L114.8467,1882 A3.75,3.75 0 0 1 117.3467,1884.5 L124.3467,1904.2969 L173.5,1904.2969 A2.5,2.5 0 0 1 176,1906.7969 L176,2082.5 A2.5,2.5 0 0 1 173.5,2085 L28.5,2085 A2.5,2.5 0 0 1 26,2082.5 L26,1884.5 A2.5,2.5 0 0 1 28.5,1882" fill="none" style="stroke:#000000;stroke-width:1.5;"/><line style="stroke:#000000;stroke-width:1.5;" x1="26" x2="124.3467" y1="1904.2969" y2="1904.2969"/><text fill="#000000" font-family="sans-serif" font-size="14" font-weight="bold" lengthAdjust="spacing" textLength="85.3467" x="30" y="1896.9951">AdamBrett</text></g><!--cluster ShellWrapper--><g class="cluster" data-entity="ShellWrapper" data-source-line="35" data-uid="ent0017" id="cluster_ShellWrapper"><path d="M36.5,1909 L144.8789,1909 A3.75,3.75 0 0 1 147.3789,1911.5 L154.3789,1931.2969 L165.5,1931.2969 A2.5,2.5 0 0 1 168,1933.7969 L168,2074.5 A2.5,2.5 0 0 1 165.5,2077 L36.5,2077 A2.5,2.5 0 0 1 34,2074.5 L34,1911.5 A2.5,2.5 0 0 1 36.5,1909" fill="none" style="stroke:#000000;stroke-width:1.5;"/><line style="stroke:#000000;stroke-width:1.5;" x1="34" x2="154.3789" y1="1931.2969" y2="1931.2969"/><text fill="#000000" font-family="sans-serif" font-size="14" font-weight="bold" lengthAdjust="spacing" textLength="107.3789" x="38" y="1923.9951">ShellWrapper</text></g><!--cluster Command--><g class="cluster" data-entity="Command" data-source-line="34" data-uid="ent0014" id="cluster_Command"><path d="M44.5,1936 L124.0039,1936 A3.75,3.75 0 0 1 126.5039,1938.5 L133.5039,1958.2969 L157.5,1958.2969 A2.5,2.5 0 0 1 160,1960.7969 L160,2066.5 A2.5,2.5 0 0 1 157.5,2069 L44.5,2069 A2.5,2.5 0 0 1 42,2066.5 L42,1938.5 A2.5,2.5 0 0 1 44.5,1936" fill="none" style="stroke:#000000;stroke-width:1.5;"/><line style="stroke:#000000;stroke-width:1.5;" x1="42" x2="133.5039" y1="1958.2969" y2="1958.2969"/><text fill="#000000" font-family="sans-serif" font-size="14" font-weight="bold" lengthAdjust="spacing" textLength="78.5039" x="46" y="1950.9951">Command</text></g><!--class ErrorException__class--><g class="entity" data-entity="ErrorException__class" data-source-line="86" data-uid="ent0035" id="entity_ErrorException__class"><rect fill="#F1F1F1" height="40.2656" rx="2.5" ry="2.5" style="stroke:#181818;stroke-width:0.5;" width="135.8242" x="33" y="508"/><ellipse cx="48" cy="528.1328" fill="#ADD1B2" rx="11" ry="11" style="stroke:#181818;stroke-width:1;"/><path d="M50.9688,533.7734 Q50.3906,534.0703 49.75,534.2109 Q49.1094,534.3672 48.4063,534.3672 Q45.9063,534.3672 44.5781,532.7266 Q43.2656,531.0703 43.2656,527.9453 Q43.2656,524.8203 44.5781,523.1641 Q45.9063,521.5078 48.4063,521.5078 Q49.1094,521.5078 49.75,521.6641 Q50.4063,521.8203 50.9688,522.1172 L50.9688,524.8359 Q50.3438,524.2578 49.75,523.9922 Q49.1563,523.7109 48.5313,523.7109 Q47.1875,523.7109 46.5,524.7891 Q45.8125,525.8516 45.8125,527.9453 Q45.8125,530.0391 46.5,531.1172 Q47.1875,532.1797 48.5313,532.1797 Q49.1563,532.1797 49.75,531.9141 Q50.3438,531.6328 50.9688,531.0547 L50.9688,533.7734 Z " fill="#000000"/><text fill="#000000" font-family="sans-serif" font-size="12" font-style="italic" lengthAdjust="spacing" textLength="64.4824" x="81.6709" y="524.1387">&#171;external&#187;</text><text fill="#000000" font-family="sans-serif" font-size="14" lengthAdjust="spacing" textLength="103.8242" x="62" y="539.9639">ErrorException</text></g><!--class LaravelSwissEphemeris__class--><g class="entity" data-entity="LaravelSwissEphemeris__class" data-source-line="15" data-uid="ent0003" id="entity_LaravelSwissEphemeris__class"><rect fill="#F1F1F1" height="32" rx="2.5" ry="2.5" style="stroke:#181818;stroke-width:0.5;" width="196.7256" x="250" y="2163"/><ellipse cx="265" cy="2179" fill="#ADD1B2" rx="11" ry="11" style="stroke:#181818;stroke-width:1;"/><path d="M267.9688,2184.6406 Q267.3906,2184.9375 266.75,2185.0781 Q266.1094,2185.2344 265.4063,2185.2344 Q262.9063,2185.2344 261.5781,2183.5938 Q260.2656,2181.9375 260.2656,2178.8125 Q260.2656,2175.6875 261.5781,2174.0313 Q262.9063,2172.375 265.4063,2172.375 Q266.1094,2172.375 266.75,2172.5313 Q267.4063,2172.6875 267.9688,2172.9844 L267.9688,2175.7031 Q267.3438,2175.125 266.75,2174.8594 Q266.1563,2174.5781 265.5313,2174.5781 Q264.1875,2174.5781 263.5,2175.6563 Q262.8125,2176.7188 262.8125,2178.8125 Q262.8125,2180.9063 263.5,2181.9844 Q264.1875,2183.0469 265.5313,2183.0469 Q266.1563,2183.0469 266.75,2182.7813 Q267.3438,2182.5 267.9688,2181.9219 L267.9688,2184.6406 Z " fill="#000000"/><text fill="#000000" font-family="sans-serif" font-size="14" lengthAdjust="spacing" textLength="164.7256" x="279" y="2183.8467">LaravelSwissEphemeris</text></g><!--class SwissEphemerisDateTime__class--><g class="entity" data-entity="SwissEphemerisDateTime__class" data-source-line="23" data-uid="ent0007" id="entity_SwissEphemerisDateTime__class"><rect fill="#F1F1F1" height="32" rx="2.5" ry="2.5" style="stroke:#181818;stroke-width:0.5;" width="213.3779" x="242" y="2213"/><ellipse cx="257" cy="2229" fill="#ADD1B2" rx="11" ry="11" style="stroke:#181818;stroke-width:1;"/><path d="M259.9688,2234.6406 Q259.3906,2234.9375 258.75,2235.0781 Q258.1094,2235.2344 257.4063,2235.2344 Q254.9063,2235.2344 253.5781,2233.5938 Q252.2656,2231.9375 252.2656,2228.8125 Q252.2656,2225.6875 253.5781,2224.0313 Q254.9063,2222.375 257.4063,2222.375 Q258.1094,2222.375 258.75,2222.5313 Q259.4063,2222.6875 259.9688,2222.9844 L259.9688,2225.7031 Q259.3438,2225.125 258.75,2224.8594 Q258.1563,2224.5781 257.5313,2224.5781 Q256.1875,2224.5781 255.5,2225.6563 Q254.8125,2226.7188 254.8125,2228.8125 Q254.8125,2230.9063 255.5,2231.9844 Q256.1875,2233.0469 257.5313,2233.0469 Q258.1563,2233.0469 258.75,2232.7813 Q259.3438,2232.5 259.9688,2231.9219 L259.9688,2234.6406 Z " fill="#000000"/><text fill="#000000" font-family="sans-serif" font-size="14" lengthAdjust="spacing" textLength="181.3779" x="271" y="2233.8467">SwissEphemerisDateTime</text></g><!--class SwissEphemerisServiceProvider__class--><g class="entity" data-entity="SwissEphemerisServiceProvider__class" data-source-line="31" data-uid="ent0012" id="entity_SwissEphemerisServiceProvider__class"><rect fill="#F1F1F1" height="32" rx="2.5" ry="2.5" style="stroke:#181818;stroke-width:0.5;" width="255.1592" x="221" y="2263"/><ellipse cx="236" cy="2279" fill="#ADD1B2" rx="11" ry="11" style="stroke:#181818;stroke-width:1;"/><path d="M238.9688,2284.6406 Q238.3906,2284.9375 237.75,2285.0781 Q237.1094,2285.2344 236.4063,2285.2344 Q233.9063,2285.2344 232.5781,2283.5938 Q231.2656,2281.9375 231.2656,2278.8125 Q231.2656,2275.6875 232.5781,2274.0313 Q233.9063,2272.375 236.4063,2272.375 Q237.1094,2272.375 237.75,2272.5313 Q238.4063,2272.6875 238.9688,2272.9844 L238.9688,2275.7031 Q238.3438,2275.125 237.75,2274.8594 Q237.1563,2274.5781 236.5313,2274.5781 Q235.1875,2274.5781 234.5,2275.6563 Q233.8125,2276.7188 233.8125,2278.8125 Q233.8125,2280.9063 234.5,2281.9844 Q235.1875,2283.0469 236.5313,2283.0469 Q237.1563,2283.0469 237.75,2282.7813 Q238.3438,2282.5 238.9688,2281.9219 L238.9688,2284.6406 Z " fill="#000000"/><text fill="#000000" font-family="sans-serif" font-size="14" lengthAdjust="spacing" textLength="223.1592" x="250" y="2283.8467">SwissEphemerisServiceProvider</text></g><!--class SwissEphemerisArgument__class--><g class="entity" data-entity="SwissEphemerisArgument__class" data-source-line="39" data-uid="ent0019" id="entity_SwissEphemerisArgument__class"><rect fill="#F1F1F1" height="32" rx="2.5" ry="2.5" style="stroke:#181818;stroke-width:0.5;" width="214.9297" x="241" y="85"/><ellipse cx="256" cy="101" fill="#ADD1B2" rx="11" ry="11" style="stroke:#181818;stroke-width:1;"/><path d="M258.9688,106.6406 Q258.3906,106.9375 257.75,107.0781 Q257.1094,107.2344 256.4063,107.2344 Q253.9063,107.2344 252.5781,105.5938 Q251.2656,103.9375 251.2656,100.8125 Q251.2656,97.6875 252.5781,96.0313 Q253.9063,94.375 256.4063,94.375 Q257.1094,94.375 257.75,94.5313 Q258.4063,94.6875 258.9688,94.9844 L258.9688,97.7031 Q258.3438,97.125 257.75,96.8594 Q257.1563,96.5781 256.5313,96.5781 Q255.1875,96.5781 254.5,97.6563 Q253.8125,98.7188 253.8125,100.8125 Q253.8125,102.9063 254.5,103.9844 Q255.1875,105.0469 256.5313,105.0469 Q257.1563,105.0469 257.75,104.7813 Q258.3438,104.5 258.9688,103.9219 L258.9688,106.6406 Z " fill="#000000"/><text fill="#000000" font-family="sans-serif" font-size="14" lengthAdjust="spacing" textLength="182.9297" x="270" y="105.8467">SwissEphemerisArgument</text></g><!--class SwissEphemerisFlag__class--><g class="entity" data-entity="SwissEphemerisFlag__class" data-source-line="47" data-uid="ent0022" id="entity_SwissEphemerisFlag__class"><rect fill="#F1F1F1" height="32" rx="2.5" ry="2.5" style="stroke:#181818;stroke-width:0.5;" width="174.6318" x="261" y="135"/><ellipse cx="276" cy="151" fill="#ADD1B2" rx="11" ry="11" style="stroke:#181818;stroke-width:1;"/><path d="M278.9688,156.6406 Q278.3906,156.9375 277.75,157.0781 Q277.1094,157.2344 276.4063,157.2344 Q273.9063,157.2344 272.5781,155.5938 Q271.2656,153.9375 271.2656,150.8125 Q271.2656,147.6875 272.5781,146.0313 Q273.9063,144.375 276.4063,144.375 Q277.1094,144.375 277.75,144.5313 Q278.4063,144.6875 278.9688,144.9844 L278.9688,147.7031 Q278.3438,147.125 277.75,146.8594 Q277.1563,146.5781 276.5313,146.5781 Q275.1875,146.5781 274.5,147.6563 Q273.8125,148.7188 273.8125,150.8125 Q273.8125,152.9063 274.5,153.9844 Q275.1875,155.0469 276.5313,155.0469 Q277.1563,155.0469 277.75,154.7813 Q278.3438,154.5 278.9688,153.9219 L278.9688,156.6406 Z " fill="#000000"/><text fill="#000000" font-family="sans-serif" font-size="14" lengthAdjust="spacing" textLength="142.6318" x="290" y="155.8467">SwissEphemerisFlag</text></g><!--class CommandFlag__enum--><g class="entity" data-entity="CommandFlag__enum" data-source-line="51" data-uid="ent0025" id="entity_CommandFlag__enum"><rect fill="#F1F1F1" height="32" rx="2.5" ry="2.5" style="stroke:#181818;stroke-width:0.5;" width="133.3633" x="282" y="437"/><ellipse cx="297" cy="453" fill="#EB937F" rx="11" ry="11" style="stroke:#181818;stroke-width:1;"/><path d="M301.1094,459 L293.3906,459 L293.3906,446.6094 L301.1094,446.6094 L301.1094,448.7656 L295.8438,448.7656 L295.8438,451.4375 L300.6094,451.4375 L300.6094,453.5938 L295.8438,453.5938 L295.8438,456.8438 L301.1094,456.8438 L301.1094,459 Z " fill="#000000"/><text fill="#000000" font-family="sans-serif" font-size="14" lengthAdjust="spacing" textLength="101.3633" x="311" y="457.8467">CommandFlag</text></g><!--class OutputFormat__enum--><g class="entity" data-entity="OutputFormat__enum" data-source-line="55" data-uid="ent0026" id="entity_OutputFormat__enum"><rect fill="#F1F1F1" height="32" rx="2.5" ry="2.5" style="stroke:#181818;stroke-width:0.5;" width="130.7109" x="283" y="387"/><ellipse cx="298" cy="403" fill="#EB937F" rx="11" ry="11" style="stroke:#181818;stroke-width:1;"/><path d="M302.1094,409 L294.3906,409 L294.3906,396.6094 L302.1094,396.6094 L302.1094,398.7656 L296.8438,398.7656 L296.8438,401.4375 L301.6094,401.4375 L301.6094,403.5938 L296.8438,403.5938 L296.8438,406.8438 L302.1094,406.8438 L302.1094,409 Z " fill="#000000"/><text fill="#000000" font-family="sans-serif" font-size="14" lengthAdjust="spacing" textLength="98.7109" x="312" y="407.8467">OutputFormat</text></g><!--class PlanetsList__enum--><g class="entity" data-entity="PlanetsList__enum" data-source-line="59" data-uid="ent0027" id="entity_PlanetsList__enum"><rect fill="#F1F1F1" height="32" rx="2.5" ry="2.5" style="stroke:#181818;stroke-width:0.5;" width="107.6533" x="294.5" y="337"/><ellipse cx="309.5" cy="353" fill="#EB937F" rx="11" ry="11" style="stroke:#181818;stroke-width:1;"/><path d="M313.6094,359 L305.8906,359 L305.8906,346.6094 L313.6094,346.6094 L313.6094,348.7656 L308.3438,348.7656 L308.3438,351.4375 L313.1094,351.4375 L313.1094,353.5938 L308.3438,353.5938 L308.3438,356.8438 L313.6094,356.8438 L313.6094,359 Z " fill="#000000"/><text fill="#000000" font-family="sans-serif" font-size="14" lengthAdjust="spacing" textLength="75.6533" x="323.5" y="357.8467">PlanetsList</text></g><!--class RegExPattern__enum--><g class="entity" data-entity="RegExPattern__enum" data-source-line="63" data-uid="ent0028" id="entity_RegExPattern__enum"><rect fill="#F1F1F1" height="32" rx="2.5" ry="2.5" style="stroke:#181818;stroke-width:0.5;" width="127.6006" x="553" y="437"/><ellipse cx="568" cy="453" fill="#EB937F" rx="11" ry="11" style="stroke:#181818;stroke-width:1;"/><path d="M572.1094,459 L564.3906,459 L564.3906,446.6094 L572.1094,446.6094 L572.1094,448.7656 L566.8438,448.7656 L566.8438,451.4375 L571.6094,451.4375 L571.6094,453.5938 L566.8438,453.5938 L566.8438,456.8438 L572.1094,456.8438 L572.1094,459 Z " fill="#000000"/><text fill="#000000" font-family="sans-serif" font-size="14" lengthAdjust="spacing" textLength="95.6006" x="582" y="457.8467">RegExPattern</text></g><!--class SingleFictiousObject__enum--><g class="entity" data-entity="SingleFictiousObject__enum" data-source-line="67" data-uid="ent0029" id="entity_SingleFictiousObject__enum"><rect fill="#F1F1F1" height="32" rx="2.5" ry="2.5" style="stroke:#181818;stroke-width:0.5;" width="174.3857" x="530" y="387"/><ellipse cx="545" cy="403" fill="#EB937F" rx="11" ry="11" style="stroke:#181818;stroke-width:1;"/><path d="M549.1094,409 L541.3906,409 L541.3906,396.6094 L549.1094,396.6094 L549.1094,398.7656 L543.8438,398.7656 L543.8438,401.4375 L548.6094,401.4375 L548.6094,403.5938 L543.8438,403.5938 L543.8438,406.8438 L549.1094,406.8438 L549.1094,409 Z " fill="#000000"/><text fill="#000000" font-family="sans-serif" font-size="14" lengthAdjust="spacing" textLength="142.3857" x="559" y="407.8467">SingleFictiousObject</text></g><!--class SinglePlanet__enum--><g class="entity" data-entity="SinglePlanet__enum" data-source-line="71" data-uid="ent0030" id="entity_SinglePlanet__enum"><rect fill="#F1F1F1" height="32" rx="2.5" ry="2.5" style="stroke:#181818;stroke-width:0.5;" width="118.9258" x="557.5" y="337"/><ellipse cx="572.5" cy="353" fill="#EB937F" rx="11" ry="11" style="stroke:#181818;stroke-width:1;"/><path d="M576.6094,359 L568.8906,359 L568.8906,346.6094 L576.6094,346.6094 L576.6094,348.7656 L571.3438,348.7656 L571.3438,351.4375 L576.1094,351.4375 L576.1094,353.5938 L571.3438,353.5938 L571.3438,356.8438 L576.6094,356.8438 L576.6094,359 Z " fill="#000000"/><text fill="#000000" font-family="sans-serif" font-size="14" lengthAdjust="spacing" textLength="86.9258" x="586.5" y="357.8467">SinglePlanet</text></g><!--class TimeSteps__enum--><g class="entity" data-entity="TimeSteps__enum" data-source-line="75" data-uid="ent0031" id="entity_TimeSteps__enum"><rect fill="#F1F1F1" height="32" rx="2.5" ry="2.5" style="stroke:#181818;stroke-width:0.5;" width="105.8623" x="838" y="437"/><ellipse cx="853" cy="453" fill="#EB937F" rx="11" ry="11" style="stroke:#181818;stroke-width:1;"/><path d="M857.1094,459 L849.3906,459 L849.3906,446.6094 L857.1094,446.6094 L857.1094,448.7656 L851.8438,448.7656 L851.8438,451.4375 L856.6094,451.4375 L856.6094,453.5938 L851.8438,453.5938 L851.8438,456.8438 L857.1094,456.8438 L857.1094,459 Z " fill="#000000"/><text fill="#000000" font-family="sans-serif" font-size="14" lengthAdjust="spacing" textLength="73.8623" x="867" y="457.8467">TimeSteps</text></g><!--class Period__enum--><g class="entity" data-entity="Period__enum" data-source-line="79" data-uid="ent0033" id="entity_Period__enum"><rect fill="#F1F1F1" height="32" rx="2.5" ry="2.5" style="stroke:#181818;stroke-width:0.5;" width="76.1533" x="310.5" y="237"/><ellipse cx="325.5" cy="253" fill="#EB937F" rx="11" ry="11" style="stroke:#181818;stroke-width:1;"/><path d="M329.6094,259 L321.8906,259 L321.8906,246.6094 L329.6094,246.6094 L329.6094,248.7656 L324.3438,248.7656 L324.3438,251.4375 L329.1094,251.4375 L329.1094,253.5938 L324.3438,253.5938 L324.3438,256.8438 L329.6094,256.8438 L329.6094,259 Z " fill="#000000"/><text fill="#000000" font-family="sans-serif" font-size="14" lengthAdjust="spacing" textLength="44.1533" x="339.5" y="257.8467">Period</text></g><!--class Phase__enum--><g class="entity" data-entity="Phase__enum" data-source-line="83" data-uid="ent0034" id="entity_Phase__enum"><rect fill="#F1F1F1" height="32" rx="2.5" ry="2.5" style="stroke:#181818;stroke-width:0.5;" width="73.8018" x="311.5" y="287"/><ellipse cx="326.5" cy="303" fill="#EB937F" rx="11" ry="11" style="stroke:#181818;stroke-width:1;"/><path d="M330.6094,309 L322.8906,309 L322.8906,296.6094 L330.6094,296.6094 L330.6094,298.7656 L325.3438,298.7656 L325.3438,301.4375 L330.1094,301.4375 L330.1094,303.5938 L325.3438,303.5938 L325.3438,306.8438 L330.6094,306.8438 L330.6094,309 Z " fill="#000000"/><text fill="#000000" font-family="sans-serif" font-size="14" lengthAdjust="spacing" textLength="41.8018" x="340.5" y="307.8467">Phase</text></g><!--class SwissEphemerisError__class--><g class="entity" data-entity="SwissEphemerisError__class" data-source-line="89" data-uid="ent0037" id="entity_SwissEphemerisError__class"><rect fill="#F1F1F1" height="32" rx="2.5" ry="2.5" style="stroke:#181818;stroke-width:0.5;" width="179.9023" x="258.5" y="512"/><ellipse cx="273.5" cy="528" fill="#ADD1B2" rx="11" ry="11" style="stroke:#181818;stroke-width:1;"/><path d="M276.4688,533.6406 Q275.8906,533.9375 275.25,534.0781 Q274.6094,534.2344 273.9063,534.2344 Q271.4063,534.2344 270.0781,532.5938 Q268.7656,530.9375 268.7656,527.8125 Q268.7656,524.6875 270.0781,523.0313 Q271.4063,521.375 273.9063,521.375 Q274.6094,521.375 275.25,521.5313 Q275.9063,521.6875 276.4688,521.9844 L276.4688,524.7031 Q275.8438,524.125 275.25,523.8594 Q274.6563,523.5781 274.0313,523.5781 Q272.6875,523.5781 272,524.6563 Q271.3125,525.7188 271.3125,527.8125 Q271.3125,529.9063 272,530.9844 Q272.6875,532.0469 274.0313,532.0469 Q274.6563,532.0469 275.25,531.7813 Q275.8438,531.5 276.4688,530.9219 L276.4688,533.6406 Z " fill="#000000"/><text fill="#000000" font-family="sans-serif" font-size="14" lengthAdjust="spacing" textLength="147.9023" x="287.5" y="532.8467">SwissEphemerisError</text></g><!--class AnomalisticRecord__class--><g class="entity" data-entity="AnomalisticRecord__class" data-source-line="93" data-uid="ent0040" id="entity_AnomalisticRecord__class"><rect fill="#F1F1F1" height="32" rx="2.5" ry="2.5" style="stroke:#181818;stroke-width:0.5;" width="162.6279" x="267" y="614"/><ellipse cx="282" cy="630" fill="#A9DCDF" rx="11" ry="11" style="stroke:#181818;stroke-width:1;"/><path d="M282.1094,625.3438 L280.9531,630.4219 L283.2813,630.4219 L282.1094,625.3438 Z M280.625,623.1094 L283.6094,623.1094 L286.9688,635.5 L284.5156,635.5 L283.75,632.4375 L280.4688,632.4375 L279.7188,635.5 L277.2813,635.5 L280.625,623.1094 Z " fill="#000000"/><text fill="#000000" font-family="sans-serif" font-size="14" font-style="italic" lengthAdjust="spacing" textLength="130.6279" x="296" y="634.8467">AnomalisticRecord</text></g><!--class ApogeeRecord__class--><g class="entity" data-entity="ApogeeRecord__class" data-source-line="97" data-uid="ent0042" id="entity_ApogeeRecord__class"><rect fill="#F1F1F1" height="32" rx="2.5" ry="2.5" style="stroke:#181818;stroke-width:0.5;" width="134.3887" x="550" y="614"/><ellipse cx="565" cy="630" fill="#ADD1B2" rx="11" ry="11" style="stroke:#181818;stroke-width:1;"/><path d="M567.9688,635.6406 Q567.3906,635.9375 566.75,636.0781 Q566.1094,636.2344 565.4063,636.2344 Q562.9063,636.2344 561.5781,634.5938 Q560.2656,632.9375 560.2656,629.8125 Q560.2656,626.6875 561.5781,625.0313 Q562.9063,623.375 565.4063,623.375 Q566.1094,623.375 566.75,623.5313 Q567.4063,623.6875 567.9688,623.9844 L567.9688,626.7031 Q567.3438,626.125 566.75,625.8594 Q566.1563,625.5781 565.5313,625.5781 Q564.1875,625.5781 563.5,626.6563 Q562.8125,627.7188 562.8125,629.8125 Q562.8125,631.9063 563.5,632.9844 Q564.1875,634.0469 565.5313,634.0469 Q566.1563,634.0469 566.75,633.7813 Q567.3438,633.5 567.9688,632.9219 L567.9688,635.6406 Z " fill="#000000"/><text fill="#000000" font-family="sans-serif" font-size="14" lengthAdjust="spacing" textLength="102.3887" x="579" y="634.8467">ApogeeRecord</text></g><!--class PhaseRecord__class--><g class="entity" data-entity="PhaseRecord__class" data-source-line="101" data-uid="ent0044" id="entity_PhaseRecord__class"><rect fill="#F1F1F1" height="32" rx="2.5" ry="2.5" style="stroke:#181818;stroke-width:0.5;" width="123.0479" x="287" y="664"/><ellipse cx="302" cy="680" fill="#ADD1B2" rx="11" ry="11" style="stroke:#181818;stroke-width:1;"/><path d="M304.9688,685.6406 Q304.3906,685.9375 303.75,686.0781 Q303.1094,686.2344 302.4063,686.2344 Q299.9063,686.2344 298.5781,684.5938 Q297.2656,682.9375 297.2656,679.8125 Q297.2656,676.6875 298.5781,675.0313 Q299.9063,673.375 302.4063,673.375 Q303.1094,673.375 303.75,673.5313 Q304.4063,673.6875 304.9688,673.9844 L304.9688,676.7031 Q304.3438,676.125 303.75,675.8594 Q303.1563,675.5781 302.5313,675.5781 Q301.1875,675.5781 300.5,676.6563 Q299.8125,677.7188 299.8125,679.8125 Q299.8125,681.9063 300.5,682.9844 Q301.1875,684.0469 302.5313,684.0469 Q303.1563,684.0469 303.75,683.7813 Q304.3438,683.5 304.9688,682.9219 L304.9688,685.6406 Z " fill="#000000"/><text fill="#000000" font-family="sans-serif" font-size="14" lengthAdjust="spacing" textLength="91.0479" x="316" y="684.8467">PhaseRecord</text></g><!--class SynodicRhythmRecord__class--><g class="entity" data-entity="SynodicRhythmRecord__class" data-source-line="105" data-uid="ent0045" id="entity_SynodicRhythmRecord__class"><rect fill="#F1F1F1" height="32" rx="2.5" ry="2.5" style="stroke:#181818;stroke-width:0.5;" width="191.2158" x="253" y="714"/><ellipse cx="268" cy="730" fill="#ADD1B2" rx="11" ry="11" style="stroke:#181818;stroke-width:1;"/><path d="M270.9688,735.6406 Q270.3906,735.9375 269.75,736.0781 Q269.1094,736.2344 268.4063,736.2344 Q265.9063,736.2344 264.5781,734.5938 Q263.2656,732.9375 263.2656,729.8125 Q263.2656,726.6875 264.5781,725.0313 Q265.9063,723.375 268.4063,723.375 Q269.1094,723.375 269.75,723.5313 Q270.4063,723.6875 270.9688,723.9844 L270.9688,726.7031 Q270.3438,726.125 269.75,725.8594 Q269.1563,725.5781 268.5313,725.5781 Q267.1875,725.5781 266.5,726.6563 Q265.8125,727.7188 265.8125,729.8125 Q265.8125,731.9063 266.5,732.9844 Q267.1875,734.0469 268.5313,734.0469 Q269.1563,734.0469 269.75,733.7813 Q270.3438,733.5 270.9688,732.9219 L270.9688,735.6406 Z " fill="#000000"/><text fill="#000000" font-family="sans-serif" font-size="14" lengthAdjust="spacing" textLength="159.2158" x="282" y="734.8467">SynodicRhythmRecord</text></g><!--class Builder__class--><g class="entity" data-entity="Builder__class" data-source-line="113" data-uid="ent0050" id="entity_Builder__class"><rect fill="#F1F1F1" height="32" rx="2.5" ry="2.5" style="stroke:#181818;stroke-width:0.5;" width="81.5127" x="576" y="1378"/><ellipse cx="591" cy="1394" fill="#A9DCDF" rx="11" ry="11" style="stroke:#181818;stroke-width:1;"/><path d="M591.1094,1389.3438 L589.9531,1394.4219 L592.2813,1394.4219 L591.1094,1389.3438 Z M589.625,1387.1094 L592.6094,1387.1094 L595.9688,1399.5 L593.5156,1399.5 L592.75,1396.4375 L589.4688,1396.4375 L588.7188,1399.5 L586.2813,1399.5 L589.625,1387.1094 Z " fill="#000000"/><text fill="#000000" font-family="sans-serif" font-size="14" font-style="italic" lengthAdjust="spacing" textLength="49.5127" x="605" y="1398.8467">Builder</text></g><!--class Builder__interface--><g class="entity" data-entity="Builder__interface" data-source-line="109" data-uid="ent0047" id="entity_Builder__interface"><rect fill="#F1F1F1" height="32" rx="2.5" ry="2.5" style="stroke:#181818;stroke-width:0.5;" width="81.5127" x="307.5" y="1180"/><ellipse cx="322.5" cy="1196" fill="#B4A7E5" rx="11" ry="11" style="stroke:#181818;stroke-width:1;"/><path d="M318.4219,1191.7656 L318.4219,1189.6094 L325.8125,1189.6094 L325.8125,1191.7656 L323.3438,1191.7656 L323.3438,1199.8438 L325.8125,1199.8438 L325.8125,1202 L318.4219,1202 L318.4219,1199.8438 L320.8906,1199.8438 L320.8906,1191.7656 L318.4219,1191.7656 Z " fill="#000000"/><text fill="#000000" font-family="sans-serif" font-size="14" font-style="italic" lengthAdjust="spacing" textLength="49.5127" x="336.5" y="1200.8467">Builder</text></g><!--class BuilderStrategy__interface--><g class="entity" data-entity="BuilderStrategy__interface" data-source-line="117" data-uid="ent0052" id="entity_BuilderStrategy__interface"><rect fill="#F1F1F1" height="32" rx="2.5" ry="2.5" style="stroke:#181818;stroke-width:0.5;" width="141.498" x="278" y="1130"/><ellipse cx="293" cy="1146" fill="#B4A7E5" rx="11" ry="11" style="stroke:#181818;stroke-width:1;"/><path d="M288.9219,1141.7656 L288.9219,1139.6094 L296.3125,1139.6094 L296.3125,1141.7656 L293.8438,1141.7656 L293.8438,1149.8438 L296.3125,1149.8438 L296.3125,1152 L288.9219,1152 L288.9219,1149.8438 L291.3906,1149.8438 L291.3906,1141.7656 L288.9219,1141.7656 Z " fill="#000000"/><text fill="#000000" font-family="sans-serif" font-size="14" font-style="italic" lengthAdjust="spacing" textLength="109.498" x="307" y="1150.8467">BuilderStrategy</text></g><!--class FromRecords__class--><g class="entity" data-entity="FromRecords__class" data-source-line="121" data-uid="ent0054" id="entity_FromRecords__class"><rect fill="#F1F1F1" height="32" rx="2.5" ry="2.5" style="stroke:#181818;stroke-width:0.5;" width="124.5518" x="828.5" y="1523"/><ellipse cx="843.5" cy="1539" fill="#ADD1B2" rx="11" ry="11" style="stroke:#181818;stroke-width:1;"/><path d="M846.4688,1544.6406 Q845.8906,1544.9375 845.25,1545.0781 Q844.6094,1545.2344 843.9063,1545.2344 Q841.4063,1545.2344 840.0781,1543.5938 Q838.7656,1541.9375 838.7656,1538.8125 Q838.7656,1535.6875 840.0781,1534.0313 Q841.4063,1532.375 843.9063,1532.375 Q844.6094,1532.375 845.25,1532.5313 Q845.9063,1532.6875 846.4688,1532.9844 L846.4688,1535.7031 Q845.8438,1535.125 845.25,1534.8594 Q844.6563,1534.5781 844.0313,1534.5781 Q842.6875,1534.5781 842,1535.6563 Q841.3125,1536.7188 841.3125,1538.8125 Q841.3125,1540.9063 842,1541.9844 Q842.6875,1543.0469 844.0313,1543.0469 Q844.6563,1543.0469 845.25,1542.7813 Q845.8438,1542.5 846.4688,1541.9219 L846.4688,1544.6406 Z " fill="#000000"/><text fill="#000000" font-family="sans-serif" font-size="14" lengthAdjust="spacing" textLength="92.5518" x="857.5" y="1543.8467">FromRecords</text></g><!--class FromSynodicRhythm__class--><g class="entity" data-entity="FromSynodicRhythm__class" data-source-line="125" data-uid="ent0058" id="entity_FromSynodicRhythm__class"><rect fill="#F1F1F1" height="32" rx="2.5" ry="2.5" style="stroke:#181818;stroke-width:0.5;" width="177.9814" x="802" y="1323"/><ellipse cx="817" cy="1339" fill="#ADD1B2" rx="11" ry="11" style="stroke:#181818;stroke-width:1;"/><path d="M819.9688,1344.6406 Q819.3906,1344.9375 818.75,1345.0781 Q818.1094,1345.2344 817.4063,1345.2344 Q814.9063,1345.2344 813.5781,1343.5938 Q812.2656,1341.9375 812.2656,1338.8125 Q812.2656,1335.6875 813.5781,1334.0313 Q814.9063,1332.375 817.4063,1332.375 Q818.1094,1332.375 818.75,1332.5313 Q819.4063,1332.6875 819.9688,1332.9844 L819.9688,1335.7031 Q819.3438,1335.125 818.75,1334.8594 Q818.1563,1334.5781 817.5313,1334.5781 Q816.1875,1334.5781 815.5,1335.6563 Q814.8125,1336.7188 814.8125,1338.8125 Q814.8125,1340.9063 815.5,1341.9844 Q816.1875,1343.0469 817.5313,1343.0469 Q818.1563,1343.0469 818.75,1342.7813 Q819.3438,1342.5 819.9688,1341.9219 L819.9688,1344.6406 Z " fill="#000000"/><text fill="#000000" font-family="sans-serif" font-size="14" lengthAdjust="spacing" textLength="145.9814" x="831" y="1343.8467">FromSynodicRhythm</text></g><!--class FromSynodicRhythm__class--><g class="entity" data-entity="FromSynodicRhythm__class" data-source-line="129" data-uid="ent0061" id="entity_FromSynodicRhythm__class"><rect fill="#F1F1F1" height="32" rx="2.5" ry="2.5" style="stroke:#181818;stroke-width:0.5;" width="177.9814" x="802" y="1248"/><ellipse cx="817" cy="1264" fill="#ADD1B2" rx="11" ry="11" style="stroke:#181818;stroke-width:1;"/><path d="M819.9688,1269.6406 Q819.3906,1269.9375 818.75,1270.0781 Q818.1094,1270.2344 817.4063,1270.2344 Q814.9063,1270.2344 813.5781,1268.5938 Q812.2656,1266.9375 812.2656,1263.8125 Q812.2656,1260.6875 813.5781,1259.0313 Q814.9063,1257.375 817.4063,1257.375 Q818.1094,1257.375 818.75,1257.5313 Q819.4063,1257.6875 819.9688,1257.9844 L819.9688,1260.7031 Q819.3438,1260.125 818.75,1259.8594 Q818.1563,1259.5781 817.5313,1259.5781 Q816.1875,1259.5781 815.5,1260.6563 Q814.8125,1261.7188 814.8125,1263.8125 Q814.8125,1265.9063 815.5,1266.9844 Q816.1875,1268.0469 817.5313,1268.0469 Q818.1563,1268.0469 818.75,1267.7813 Q819.3438,1267.5 819.9688,1266.9219 L819.9688,1269.6406 Z " fill="#000000"/><text fill="#000000" font-family="sans-serif" font-size="14" lengthAdjust="spacing" textLength="145.9814" x="831" y="1268.8467">FromSynodicRhythm</text></g><!--class FromArray__class--><g class="entity" data-entity="FromArray__class" data-source-line="133" data-uid="ent0064" id="entity_FromArray__class"><rect fill="#F1F1F1" height="32" rx="2.5" ry="2.5" style="stroke:#181818;stroke-width:0.5;" width="105.9648" x="838" y="1448"/><ellipse cx="853" cy="1464" fill="#ADD1B2" rx="11" ry="11" style="stroke:#181818;stroke-width:1;"/><path d="M855.9688,1469.6406 Q855.3906,1469.9375 854.75,1470.0781 Q854.1094,1470.2344 853.4063,1470.2344 Q850.9063,1470.2344 849.5781,1468.5938 Q848.2656,1466.9375 848.2656,1463.8125 Q848.2656,1460.6875 849.5781,1459.0313 Q850.9063,1457.375 853.4063,1457.375 Q854.1094,1457.375 854.75,1457.5313 Q855.4063,1457.6875 855.9688,1457.9844 L855.9688,1460.7031 Q855.3438,1460.125 854.75,1459.8594 Q854.1563,1459.5781 853.5313,1459.5781 Q852.1875,1459.5781 851.5,1460.6563 Q850.8125,1461.7188 850.8125,1463.8125 Q850.8125,1465.9063 851.5,1466.9844 Q852.1875,1468.0469 853.5313,1468.0469 Q854.1563,1468.0469 854.75,1467.7813 Q855.3438,1467.5 855.9688,1466.9219 L855.9688,1469.6406 Z " fill="#000000"/><text fill="#000000" font-family="sans-serif" font-size="14" lengthAdjust="spacing" textLength="73.9648" x="867" y="1468.8467">FromArray</text></g><!--class FromRecords__class--><g class="entity" data-entity="FromRecords__class" data-source-line="137" data-uid="ent0066" id="entity_FromRecords__class"><rect fill="#F1F1F1" height="32" rx="2.5" ry="2.5" style="stroke:#181818;stroke-width:0.5;" width="124.5518" x="828.5" y="1398"/><ellipse cx="843.5" cy="1414" fill="#ADD1B2" rx="11" ry="11" style="stroke:#181818;stroke-width:1;"/><path d="M846.4688,1419.6406 Q845.8906,1419.9375 845.25,1420.0781 Q844.6094,1420.2344 843.9063,1420.2344 Q841.4063,1420.2344 840.0781,1418.5938 Q838.7656,1416.9375 838.7656,1413.8125 Q838.7656,1410.6875 840.0781,1409.0313 Q841.4063,1407.375 843.9063,1407.375 Q844.6094,1407.375 845.25,1407.5313 Q845.9063,1407.6875 846.4688,1407.9844 L846.4688,1410.7031 Q845.8438,1410.125 845.25,1409.8594 Q844.6563,1409.5781 844.0313,1409.5781 Q842.6875,1409.5781 842,1410.6563 Q841.3125,1411.7188 841.3125,1413.8125 Q841.3125,1415.9063 842,1416.9844 Q842.6875,1418.0469 844.0313,1418.0469 Q844.6563,1418.0469 845.25,1417.7813 Q845.8438,1417.5 846.4688,1416.9219 L846.4688,1419.6406 Z " fill="#000000"/><text fill="#000000" font-family="sans-serif" font-size="14" lengthAdjust="spacing" textLength="92.5518" x="857.5" y="1418.8467">FromRecords</text></g><!--class AnomalisticStrategy__class--><g class="entity" data-entity="AnomalisticStrategy__class" data-source-line="141" data-uid="ent0069" id="entity_AnomalisticStrategy__class"><rect fill="#F1F1F1" height="32" rx="2.5" ry="2.5" style="stroke:#181818;stroke-width:0.5;" width="173.3672" x="530.5" y="1130"/><ellipse cx="545.5" cy="1146" fill="#A9DCDF" rx="11" ry="11" style="stroke:#181818;stroke-width:1;"/><path d="M545.6094,1141.3438 L544.4531,1146.4219 L546.7813,1146.4219 L545.6094,1141.3438 Z M544.125,1139.1094 L547.1094,1139.1094 L550.4688,1151.5 L548.0156,1151.5 L547.25,1148.4375 L543.9688,1148.4375 L543.2188,1151.5 L540.7813,1151.5 L544.125,1139.1094 Z " fill="#000000"/><text fill="#000000" font-family="sans-serif" font-size="14" font-style="italic" lengthAdjust="spacing" textLength="141.3672" x="559.5" y="1150.8467">AnomalisticStrategy</text></g><!--class PhaseStrategy__class--><g class="entity" data-entity="PhaseStrategy__class" data-source-line="145" data-uid="ent0074" id="entity_PhaseStrategy__class"><rect fill="#F1F1F1" height="32" rx="2.5" ry="2.5" style="stroke:#181818;stroke-width:0.5;" width="133.7871" x="550" y="1005"/><ellipse cx="565" cy="1021" fill="#A9DCDF" rx="11" ry="11" style="stroke:#181818;stroke-width:1;"/><path d="M565.1094,1016.3438 L563.9531,1021.4219 L566.2813,1021.4219 L565.1094,1016.3438 Z M563.625,1014.1094 L566.6094,1014.1094 L569.9688,1026.5 L567.5156,1026.5 L566.75,1023.4375 L563.4688,1023.4375 L562.7188,1026.5 L560.2813,1026.5 L563.625,1014.1094 Z " fill="#000000"/><text fill="#000000" font-family="sans-serif" font-size="14" font-style="italic" lengthAdjust="spacing" textLength="101.7871" x="579" y="1025.8467">PhaseStrategy</text></g><!--class FirstQuarter__class--><g class="entity" data-entity="FirstQuarter__class" data-source-line="152" data-uid="ent0078" id="entity_FirstQuarter__class"><rect fill="#F1F1F1" height="32" rx="2.5" ry="2.5" style="stroke:#181818;stroke-width:0.5;" width="116.5674" x="832.5" y="1055"/><ellipse cx="847.5" cy="1071" fill="#ADD1B2" rx="11" ry="11" style="stroke:#181818;stroke-width:1;"/><path d="M850.4688,1076.6406 Q849.8906,1076.9375 849.25,1077.0781 Q848.6094,1077.2344 847.9063,1077.2344 Q845.4063,1077.2344 844.0781,1075.5938 Q842.7656,1073.9375 842.7656,1070.8125 Q842.7656,1067.6875 844.0781,1066.0313 Q845.4063,1064.375 847.9063,1064.375 Q848.6094,1064.375 849.25,1064.5313 Q849.9063,1064.6875 850.4688,1064.9844 L850.4688,1067.7031 Q849.8438,1067.125 849.25,1066.8594 Q848.6563,1066.5781 848.0313,1066.5781 Q846.6875,1066.5781 846,1067.6563 Q845.3125,1068.7188 845.3125,1070.8125 Q845.3125,1072.9063 846,1073.9844 Q846.6875,1075.0469 848.0313,1075.0469 Q848.6563,1075.0469 849.25,1074.7813 Q849.8438,1074.5 850.4688,1073.9219 L850.4688,1076.6406 Z " fill="#000000"/><text fill="#000000" font-family="sans-serif" font-size="14" lengthAdjust="spacing" textLength="84.5674" x="861.5" y="1075.8467">FirstQuarter</text></g><!--class FullMoon__class--><g class="entity" data-entity="FullMoon__class" data-source-line="157" data-uid="ent0081" id="entity_FullMoon__class"><rect fill="#F1F1F1" height="32" rx="2.5" ry="2.5" style="stroke:#181818;stroke-width:0.5;" width="94.7881" x="843.5" y="1005"/><ellipse cx="858.5" cy="1021" fill="#ADD1B2" rx="11" ry="11" style="stroke:#181818;stroke-width:1;"/><path d="M861.4688,1026.6406 Q860.8906,1026.9375 860.25,1027.0781 Q859.6094,1027.2344 858.9063,1027.2344 Q856.4063,1027.2344 855.0781,1025.5938 Q853.7656,1023.9375 853.7656,1020.8125 Q853.7656,1017.6875 855.0781,1016.0313 Q856.4063,1014.375 858.9063,1014.375 Q859.6094,1014.375 860.25,1014.5313 Q860.9063,1014.6875 861.4688,1014.9844 L861.4688,1017.7031 Q860.8438,1017.125 860.25,1016.8594 Q859.6563,1016.5781 859.0313,1016.5781 Q857.6875,1016.5781 857,1017.6563 Q856.3125,1018.7188 856.3125,1020.8125 Q856.3125,1022.9063 857,1023.9844 Q857.6875,1025.0469 859.0313,1025.0469 Q859.6563,1025.0469 860.25,1024.7813 Q860.8438,1024.5 861.4688,1023.9219 L861.4688,1026.6406 Z " fill="#000000"/><text fill="#000000" font-family="sans-serif" font-size="14" lengthAdjust="spacing" textLength="62.7881" x="872.5" y="1025.8467">FullMoon</text></g><!--class NewMoon__class--><g class="entity" data-entity="NewMoon__class" data-source-line="162" data-uid="ent0084" id="entity_NewMoon__class"><rect fill="#F1F1F1" height="32" rx="2.5" ry="2.5" style="stroke:#181818;stroke-width:0.5;" width="100.6191" x="840.5" y="955"/><ellipse cx="855.5" cy="971" fill="#ADD1B2" rx="11" ry="11" style="stroke:#181818;stroke-width:1;"/><path d="M858.4688,976.6406 Q857.8906,976.9375 857.25,977.0781 Q856.6094,977.2344 855.9063,977.2344 Q853.4063,977.2344 852.0781,975.5938 Q850.7656,973.9375 850.7656,970.8125 Q850.7656,967.6875 852.0781,966.0313 Q853.4063,964.375 855.9063,964.375 Q856.6094,964.375 857.25,964.5313 Q857.9063,964.6875 858.4688,964.9844 L858.4688,967.7031 Q857.8438,967.125 857.25,966.8594 Q856.6563,966.5781 856.0313,966.5781 Q854.6875,966.5781 854,967.6563 Q853.3125,968.7188 853.3125,970.8125 Q853.3125,972.9063 854,973.9844 Q854.6875,975.0469 856.0313,975.0469 Q856.6563,975.0469 857.25,974.7813 Q857.8438,974.5 858.4688,973.9219 L858.4688,976.6406 Z " fill="#000000"/><text fill="#000000" font-family="sans-serif" font-size="14" lengthAdjust="spacing" textLength="68.6191" x="869.5" y="975.8467">NewMoon</text></g><!--class ThirdQuarter__class--><g class="entity" data-entity="ThirdQuarter__class" data-source-line="167" data-uid="ent0087" id="entity_ThirdQuarter__class"><rect fill="#F1F1F1" height="32" rx="2.5" ry="2.5" style="stroke:#181818;stroke-width:0.5;" width="122.043" x="830" y="905"/><ellipse cx="845" cy="921" fill="#ADD1B2" rx="11" ry="11" style="stroke:#181818;stroke-width:1;"/><path d="M847.9688,926.6406 Q847.3906,926.9375 846.75,927.0781 Q846.1094,927.2344 845.4063,927.2344 Q842.9063,927.2344 841.5781,925.5938 Q840.2656,923.9375 840.2656,920.8125 Q840.2656,917.6875 841.5781,916.0313 Q842.9063,914.375 845.4063,914.375 Q846.1094,914.375 846.75,914.5313 Q847.4063,914.6875 847.9688,914.9844 L847.9688,917.7031 Q847.3438,917.125 846.75,916.8594 Q846.1563,916.5781 845.5313,916.5781 Q844.1875,916.5781 843.5,917.6563 Q842.8125,918.7188 842.8125,920.8125 Q842.8125,922.9063 843.5,923.9844 Q844.1875,925.0469 845.5313,925.0469 Q846.1563,925.0469 846.75,924.7813 Q847.3438,924.5 847.9688,923.9219 L847.9688,926.6406 Z " fill="#000000"/><text fill="#000000" font-family="sans-serif" font-size="14" lengthAdjust="spacing" textLength="90.043" x="859" y="925.8467">ThirdQuarter</text></g><!--class AnomalisticRhythm__class--><g class="entity" data-entity="AnomalisticRhythm__class" data-source-line="177" data-uid="ent0092" id="entity_AnomalisticRhythm__class"><rect fill="#F1F1F1" height="32" rx="2.5" ry="2.5" style="stroke:#181818;stroke-width:0.5;" width="168.2676" x="264.5" y="1614"/><ellipse cx="279.5" cy="1630" fill="#ADD1B2" rx="11" ry="11" style="stroke:#181818;stroke-width:1;"/><path d="M282.4688,1635.6406 Q281.8906,1635.9375 281.25,1636.0781 Q280.6094,1636.2344 279.9063,1636.2344 Q277.4063,1636.2344 276.0781,1634.5938 Q274.7656,1632.9375 274.7656,1629.8125 Q274.7656,1626.6875 276.0781,1625.0313 Q277.4063,1623.375 279.9063,1623.375 Q280.6094,1623.375 281.25,1623.5313 Q281.9063,1623.6875 282.4688,1623.9844 L282.4688,1626.7031 Q281.8438,1626.125 281.25,1625.8594 Q280.6563,1625.5781 280.0313,1625.5781 Q278.6875,1625.5781 278,1626.6563 Q277.3125,1627.7188 277.3125,1629.8125 Q277.3125,1631.9063 278,1632.9844 Q278.6875,1634.0469 280.0313,1634.0469 Q280.6563,1634.0469 281.25,1633.7813 Q281.8438,1633.5 282.4688,1632.9219 L282.4688,1635.6406 Z " fill="#000000"/><text fill="#000000" font-family="sans-serif" font-size="14" lengthAdjust="spacing" textLength="136.2676" x="293.5" y="1634.8467">AnomalisticRhythm</text></g><!--class Apogees__class--><g class="entity" data-entity="Apogees__class" data-source-line="181" data-uid="ent0094" id="entity_Apogees__class"><rect fill="#F1F1F1" height="32" rx="2.5" ry="2.5" style="stroke:#181818;stroke-width:0.5;" width="92.4365" x="302.5" y="1664"/><ellipse cx="317.5" cy="1680" fill="#ADD1B2" rx="11" ry="11" style="stroke:#181818;stroke-width:1;"/><path d="M320.4688,1685.6406 Q319.8906,1685.9375 319.25,1686.0781 Q318.6094,1686.2344 317.9063,1686.2344 Q315.4063,1686.2344 314.0781,1684.5938 Q312.7656,1682.9375 312.7656,1679.8125 Q312.7656,1676.6875 314.0781,1675.0313 Q315.4063,1673.375 317.9063,1673.375 Q318.6094,1673.375 319.25,1673.5313 Q319.9063,1673.6875 320.4688,1673.9844 L320.4688,1676.7031 Q319.8438,1676.125 319.25,1675.8594 Q318.6563,1675.5781 318.0313,1675.5781 Q316.6875,1675.5781 316,1676.6563 Q315.3125,1677.7188 315.3125,1679.8125 Q315.3125,1681.9063 316,1682.9844 Q316.6875,1684.0469 318.0313,1684.0469 Q318.6563,1684.0469 319.25,1683.7813 Q319.8438,1683.5 320.4688,1682.9219 L320.4688,1685.6406 Z " fill="#000000"/><text fill="#000000" font-family="sans-serif" font-size="14" lengthAdjust="spacing" textLength="60.4365" x="331.5" y="1684.8467">Apogees</text></g><!--class Period__class--><g class="entity" data-entity="Period__class" data-source-line="185" data-uid="ent0096" id="entity_Period__class"><rect fill="#F1F1F1" height="32" rx="2.5" ry="2.5" style="stroke:#181818;stroke-width:0.5;" width="76.1533" x="310.5" y="1714"/><ellipse cx="325.5" cy="1730" fill="#ADD1B2" rx="11" ry="11" style="stroke:#181818;stroke-width:1;"/><path d="M328.4688,1735.6406 Q327.8906,1735.9375 327.25,1736.0781 Q326.6094,1736.2344 325.9063,1736.2344 Q323.4063,1736.2344 322.0781,1734.5938 Q320.7656,1732.9375 320.7656,1729.8125 Q320.7656,1726.6875 322.0781,1725.0313 Q323.4063,1723.375 325.9063,1723.375 Q326.6094,1723.375 327.25,1723.5313 Q327.9063,1723.6875 328.4688,1723.9844 L328.4688,1726.7031 Q327.8438,1726.125 327.25,1725.8594 Q326.6563,1725.5781 326.0313,1725.5781 Q324.6875,1725.5781 324,1726.6563 Q323.3125,1727.7188 323.3125,1729.8125 Q323.3125,1731.9063 324,1732.9844 Q324.6875,1734.0469 326.0313,1734.0469 Q326.6563,1734.0469 327.25,1733.7813 Q327.8438,1733.5 328.4688,1732.9219 L328.4688,1735.6406 Z " fill="#000000"/><text fill="#000000" font-family="sans-serif" font-size="14" lengthAdjust="spacing" textLength="44.1533" x="339.5" y="1734.8467">Period</text></g><!--class Periods__class--><g class="entity" data-entity="Periods__class" data-source-line="189" data-uid="ent0097" id="entity_Periods__class"><rect fill="#F1F1F1" height="32" rx="2.5" ry="2.5" style="stroke:#181818;stroke-width:0.5;" width="83.4473" x="307" y="1764"/><ellipse cx="322" cy="1780" fill="#ADD1B2" rx="11" ry="11" style="stroke:#181818;stroke-width:1;"/><path d="M324.9688,1785.6406 Q324.3906,1785.9375 323.75,1786.0781 Q323.1094,1786.2344 322.4063,1786.2344 Q319.9063,1786.2344 318.5781,1784.5938 Q317.2656,1782.9375 317.2656,1779.8125 Q317.2656,1776.6875 318.5781,1775.0313 Q319.9063,1773.375 322.4063,1773.375 Q323.1094,1773.375 323.75,1773.5313 Q324.4063,1773.6875 324.9688,1773.9844 L324.9688,1776.7031 Q324.3438,1776.125 323.75,1775.8594 Q323.1563,1775.5781 322.5313,1775.5781 Q321.1875,1775.5781 320.5,1776.6563 Q319.8125,1777.7188 319.8125,1779.8125 Q319.8125,1781.9063 320.5,1782.9844 Q321.1875,1784.0469 322.5313,1784.0469 Q323.1563,1784.0469 323.75,1783.7813 Q324.3438,1783.5 324.9688,1782.9219 L324.9688,1785.6406 Z " fill="#000000"/><text fill="#000000" font-family="sans-serif" font-size="14" lengthAdjust="spacing" textLength="51.4473" x="336" y="1784.8467">Periods</text></g><!--class Phases__class--><g class="entity" data-entity="Phases__class" data-source-line="193" data-uid="ent0099" id="entity_Phases__class"><rect fill="#F1F1F1" height="32" rx="2.5" ry="2.5" style="stroke:#181818;stroke-width:0.5;" width="81.0957" x="308" y="1814"/><ellipse cx="323" cy="1830" fill="#ADD1B2" rx="11" ry="11" style="stroke:#181818;stroke-width:1;"/><path d="M325.9688,1835.6406 Q325.3906,1835.9375 324.75,1836.0781 Q324.1094,1836.2344 323.4063,1836.2344 Q320.9063,1836.2344 319.5781,1834.5938 Q318.2656,1832.9375 318.2656,1829.8125 Q318.2656,1826.6875 319.5781,1825.0313 Q320.9063,1823.375 323.4063,1823.375 Q324.1094,1823.375 324.75,1823.5313 Q325.4063,1823.6875 325.9688,1823.9844 L325.9688,1826.7031 Q325.3438,1826.125 324.75,1825.8594 Q324.1563,1825.5781 323.5313,1825.5781 Q322.1875,1825.5781 321.5,1826.6563 Q320.8125,1827.7188 320.8125,1829.8125 Q320.8125,1831.9063 321.5,1832.9844 Q322.1875,1834.0469 323.5313,1834.0469 Q324.1563,1834.0469 324.75,1833.7813 Q325.3438,1833.5 325.9688,1832.9219 L325.9688,1835.6406 Z " fill="#000000"/><text fill="#000000" font-family="sans-serif" font-size="14" lengthAdjust="spacing" textLength="49.0957" x="337" y="1834.8467">Phases</text></g><!--class SynodicRhythm__class--><g class="entity" data-entity="SynodicRhythm__class" data-source-line="197" data-uid="ent0101" id="entity_SynodicRhythm__class"><rect fill="#F1F1F1" height="32" rx="2.5" ry="2.5" style="stroke:#181818;stroke-width:0.5;" width="141.9697" x="277.5" y="1864"/><ellipse cx="292.5" cy="1880" fill="#ADD1B2" rx="11" ry="11" style="stroke:#181818;stroke-width:1;"/><path d="M295.4688,1885.6406 Q294.8906,1885.9375 294.25,1886.0781 Q293.6094,1886.2344 292.9063,1886.2344 Q290.4063,1886.2344 289.0781,1884.5938 Q287.7656,1882.9375 287.7656,1879.8125 Q287.7656,1876.6875 289.0781,1875.0313 Q290.4063,1873.375 292.9063,1873.375 Q293.6094,1873.375 294.25,1873.5313 Q294.9063,1873.6875 295.4688,1873.9844 L295.4688,1876.7031 Q294.8438,1876.125 294.25,1875.8594 Q293.6563,1875.5781 293.0313,1875.5781 Q291.6875,1875.5781 291,1876.6563 Q290.3125,1877.7188 290.3125,1879.8125 Q290.3125,1881.9063 291,1882.9844 Q291.6875,1884.0469 293.0313,1884.0469 Q293.6563,1884.0469 294.25,1883.7813 Q294.8438,1883.5 295.4688,1882.9219 L295.4688,1885.6406 Z " fill="#000000"/><text fill="#000000" font-family="sans-serif" font-size="14" lengthAdjust="spacing" textLength="109.9697" x="306.5" y="1884.8467">SynodicRhythm</text></g><!--class WithFuzzyCondition__trait--><g class="entity" data-entity="WithFuzzyCondition__trait" data-source-line="149" data-uid="ent0077" id="entity_WithFuzzyCondition__trait"><rect fill="#F1F1F1" height="40.2656" rx="2.5" ry="2.5" style="stroke:#181818;stroke-width:0.5;" width="170.8105" x="531.5" y="1947"/><ellipse cx="546.5" cy="1967.1328" fill="#FF7700" rx="11" ry="11" style="stroke:#181818;stroke-width:1;"/><path d="M547.3438,1973.8828 L544.8906,1973.8828 L544.8906,1963.6328 L541.75,1963.6328 L541.75,1961.4922 L550.4844,1961.4922 L550.4844,1963.6328 L547.3438,1963.6328 L547.3438,1973.8828 Z " fill="#000000"/><text fill="#000000" font-family="sans-serif" font-size="12" font-style="italic" lengthAdjust="spacing" textLength="42.3398" x="608.7354" y="1963.1387">&#171;Trait&#187;</text><text fill="#000000" font-family="sans-serif" font-size="14" lengthAdjust="spacing" textLength="138.8105" x="560.5" y="1978.9639">WithFuzzyCondition</text></g><!--class QueryBuilder__class--><g class="entity" data-entity="QueryBuilder__class" data-source-line="201" data-uid="ent0104" id="entity_QueryBuilder__class"><rect fill="#F1F1F1" height="32" rx="2.5" ry="2.5" style="stroke:#181818;stroke-width:0.5;" width="124.0596" x="286.5" y="2082"/><ellipse cx="301.5" cy="2098" fill="#A9DCDF" rx="11" ry="11" style="stroke:#181818;stroke-width:1;"/><path d="M301.6094,2093.3438 L300.4531,2098.4219 L302.7813,2098.4219 L301.6094,2093.3438 Z M300.125,2091.1094 L303.1094,2091.1094 L306.4688,2103.5 L304.0156,2103.5 L303.25,2100.4375 L299.9688,2100.4375 L299.2188,2103.5 L296.7813,2103.5 L300.125,2091.1094 Z " fill="#000000"/><text fill="#000000" font-family="sans-serif" font-size="14" font-style="italic" lengthAdjust="spacing" textLength="92.0596" x="315.5" y="2102.8467">QueryBuilder</text></g><!--class ApogeeTemplate__class--><g class="entity" data-entity="ApogeeTemplate__class" data-source-line="205" data-uid="ent0106" id="entity_ApogeeTemplate__class"><rect fill="#F1F1F1" height="32" rx="2.5" ry="2.5" style="stroke:#181818;stroke-width:0.5;" width="151.4033" x="541.5" y="2057"/><ellipse cx="556.5" cy="2073" fill="#ADD1B2" rx="11" ry="11" style="stroke:#181818;stroke-width:1;"/><path d="M559.4688,2078.6406 Q558.8906,2078.9375 558.25,2079.0781 Q557.6094,2079.2344 556.9063,2079.2344 Q554.4063,2079.2344 553.0781,2077.5938 Q551.7656,2075.9375 551.7656,2072.8125 Q551.7656,2069.6875 553.0781,2068.0313 Q554.4063,2066.375 556.9063,2066.375 Q557.6094,2066.375 558.25,2066.5313 Q558.9063,2066.6875 559.4688,2066.9844 L559.4688,2069.7031 Q558.8438,2069.125 558.25,2068.8594 Q557.6563,2068.5781 557.0313,2068.5781 Q555.6875,2068.5781 555,2069.6563 Q554.3125,2070.7188 554.3125,2072.8125 Q554.3125,2074.9063 555,2075.9844 Q555.6875,2077.0469 557.0313,2077.0469 Q557.6563,2077.0469 558.25,2076.7813 Q558.8438,2076.5 559.4688,2075.9219 L559.4688,2078.6406 Z " fill="#000000"/><text fill="#000000" font-family="sans-serif" font-size="14" lengthAdjust="spacing" textLength="119.4033" x="570.5" y="2077.8467">ApogeeTemplate</text></g><!--class SynodicRhythmTemplate__class--><g class="entity" data-entity="SynodicRhythmTemplate__class" data-source-line="209" data-uid="ent0108" id="entity_SynodicRhythmTemplate__class"><rect fill="#F1F1F1" height="32" rx="2.5" ry="2.5" style="stroke:#181818;stroke-width:0.5;" width="208.2305" x="513" y="2107"/><ellipse cx="528" cy="2123" fill="#ADD1B2" rx="11" ry="11" style="stroke:#181818;stroke-width:1;"/><path d="M530.9688,2128.6406 Q530.3906,2128.9375 529.75,2129.0781 Q529.1094,2129.2344 528.4063,2129.2344 Q525.9063,2129.2344 524.5781,2127.5938 Q523.2656,2125.9375 523.2656,2122.8125 Q523.2656,2119.6875 524.5781,2118.0313 Q525.9063,2116.375 528.4063,2116.375 Q529.1094,2116.375 529.75,2116.5313 Q530.4063,2116.6875 530.9688,2116.9844 L530.9688,2119.7031 Q530.3438,2119.125 529.75,2118.8594 Q529.1563,2118.5781 528.5313,2118.5781 Q527.1875,2118.5781 526.5,2119.6563 Q525.8125,2120.7188 525.8125,2122.8125 Q525.8125,2124.9063 526.5,2125.9844 Q527.1875,2127.0469 528.5313,2127.0469 Q529.1563,2127.0469 529.75,2126.7813 Q530.3438,2126.5 530.9688,2125.9219 L530.9688,2128.6406 Z " fill="#000000"/><text fill="#000000" font-family="sans-serif" font-size="14" lengthAdjust="spacing" textLength="176.2305" x="542" y="2127.8467">SynodicRhythmTemplate</text></g><!--class Carbon__class--><g class="entity" data-entity="Carbon__class" data-source-line="19" data-uid="ent0006" id="entity_Carbon__class"><rect fill="#F1F1F1" height="40.2656" rx="2.5" ry="2.5" style="stroke:#181818;stroke-width:0.5;" width="92.4824" x="55" y="1650"/><ellipse cx="70" cy="1670.1328" fill="#ADD1B2" rx="11" ry="11" style="stroke:#181818;stroke-width:1;"/><path d="M72.9688,1675.7734 Q72.3906,1676.0703 71.75,1676.2109 Q71.1094,1676.3672 70.4063,1676.3672 Q67.9063,1676.3672 66.5781,1674.7266 Q65.2656,1673.0703 65.2656,1669.9453 Q65.2656,1666.8203 66.5781,1665.1641 Q67.9063,1663.5078 70.4063,1663.5078 Q71.1094,1663.5078 71.75,1663.6641 Q72.4063,1663.8203 72.9688,1664.1172 L72.9688,1666.8359 Q72.3438,1666.2578 71.75,1665.9922 Q71.1563,1665.7109 70.5313,1665.7109 Q69.1875,1665.7109 68.5,1666.7891 Q67.8125,1667.8516 67.8125,1669.9453 Q67.8125,1672.0391 68.5,1673.1172 Q69.1875,1674.1797 70.5313,1674.1797 Q71.1563,1674.1797 71.75,1673.9141 Q72.3438,1673.6328 72.9688,1673.0547 L72.9688,1675.7734 Z " fill="#000000"/><text fill="#000000" font-family="sans-serif" font-size="12" font-style="italic" lengthAdjust="spacing" textLength="64.4824" x="82" y="1666.1387">&#171;external&#187;</text><text fill="#000000" font-family="sans-serif" font-size="14" lengthAdjust="spacing" textLength="50.4355" x="89.0234" y="1681.9639">Carbon</text></g><!--class ServiceProvider__class--><g class="entity" data-entity="ServiceProvider__class" data-source-line="27" data-uid="ent0010" id="entity_ServiceProvider__class"><rect fill="#F1F1F1" height="40.2656" rx="2.5" ry="2.5" style="stroke:#181818;stroke-width:0.5;" width="141.9355" x="30" y="1818"/><ellipse cx="45" cy="1838.1328" fill="#ADD1B2" rx="11" ry="11" style="stroke:#181818;stroke-width:1;"/><path d="M47.9688,1843.7734 Q47.3906,1844.0703 46.75,1844.2109 Q46.1094,1844.3672 45.4063,1844.3672 Q42.9063,1844.3672 41.5781,1842.7266 Q40.2656,1841.0703 40.2656,1837.9453 Q40.2656,1834.8203 41.5781,1833.1641 Q42.9063,1831.5078 45.4063,1831.5078 Q46.1094,1831.5078 46.75,1831.6641 Q47.4063,1831.8203 47.9688,1832.1172 L47.9688,1834.8359 Q47.3438,1834.2578 46.75,1833.9922 Q46.1563,1833.7109 45.5313,1833.7109 Q44.1875,1833.7109 43.5,1834.7891 Q42.8125,1835.8516 42.8125,1837.9453 Q42.8125,1840.0391 43.5,1841.1172 Q44.1875,1842.1797 45.5313,1842.1797 Q46.1563,1842.1797 46.75,1841.9141 Q47.3438,1841.6328 47.9688,1841.0547 L47.9688,1843.7734 Z " fill="#000000"/><text fill="#000000" font-family="sans-serif" font-size="12" font-style="italic" lengthAdjust="spacing" textLength="64.4824" x="81.7266" y="1834.1387">&#171;external&#187;</text><text fill="#000000" font-family="sans-serif" font-size="14" lengthAdjust="spacing" textLength="109.9355" x="59" y="1849.9639">ServiceProvider</text></g><!--class Collection__class--><g class="entity" data-entity="Collection__class" data-source-line="173" data-uid="ent0090" id="entity_Collection__class"><rect fill="#F1F1F1" height="40.2656" rx="2.5" ry="2.5" style="stroke:#181818;stroke-width:0.5;" width="101.248" x="50.5" y="1760"/><ellipse cx="65.5" cy="1780.1328" fill="#ADD1B2" rx="11" ry="11" style="stroke:#181818;stroke-width:1;"/><path d="M68.4688,1785.7734 Q67.8906,1786.0703 67.25,1786.2109 Q66.6094,1786.3672 65.9063,1786.3672 Q63.4063,1786.3672 62.0781,1784.7266 Q60.7656,1783.0703 60.7656,1779.9453 Q60.7656,1776.8203 62.0781,1775.1641 Q63.4063,1773.5078 65.9063,1773.5078 Q66.6094,1773.5078 67.25,1773.6641 Q67.9063,1773.8203 68.4688,1774.1172 L68.4688,1776.8359 Q67.8438,1776.2578 67.25,1775.9922 Q66.6563,1775.7109 66.0313,1775.7109 Q64.6875,1775.7109 64,1776.7891 Q63.3125,1777.8516 63.3125,1779.9453 Q63.3125,1782.0391 64,1783.1172 Q64.6875,1784.1797 66.0313,1784.1797 Q66.6563,1784.1797 67.25,1783.9141 Q67.8438,1783.6328 68.4688,1783.0547 L68.4688,1785.7734 Z " fill="#000000"/><text fill="#000000" font-family="sans-serif" font-size="12" font-style="italic" lengthAdjust="spacing" textLength="64.4824" x="81.8828" y="1776.1387">&#171;external&#187;</text><text fill="#000000" font-family="sans-serif" font-size="14" lengthAdjust="spacing" textLength="69.248" x="79.5" y="1791.9639">Collection</text></g><!--class Argument__class--><g class="entity" data-entity="Argument__class" data-source-line="35" data-uid="ent0015" id="entity_Argument__class"><rect fill="#F1F1F1" height="40.2656" rx="2.5" ry="2.5" style="stroke:#181818;stroke-width:0.5;" width="101.7061" x="50" y="1963"/><ellipse cx="65" cy="1983.1328" fill="#ADD1B2" rx="11" ry="11" style="stroke:#181818;stroke-width:1;"/><path d="M67.9688,1988.7734 Q67.3906,1989.0703 66.75,1989.2109 Q66.1094,1989.3672 65.4063,1989.3672 Q62.9063,1989.3672 61.5781,1987.7266 Q60.2656,1986.0703 60.2656,1982.9453 Q60.2656,1979.8203 61.5781,1978.1641 Q62.9063,1976.5078 65.4063,1976.5078 Q66.1094,1976.5078 66.75,1976.6641 Q67.4063,1976.8203 67.9688,1977.1172 L67.9688,1979.8359 Q67.3438,1979.2578 66.75,1978.9922 Q66.1563,1978.7109 65.5313,1978.7109 Q64.1875,1978.7109 63.5,1979.7891 Q62.8125,1980.8516 62.8125,1982.9453 Q62.8125,1985.0391 63.5,1986.1172 Q64.1875,1987.1797 65.5313,1987.1797 Q66.1563,1987.1797 66.75,1986.9141 Q67.3438,1986.6328 67.9688,1986.0547 L67.9688,1988.7734 Z " fill="#000000"/><text fill="#000000" font-family="sans-serif" font-size="12" font-style="italic" lengthAdjust="spacing" textLength="64.4824" x="81.6118" y="1979.1387">&#171;external&#187;</text><text fill="#000000" font-family="sans-serif" font-size="14" lengthAdjust="spacing" textLength="69.7061" x="79" y="1994.9639">Argument</text></g><!--class Flag__class--><g class="entity" data-entity="Flag__class" data-source-line="43" data-uid="ent0021" id="entity_Flag__class"><rect fill="#F1F1F1" height="40.2656" rx="2.5" ry="2.5" style="stroke:#181818;stroke-width:0.5;" width="92.4824" x="55" y="2021"/><ellipse cx="70" cy="2041.1328" fill="#ADD1B2" rx="11" ry="11" style="stroke:#181818;stroke-width:1;"/><path d="M72.9688,2046.7734 Q72.3906,2047.0703 71.75,2047.2109 Q71.1094,2047.3672 70.4063,2047.3672 Q67.9063,2047.3672 66.5781,2045.7266 Q65.2656,2044.0703 65.2656,2040.9453 Q65.2656,2037.8203 66.5781,2036.1641 Q67.9063,2034.5078 70.4063,2034.5078 Q71.1094,2034.5078 71.75,2034.6641 Q72.4063,2034.8203 72.9688,2035.1172 L72.9688,2037.8359 Q72.3438,2037.2578 71.75,2036.9922 Q71.1563,2036.7109 70.5313,2036.7109 Q69.1875,2036.7109 68.5,2037.7891 Q67.8125,2038.8516 67.8125,2040.9453 Q67.8125,2043.0391 68.5,2044.1172 Q69.1875,2045.1797 70.5313,2045.1797 Q71.1563,2045.1797 71.75,2044.9141 Q72.3438,2044.6328 72.9688,2044.0547 L72.9688,2046.7734 Z " fill="#000000"/><text fill="#000000" font-family="sans-serif" font-size="12" font-style="italic" lengthAdjust="spacing" textLength="64.4824" x="82" y="2037.1387">&#171;external&#187;</text><text fill="#000000" font-family="sans-serif" font-size="14" lengthAdjust="spacing" textLength="29.4082" x="99.5371" y="2052.9639">Flag</text></g><g class="link" data-entity-1="Carbon__class" data-entity-2="SwissEphemerisDateTime__class" data-uid="lnk8" id="link_Carbon__class_SwissEphemerisDateTime__class"><polygon fill="none" points="147.3579,1690.2473,159.6964,1704.6612,165.8771,1694.3753,147.3579,1690.2473" style="stroke:#516F42;stroke-width:1;"/><path d="M162.7868,1699.5183 C178.4632,1708.938 178.9286,1712.4984 188,1729 C213.4413,1775.2796 170.318,2164.1726 205,2204 C214.8145,2215.2706 227.7646,2222.6526 241.8626,2227.3447" fill="none" style="stroke:#516F42;stroke-width:1;"/></g><g class="link" data-entity-1="ServiceProvider__class" data-entity-2="SwissEphemerisServiceProvider__class" data-uid="lnk13" id="link_ServiceProvider__class_SwissEphemerisServiceProvider__class"><polygon fill="none" points="128.6608,1858.3027,138.5231,1874.5117,146.2761,1865.3525,128.6608,1858.3027" style="stroke:#516F42;stroke-width:1;"/><path d="M142.3996,1869.9321 C162.6799,1887.0988 175.4321,1902.0123 188,1932 C201.8484,1965.043 181.2432,2227.1815 205,2254 C209.6634,2259.2644 215.0114,2263.6763 220.8385,2267.3592" fill="none" style="stroke:#516F42;stroke-width:1;"/></g><g class="link" data-entity-1="Argument__class" data-entity-2="SwissEphemerisArgument__class" data-uid="lnk20" id="link_Argument__class_SwissEphemerisArgument__class"><polygon fill="none" points="124.2479,1962.6082,141.2422,1954.1706,132.7807,1945.6615,124.2479,1962.6082" style="stroke:#516F42;stroke-width:1;"/><path d="M137.0115,1949.916 C158.0233,1929.0217 175.378,1907.1112 188,1870 C194.9633,1849.5265 195.4245,334.6176 196,313 C197.1071,271.4111 177.4857,157.2062 205,126 C214.6345,115.0727 227.218,107.8136 240.9197,103.1214" fill="none" style="stroke:#516F42;stroke-width:1;"/></g><g class="link" data-entity-1="Flag__class" data-entity-2="SwissEphemerisFlag__class" data-uid="lnk23" id="link_Flag__class_SwissEphemerisFlag__class"><polygon fill="none" points="147.227,2036.384,166.1549,2037.7008,163.1594,2026.0807,147.227,2036.384" style="stroke:#516F42;stroke-width:1;"/><path d="M164.6572,2031.8908 C180.119,2027.9049 178.4716,2025.1377 188,2012 C202.7274,1991.694 190.7137,226.6187 205,206 C218.215,186.9273 239.0439,174.4672 260.7381,166.3275" fill="none" style="stroke:#516F42;stroke-width:1;"/></g><g class="link" data-entity-1="ErrorException__class" data-entity-2="SwissEphemerisError__class" data-uid="lnk38" id="link_ErrorException__class_SwissEphemerisError__class"><polygon fill="none" points="169.084,528,187.084,534,187.084,522,169.084,528" style="stroke:#516F42;stroke-width:1;"/><path d="M187.084,528 C214.6259,528 228.9114,528 258.3915,528" fill="none" style="stroke:#516F42;stroke-width:1;"/></g><g class="link" data-entity-1="AnomalisticRecord__class" data-entity-2="ApogeeRecord__class" data-uid="lnk43" id="link_AnomalisticRecord__class_ApogeeRecord__class"><polygon fill="none" points="430.182,630,448.182,636,448.182,624,430.182,630" style="stroke:#516F42;stroke-width:1;"/><path d="M448.182,630 C486.4817,630 513.6818,630 549.9123,630" fill="none" style="stroke:#516F42;stroke-width:1;"/></g><g class="link" data-entity-1="Builder__interface" data-entity-2="Builder__class" data-uid="lnk51" id="link_Builder__interface_Builder__class"><polygon fill="none" points="371.3088,1212.2032,382.1792,1227.7542,389.3357,1218.1218,371.3088,1212.2032" style="stroke:#516F42;stroke-width:1;"/><path d="M385.7575,1222.938 C435.8554,1260.159 544.2358,1340.6818 594.2636,1377.8506" fill="none" style="stroke:#516F42;stroke-width:1;stroke-dasharray:7,7;"/></g><g class="link" data-entity-1="Builder__class" data-entity-2="FromRecords__class" data-uid="lnk56" id="link_Builder__class_FromRecords__class"><polygon fill="none" points="643.722,1410.1292,655.8695,1424.7044,662.1852,1414.5009,643.722,1410.1292" style="stroke:#516F42;stroke-width:1;"/><path d="M659.0273,1419.6027 C691.5952,1439.761 734.3851,1465.3734 786,1492 C807.4827,1503.0823 832.1093,1514.276 852.0043,1522.9581" fill="none" style="stroke:#516F42;stroke-width:1;"/></g><g class="link" data-entity-1="Builder__class" data-entity-2="FromSynodicRhythm__class" data-uid="lnk59" id="link_Builder__class_FromSynodicRhythm__class"><polygon fill="none" points="658.1345,1385.8846,676.9666,1388.198,674.5883,1376.4361,658.1345,1385.8846" style="stroke:#516F42;stroke-width:1;"/><path d="M675.7775,1382.3171 C715.8248,1374.2193 760.7936,1365.1263 810.8638,1355.0018" fill="none" style="stroke:#516F42;stroke-width:1;"/></g><g class="link" data-entity-1="Builder__class" data-entity-2="FromSynodicRhythm__class" data-uid="lnk62" id="link_Builder__class_FromSynodicRhythm__class"><polygon fill="none" points="639.9953,1377.8303,658.133,1372.2603,651.1635,1362.4917,639.9953,1377.8303" style="stroke:#516F42;stroke-width:1;"/><path d="M654.6482,1367.376 C685.7385,1345.1942 730.3178,1315.8264 786,1292 C796.6583,1287.4393 808.2541,1283.4454 819.7081,1280.0112" fill="none" style="stroke:#516F42;stroke-width:1;"/></g><g class="link" data-entity-1="Builder__class" data-entity-2="FromArray__class" data-uid="lnk65" id="link_Builder__class_FromArray__class"><polygon fill="none" points="658.319,1405.1128,674.0994,1415.6475,677.2641,1404.0723,658.319,1405.1128" style="stroke:#516F42;stroke-width:1;"/><path d="M675.6818,1409.8599 C709.666,1419.1514 742.2488,1427.8839 786,1439 C802.8282,1443.2756 821.2371,1447.763 837.8273,1451.737" fill="none" style="stroke:#516F42;stroke-width:1;"/></g><g class="link" data-entity-1="Builder__class" data-entity-2="FromRecords__class" data-uid="lnk67" id="link_Builder__class_FromRecords__class"><polygon fill="none" points="658.1345,1396.9511,675.6461,1404.2549,676.5261,1392.2872,658.1345,1396.9511" style="stroke:#516F42;stroke-width:1;"/><path d="M676.0861,1398.271 C720.9361,1401.5688 776.1358,1405.6276 828.2763,1409.4615" fill="none" style="stroke:#516F42;stroke-width:1;"/></g><g class="link" data-entity-1="BuilderStrategy__interface" data-entity-2="AnomalisticStrategy__class" data-uid="lnk72" id="link_BuilderStrategy__interface_AnomalisticStrategy__class"><polygon fill="none" points="419.1716,1146,437.1716,1152,437.1716,1140,419.1716,1146" style="stroke:#516F42;stroke-width:1;"/><path d="M437.1716,1146 C471.1004,1146 494.2124,1146 530.0701,1146" fill="none" style="stroke:#516F42;stroke-width:1;stroke-dasharray:7,7;"/></g><g class="link" data-entity-1="BuilderStrategy__interface" data-entity-2="PhaseStrategy__class" data-uid="lnk75" id="link_BuilderStrategy__interface_PhaseStrategy__class"><polygon fill="none" points="383.7946,1129.9143,402.639,1127.7028,397.5432,1116.8385,383.7946,1129.9143" style="stroke:#516F42;stroke-width:1;"/><path d="M400.0911,1122.2706 C451.2625,1098.269 530.7422,1060.9896 581.837,1037.0239" fill="none" style="stroke:#516F42;stroke-width:1;stroke-dasharray:7,7;"/></g><g class="link" data-entity-1="WithFuzzyCondition__trait" data-entity-2="FirstQuarter__class" data-uid="lnk79" id="link_WithFuzzyCondition__trait_FirstQuarter__class"><polygon fill="#516F42" points="644.7415,1946.7988,654.2616,1944.2756,648.6378,1943.6653,649.2481,1938.0415,644.7415,1946.7988" style="stroke:#516F42;stroke-width:1;"/><path d="M649.4171,1943.0386 C687.4272,1912.4702 750.8053,1854.1807 778,1783 C800.4468,1724.2467 766.4218,1276.7704 786,1217 C803.6309,1163.1747 848.7578,1112.0892 873.3736,1087.0528" fill="none" style="stroke:#516F42;stroke-width:1;"/><text fill="#000000" font-family="sans-serif" font-size="13" lengthAdjust="spacing" textLength="29.7832" x="747" y="1778.0669">uses</text></g><g class="link" data-entity-1="PhaseStrategy__class" data-entity-2="FirstQuarter__class" data-uid="lnk80" id="link_PhaseStrategy__class_FirstQuarter__class"><polygon fill="none" points="684.1909,1033.1674,700.8095,1042.3229,702.979,1030.5206,684.1909,1033.1674" style="stroke:#516F42;stroke-width:1;"/><path d="M701.8942,1036.4217 C747.1827,1044.7468 788.9375,1052.4223 832.295,1060.3925" fill="none" style="stroke:#516F42;stroke-width:1;"/></g><g class="link" data-entity-1="WithFuzzyCondition__trait" data-entity-2="FullMoon__class" data-uid="lnk82" id="link_WithFuzzyCondition__trait_FullMoon__class"><polygon fill="#516F42" points="632.8966,1946.7994,641.3877,1941.8092,635.8069,1942.7336,634.8825,1937.1528,632.8966,1946.7994" style="stroke:#516F42;stroke-width:1;"/><path d="M636.389,1941.9205 C670.1788,1894.7145 748.4943,1777.148 778,1660 C782.166,1643.4596 775.355,1059.3276 786,1046 C799.5593,1029.0236 822.4478,1022.3428 843.3059,1020.0927" fill="none" style="stroke:#516F42;stroke-width:1;"/><text fill="#000000" font-family="sans-serif" font-size="13" lengthAdjust="spacing" textLength="29.7832" x="747" y="1655.0669">uses</text></g><g class="link" data-entity-1="PhaseStrategy__class" data-entity-2="FullMoon__class" data-uid="lnk83" id="link_PhaseStrategy__class_FullMoon__class"><polygon fill="none" points="684.1909,1021,702.1909,1027,702.1909,1015,684.1909,1021" style="stroke:#516F42;stroke-width:1;"/><path d="M702.1909,1021 C751.4106,1021 799.3669,1021 843.2022,1021" fill="none" style="stroke:#516F42;stroke-width:1;"/></g><g class="link" data-entity-1="WithFuzzyCondition__trait" data-entity-2="NewMoon__class" data-uid="lnk85" id="link_WithFuzzyCondition__trait_NewMoon__class"><polygon fill="#516F42" points="625.0165,1946.8543,631.7762,1939.6915,626.6756,1942.1376,624.2294,1937.037,625.0165,1946.8543" style="stroke:#516F42;stroke-width:1;"/><path d="M627.0074,1941.1942 C645.1511,1889.6115 693.7976,1754.5032 745,1641 C758.1598,1611.8278 770.24,1608.048 778,1577 C781.9137,1561.3413 775.9224,1008.6077 786,996 C798.9279,979.8264 820.3233,972.999 840.3578,970.4446" fill="none" style="stroke:#516F42;stroke-width:1;"/><text fill="#000000" font-family="sans-serif" font-size="13" lengthAdjust="spacing" textLength="29.7832" x="747" y="1572.0669">uses</text></g><g class="link" data-entity-1="PhaseStrategy__class" data-entity-2="NewMoon__class" data-uid="lnk86" id="link_PhaseStrategy__class_NewMoon__class"><polygon fill="none" points="684.1909,1008.8326,702.979,1011.4794,700.8095,999.6771,684.1909,1008.8326" style="stroke:#516F42;stroke-width:1;"/><path d="M701.8942,1005.5783 C750.0132,996.7329 796.4252,988.2013 840.2285,980.1492" fill="none" style="stroke:#516F42;stroke-width:1;"/></g><g class="link" data-entity-1="WithFuzzyCondition__trait" data-entity-2="ThirdQuarter__class" data-uid="lnk88" id="link_WithFuzzyCondition__trait_ThirdQuarter__class"><polygon fill="#516F42" points="626.1107,1946.602,633.1114,1939.6745,627.9301,1941.9448,625.6598,1936.7635,626.1107,1946.602" style="stroke:#516F42;stroke-width:1;"/><path d="M628.294,1941.0133 C650.4159,1884.3852 709.7766,1725.5971 737,1583 C740.3279,1565.5681 774.4883,959.5066 786,946 C796.9615,933.1389 813.2714,926.2623 829.7421,922.7407" fill="none" style="stroke:#516F42;stroke-width:1;"/><text fill="#000000" font-family="sans-serif" font-size="13" lengthAdjust="spacing" textLength="29.7832" x="747" y="999.0669">uses</text></g><g class="link" data-entity-1="PhaseStrategy__class" data-entity-2="ThirdQuarter__class" data-uid="lnk89" id="link_PhaseStrategy__class_ThirdQuarter__class"><polygon fill="none" points="649.1966,1004.9835,667.9831,1002.3251,662.6308,991.5849,649.1966,1004.9835" style="stroke:#516F42;stroke-width:1;"/><path d="M665.3069,996.955 C698.524,980.4014 736.861,962.7158 786,946 C799.9765,941.2456 815.302,937.0331 829.7907,933.4845" fill="none" style="stroke:#516F42;stroke-width:1;"/></g><g class="link" data-entity-1="Collection__class" data-entity-2="AnomalisticRhythm__class" data-uid="lnk93" id="link_Collection__class_AnomalisticRhythm__class"><polygon fill="none" points="130.5039,1759.9752,148.4236,1753.7394,141.0982,1744.2347,130.5039,1759.9752" style="stroke:#516F42;stroke-width:1;"/><path d="M144.7609,1748.9871 C163.3308,1734.6747 172.6224,1724.9371 188,1702 C200.3697,1683.5495 187.9918,1669.2882 205,1655 C221.5394,1641.1057 243.0481,1633.7253 264.3208,1630.0503" fill="none" style="stroke:#516F42;stroke-width:1;"/></g><g class="link" data-entity-1="Collection__class" data-entity-2="Apogees__class" data-uid="lnk95" id="link_Collection__class_Apogees__class"><polygon fill="none" points="123.4751,1759.7702,140.9452,1752.3677,133.0097,1743.3661,123.4751,1759.7702" style="stroke:#516F42;stroke-width:1;"/><path d="M136.9774,1747.8669 C156.6436,1730.5297 173.8477,1718.2269 205,1705 C235.9805,1691.846 273.5714,1685.613 302.3642,1682.6595" fill="none" style="stroke:#516F42;stroke-width:1;"/></g><g class="link" data-entity-1="Collection__class" data-entity-2="Periods__class" data-uid="lnk98" id="link_Collection__class_Periods__class"><polygon fill="none" points="151.6806,1780,169.6806,1786,169.6806,1774,151.6806,1780" style="stroke:#516F42;stroke-width:1;"/><path d="M169.6806,1780 C215.3561,1780 264.254,1780 306.8316,1780" fill="none" style="stroke:#516F42;stroke-width:1;"/></g><g class="link" data-entity-1="Collection__class" data-entity-2="Phases__class" data-uid="lnk100" id="link_Collection__class_Phases__class"><polygon fill="none" points="151.6232,1792.7292,167.6717,1802.8507,170.5349,1791.1973,151.6232,1792.7292" style="stroke:#516F42;stroke-width:1;"/><path d="M169.1033,1797.024 C185.9888,1801.1727 187.5279,1801.3509 205,1805 C239.5446,1812.2147 279.0939,1819.0405 307.7491,1823.731" fill="none" style="stroke:#516F42;stroke-width:1;"/></g><g class="link" data-entity-1="Collection__class" data-entity-2="SynodicRhythm__class" data-uid="lnk102" id="link_Collection__class_SynodicRhythm__class"><polygon fill="none" points="151.6518,1788.5916,166.8918,1799.8939,170.6252,1788.4894,151.6518,1788.5916" style="stroke:#516F42;stroke-width:1;"/><path d="M168.7585,1794.1917 C181.8923,1798.4911 178.0554,1799.3374 188,1809 C203.6321,1824.1888 188.2629,1841.0383 205,1855 C224.9628,1871.6525 252.0763,1878.9263 277.2954,1881.683" fill="none" style="stroke:#516F42;stroke-width:1;"/></g><g class="link" data-entity-1="QueryBuilder__class" data-entity-2="ApogeeTemplate__class" data-uid="lnk107" id="link_QueryBuilder__class_ApogeeTemplate__class"><polygon fill="none" points="410.6405,2092.2645,429.1222,2096.5571,428.0014,2084.6095,410.6405,2092.2645" style="stroke:#516F42;stroke-width:1;"/><path d="M428.5618,2090.5833 C467.4407,2086.9361 500.1187,2083.8707 541.362,2080.0017" fill="none" style="stroke:#516F42;stroke-width:1;"/></g><g class="link" data-entity-1="QueryBuilder__class" data-entity-2="SynodicRhythmTemplate__class" data-uid="lnk109" id="link_QueryBuilder__class_SynodicRhythmTemplate__class"><polygon fill="none" points="410.6405,2103.7355,428.0014,2111.3905,429.1222,2099.4429,410.6405,2103.7355" style="stroke:#516F42;stroke-width:1;"/><path d="M428.5618,2105.4167 C458.8351,2108.2566 478.2932,2110.0819 512.8286,2113.3216" fill="none" style="stroke:#516F42;stroke-width:1;"/></g><!--SRC=[vLdVRzis47xtNy6bBnkm0jsmhS1G54XI6oZGhcbje2y23COwIrpvGo2f96hH_tqKAScaJJbsBAVkcfUGH_A-xuxatOd-gP0uOnXHN8bI8yL0Ouv7227rYV02IypGkPJYzb9G8T6JFt_xQ_d7x-4uNcXoGtHr8MGASfU9UF4fawBaQJDvQV_YaryHp0HFTrRUpjy5G-Ku5RU4PsY9gOBHg7zeDK891rqLW8JKkHZb90K4hD0LOi2kGQeHXQL6MY19iboZb4Wmt0GVAT28OmQgm0kOGgrE6sf9CXfrOlGMouMu55oHZ1AH9ECY1mQIAFIb9e_GWcAbqDaRi_e6wFIMADNDEKDOeUZ8VExMcJ-dv-leguTwYUMruCrGW-1aLgLhjZfUl41mfq5oJD7Bbp5rkneHSdo5DSm80miP7rgPKJFWgJBUS-JQ_zsC6A_Nb9QCSACiIQPbKPWj36sUWhmX2xYIuiRigtHCGjcnlH2bi6r6p2SHGqsZPrsC-tcAsOK4NI_BWTAF4XS5IEDbmHZcQUYsSvcL3BYsPDlE08vQXujxB42F3yLyT9-9PiRwwiCzDQ4uipphngDvg4FT53_CCy7AFGcFUSdQAm2cRIADKzknzFhpkProCCIxKXUbdWZ9i3idlc0ea2kAJMvGRuXo65v_A8WFa8tlhh2kJul5y0L3WKnDtgCm8NNQAjMxwtzD0dF79p8mBAXpcGVc14E1r3bagg5mcRBh7Q0-ITwABdCsny0CYzIT0DiSM7sEbSkHjhMXl8a0OrEsoV7T0egw-B3pGr5VzDcLNgjdUpgpc97OO-Mnu1CdkQ_pFi32L8oX-_2rqjBKYQkqnGN3rDnEid3pNVvQbzvJE-t9eWClH0RWutg2c6DsnJ7nkzU20VdRm-VHz_h7STYquY8r5kMLpfa7794VGC1gCOsBab1J99dMQsuknzAiQmywQGNeh9bbUJJj-NmrVZ1wtycDudOs4rPGg0kN-uxDDcCxgM_GetXpQcpLa5M-TQriKEzszyNUlFKuDf6YEKukMtZzVQ_d9l3wfWrbYaiuCLE2Qz8P54XFsAmwkFplh0feHemxbn9NdL6sz_qQynrTfIRO45ZFgA1sA2M2y1MH7orGnsBaCPmHNCODJzZHm0U1v9IjdqbCj0e_s3yIdK_ApvyhioGbhfIkZTgKp-UwNb_Nqp_FVdqocJn__kpPByWgDOMrHsQhjOv4acm1UFfqRuVrxQBvb2TIwVSbbdfrX_v6fHaxrf7feeA7xC92XCh3uqA_oV43UQhxKr9QInvvRnfKjozh57xuFVa7RXz_InfGkoDh17xu3PdbHARV98ZvoEvHAKBbM-pF7hzwN0fAtMzKpVDhsntaWRgpAlO8uhrKh4hu3UdEFt5iKaT3idNVYTvhZJeHPf4dnuDVG7fXb8TpCWwmjs9LRfuAhytlqtk_JO_4SWQct3PAUmltzoN8odzOyWKFFqyTxfOhrSxnRbOhsZE4UcXH-eEI3xOoi24wSZHJ_WC0]--></g></svg>