<svg xmlns="http://www.w3.org/2000/svg" xmlns:xlink="http://www.w3.org/1999/xlink" contentStyleType="text/css" data-diagram-type="CLASS" height="1685px" preserveAspectRatio="none" style="width:1005px;height:1685px;background:#FFFFFF;" version="1.1" viewBox="0 0 1005 1685" width="1005px" zoomAndPan="magnify"><defs/><g><!--cluster MarcoConsiglio--><g class="cluster" data-entity="MarcoConsiglio" data-source-line="15" data-uid="ent0004" id="cluster_MarcoConsiglio"><path d="M207.5,4 L328.9287,4 A3.75,3.75 0 0 1 331.4287,6.5 L338.4287,26.2969 L995.5,26.2969 A2.5,2.5 0 0 1 998,28.7969 L998,1675.5 A2.5,2.5 0 0 1 995.5,1678 L207.5,1678 A2.5,2.5 0 0 1 205,1675.5 L205,6.5 A2.5,2.5 0 0 1 207.5,4" fill="none" style="stroke:#000000;stroke-width:1.5;"/><line style="stroke:#000000;stroke-width:1.5;" x1="205" x2="338.4287" y1="26.2969" y2="26.2969"/><text fill="#000000" font-family="sans-serif" font-size="14" font-weight="bold" lengthAdjust="spacing" textLength="120.4287" x="209" y="18.9951">MarcoConsiglio</text></g><!--cluster Ephemeris--><g class="cluster" data-entity="Ephemeris" data-source-line="14" data-uid="ent0002" id="cluster_Ephemeris"><path d="M215.5,31 L299.666,31 A3.75,3.75 0 0 1 302.166,33.5 L309.166,53.2969 L987.5,53.2969 A2.5,2.5 0 0 1 990,55.7969 L990,1667.5 A2.5,2.5 0 0 1 987.5,1670 L215.5,1670 A2.5,2.5 0 0 1 213,1667.5 L213,33.5 A2.5,2.5 0 0 1 215.5,31" fill="none" style="stroke:#000000;stroke-width:1.5;"/><line style="stroke:#000000;stroke-width:1.5;" x1="213" x2="309.166" y1="53.2969" y2="53.2969"/><text fill="#000000" font-family="sans-serif" font-size="14" font-weight="bold" lengthAdjust="spacing" textLength="83.166" x="217" y="45.9951">Ephemeris</text></g><!--cluster Command--><g class="cluster" data-entity="Command" data-source-line="38" data-uid="ent0018" id="cluster_Command"><path d="M235.5,58 L315.0039,58 A3.75,3.75 0 0 1 317.5039,60.5 L324.5039,80.2969 L461.5,80.2969 A2.5,2.5 0 0 1 464,82.7969 L464,172.5 A2.5,2.5 0 0 1 461.5,175 L235.5,175 A2.5,2.5 0 0 1 233,172.5 L233,60.5 A2.5,2.5 0 0 1 235.5,58" fill="none" style="stroke:#000000;stroke-width:1.5;"/><line style="stroke:#000000;stroke-width:1.5;" x1="233" x2="324.5039" y1="80.2969" y2="80.2969"/><text fill="#000000" font-family="sans-serif" font-size="14" font-weight="bold" lengthAdjust="spacing" textLength="78.5039" x="237" y="72.9951">Command</text></g><!--cluster Enums--><g class="cluster" data-entity="Enums" data-source-line="50" data-uid="ent0024" id="cluster_Enums"><path d="M276.5,183 L329.918,183 A3.75,3.75 0 0 1 332.418,185.5 L339.418,205.2969 L947.5,205.2969 A2.5,2.5 0 0 1 950,207.7969 L950,347.5 A2.5,2.5 0 0 1 947.5,350 L276.5,350 A2.5,2.5 0 0 1 274,347.5 L274,185.5 A2.5,2.5 0 0 1 276.5,183" fill="none" style="stroke:#000000;stroke-width:1.5;"/><line style="stroke:#000000;stroke-width:1.5;" x1="274" x2="339.418" y1="205.2969" y2="205.2969"/><text fill="#000000" font-family="sans-serif" font-size="14" font-weight="bold" lengthAdjust="spacing" textLength="52.418" x="278" y="197.9951">Enums</text></g><!--cluster Exceptions--><g class="cluster" data-entity="Exceptions" data-source-line="80" data-uid="ent0033" id="cluster_Exceptions"><path d="M253,358 L339.8184,358 A3.75,3.75 0 0 1 342.3184,360.5 L349.3184,380.2969 L444,380.2969 A2.5,2.5 0 0 1 446.5,382.7969 L446.5,422.5 A2.5,2.5 0 0 1 444,425 L253,425 A2.5,2.5 0 0 1 250.5,422.5 L250.5,360.5 A2.5,2.5 0 0 1 253,358" fill="none" style="stroke:#000000;stroke-width:1.5;"/><line style="stroke:#000000;stroke-width:1.5;" x1="250.5" x2="349.3184" y1="380.2969" y2="380.2969"/><text fill="#000000" font-family="sans-serif" font-size="14" font-weight="bold" lengthAdjust="spacing" textLength="85.8184" x="254.5" y="372.9951">Exceptions</text></g><!--cluster Rhythms--><g class="cluster" data-entity="Rhythms" data-source-line="84" data-uid="ent0036" id="cluster_Rhythms"><path d="M253,433 L323.4531,433 A3.75,3.75 0 0 1 325.9531,435.5 L332.9531,455.2969 L979.5,455.2969 A2.5,2.5 0 0 1 982,457.7969 L982,1359.5 A2.5,2.5 0 0 1 979.5,1362 L253,1362 A2.5,2.5 0 0 1 250.5,1359.5 L250.5,435.5 A2.5,2.5 0 0 1 253,433" fill="none" style="stroke:#000000;stroke-width:1.5;"/><line style="stroke:#000000;stroke-width:1.5;" x1="250.5" x2="332.9531" y1="455.2969" y2="455.2969"/><text fill="#000000" font-family="sans-serif" font-size="14" font-weight="bold" lengthAdjust="spacing" textLength="69.4531" x="254.5" y="447.9951">Rhythms</text></g><!--cluster Builders--><g class="cluster" data-entity="Builders" data-source-line="113" data-uid="ent0049" id="cluster_Builders"><path d="M264.5,460 L330.4893,460 A3.75,3.75 0 0 1 332.9893,462.5 L339.9893,482.2969 L971.5,482.2969 A2.5,2.5 0 0 1 974,484.7969 L974,984.5 A2.5,2.5 0 0 1 971.5,987 L264.5,987 A2.5,2.5 0 0 1 262,984.5 L262,462.5 A2.5,2.5 0 0 1 264.5,460" fill="none" style="stroke:#000000;stroke-width:1.5;"/><line style="stroke:#000000;stroke-width:1.5;" x1="262" x2="339.9893" y1="482.2969" y2="482.2969"/><text fill="#000000" font-family="sans-serif" font-size="14" font-weight="bold" lengthAdjust="spacing" textLength="64.9893" x="266" y="474.9951">Builders</text></g><!--cluster Interfaces--><g class="cluster" data-entity="Interfaces" data-source-line="112" data-uid="ent0047" id="cluster_Interfaces"><path d="M272.5,737 L353.4326,737 A3.75,3.75 0 0 1 355.9326,739.5 L362.9326,759.2969 L424.5,759.2969 A2.5,2.5 0 0 1 427,761.7969 L427,851.5 A2.5,2.5 0 0 1 424.5,854 L272.5,854 A2.5,2.5 0 0 1 270,851.5 L270,739.5 A2.5,2.5 0 0 1 272.5,737" fill="none" style="stroke:#000000;stroke-width:1.5;"/><line style="stroke:#000000;stroke-width:1.5;" x1="270" x2="362.9326" y1="759.2969" y2="759.2969"/><text fill="#000000" font-family="sans-serif" font-size="14" font-weight="bold" lengthAdjust="spacing" textLength="79.9326" x="274" y="751.9951">Interfaces</text></g><!--cluster MoonPeriods--><g class="cluster" data-entity="MoonPeriods" data-source-line="120" data-uid="ent0051" id="cluster_MoonPeriods"><path d="M522.5,912 L626.0664,912 A3.75,3.75 0 0 1 628.5664,914.5 L635.5664,934.2969 L749.5,934.2969 A2.5,2.5 0 0 1 752,936.7969 L752,976.5 A2.5,2.5 0 0 1 749.5,979 L522.5,979 A2.5,2.5 0 0 1 520,976.5 L520,914.5 A2.5,2.5 0 0 1 522.5,912" fill="none" style="stroke:#000000;stroke-width:1.5;"/><line style="stroke:#000000;stroke-width:1.5;" x1="520" x2="635.5664" y1="934.2969" y2="934.2969"/><text fill="#000000" font-family="sans-serif" font-size="14" font-weight="bold" lengthAdjust="spacing" textLength="102.5664" x="524" y="926.9951">MoonPeriods</text></g><!--cluster MoonPhases--><g class="cluster" data-entity="MoonPhases" data-source-line="124" data-uid="ent0054" id="cluster_MoonPhases"><path d="M522.5,487 L622.4707,487 A3.75,3.75 0 0 1 624.9707,489.5 L631.9707,509.2969 L963.5,509.2969 A2.5,2.5 0 0 1 966,511.7969 L966,776.5 A2.5,2.5 0 0 1 963.5,779 L522.5,779 A2.5,2.5 0 0 1 520,776.5 L520,489.5 A2.5,2.5 0 0 1 522.5,487" fill="none" style="stroke:#000000;stroke-width:1.5;"/><line style="stroke:#000000;stroke-width:1.5;" x1="520" x2="631.9707" y1="509.2969" y2="509.2969"/><text fill="#000000" font-family="sans-serif" font-size="14" font-weight="bold" lengthAdjust="spacing" textLength="98.9707" x="524" y="501.9951">MoonPhases</text></g><!--cluster Strategies--><g class="cluster" data-entity="Strategies" data-source-line="128" data-uid="ent0057" id="cluster_Strategies"><path d="M544.5,514 L627.4629,514 A3.75,3.75 0 0 1 629.9629,516.5 L636.9629,536.2969 L955.5,536.2969 A2.5,2.5 0 0 1 958,538.7969 L958,728.5 A2.5,2.5 0 0 1 955.5,731 L544.5,731 A2.5,2.5 0 0 1 542,728.5 L542,516.5 A2.5,2.5 0 0 1 544.5,514" fill="none" style="stroke:#000000;stroke-width:1.5;"/><line style="stroke:#000000;stroke-width:1.5;" x1="542" x2="636.9629" y1="536.2969" y2="536.2969"/><text fill="#000000" font-family="sans-serif" font-size="14" font-weight="bold" lengthAdjust="spacing" textLength="81.9629" x="546" y="528.9951">Strategies</text></g><!--cluster MoonSynodicRhythm--><g class="cluster" data-entity="MoonSynodicRhythm" data-source-line="156" data-uid="ent0074" id="cluster_MoonSynodicRhythm"><path d="M548,787 L715.168,787 A3.75,3.75 0 0 1 717.668,789.5 L724.668,809.2969 L725,809.2969 A2.5,2.5 0 0 1 727.5,811.7969 L727.5,901.5 A2.5,2.5 0 0 1 725,904 L548,904 A2.5,2.5 0 0 1 545.5,901.5 L545.5,789.5 A2.5,2.5 0 0 1 548,787" fill="none" style="stroke:#000000;stroke-width:1.5;"/><line style="stroke:#000000;stroke-width:1.5;" x1="545.5" x2="724.668" y1="809.2969" y2="809.2969"/><text fill="#000000" font-family="sans-serif" font-size="14" font-weight="bold" lengthAdjust="spacing" textLength="166.168" x="549.5" y="801.9951">MoonSynodicRhythm</text></g><!--cluster Enums--><g class="cluster" data-entity="Enums" data-source-line="164" data-uid="ent0079" id="cluster_Enums"><path d="M268.5,995 L321.918,995 A3.75,3.75 0 0 1 324.418,997.5 L331.418,1017.2969 L428.5,1017.2969 A2.5,2.5 0 0 1 431,1019.7969 L431,1109.5 A2.5,2.5 0 0 1 428.5,1112 L268.5,1112 A2.5,2.5 0 0 1 266,1109.5 L266,997.5 A2.5,2.5 0 0 1 268.5,995" fill="none" style="stroke:#000000;stroke-width:1.5;"/><line style="stroke:#000000;stroke-width:1.5;" x1="266" x2="331.418" y1="1017.2969" y2="1017.2969"/><text fill="#000000" font-family="sans-serif" font-size="14" font-weight="bold" lengthAdjust="spacing" textLength="52.418" x="270" y="1009.9951">Enums</text></g><!--cluster Traits--><g class="cluster" data-entity="Traits" data-source-line="132" data-uid="ent0060" id="cluster_Traits"><path d="M545,1370 L591.7256,1370 A3.75,3.75 0 0 1 594.2256,1372.5 L601.2256,1392.2969 L727,1392.2969 A2.5,2.5 0 0 1 729.5,1394.7969 L729.5,1442.5 A2.5,2.5 0 0 1 727,1445 L545,1445 A2.5,2.5 0 0 1 542.5,1442.5 L542.5,1372.5 A2.5,2.5 0 0 1 545,1370" fill="none" style="stroke:#000000;stroke-width:1.5;"/><line style="stroke:#000000;stroke-width:1.5;" x1="542.5" x2="601.2256" y1="1392.2969" y2="1392.2969"/><text fill="#000000" font-family="sans-serif" font-size="14" font-weight="bold" lengthAdjust="spacing" textLength="45.7256" x="546.5" y="1384.9951">Traits</text></g><!--cluster Templates--><g class="cluster" data-entity="Templates" data-source-line="172" data-uid="ent0082" id="cluster_Templates"><path d="M281,1453 L364.4209,1453 A3.75,3.75 0 0 1 366.9209,1455.5 L373.9209,1475.2969 L764.5,1475.2969 A2.5,2.5 0 0 1 767,1477.7969 L767,1517.5 A2.5,2.5 0 0 1 764.5,1520 L281,1520 A2.5,2.5 0 0 1 278.5,1517.5 L278.5,1455.5 A2.5,2.5 0 0 1 281,1453" fill="none" style="stroke:#000000;stroke-width:1.5;"/><line style="stroke:#000000;stroke-width:1.5;" x1="278.5" x2="373.9209" y1="1475.2969" y2="1475.2969"/><text fill="#000000" font-family="sans-serif" font-size="14" font-weight="bold" lengthAdjust="spacing" textLength="82.4209" x="282.5" y="1467.9951">Templates</text></g><!--cluster Carbon--><g class="cluster" data-entity="Carbon" data-source-line="18" data-uid="ent0005" id="cluster_Carbon"><path d="M49.5,1131 L106.7324,1131 A3.75,3.75 0 0 1 109.2324,1133.5 L116.2324,1153.2969 L152.5,1153.2969 A2.5,2.5 0 0 1 155,1155.7969 L155,1203.5 A2.5,2.5 0 0 1 152.5,1206 L49.5,1206 A2.5,2.5 0 0 1 47,1203.5 L47,1133.5 A2.5,2.5 0 0 1 49.5,1131" fill="none" style="stroke:#000000;stroke-width:1.5;"/><line style="stroke:#000000;stroke-width:1.5;" x1="47" x2="116.2324" y1="1153.2969" y2="1153.2969"/><text fill="#000000" font-family="sans-serif" font-size="14" font-weight="bold" lengthAdjust="spacing" textLength="56.2324" x="51" y="1145.9951">Carbon</text></g><!--cluster Illuminate--><g class="cluster" data-entity="Illuminate" data-source-line="27" data-uid="ent0011" id="cluster_Illuminate"><path d="M16.5,1214 L97.2617,1214 A3.75,3.75 0 0 1 99.7617,1216.5 L106.7617,1236.2969 L185.5,1236.2969 A2.5,2.5 0 0 1 188,1238.7969 L188,1379.5 A2.5,2.5 0 0 1 185.5,1382 L16.5,1382 A2.5,2.5 0 0 1 14,1379.5 L14,1216.5 A2.5,2.5 0 0 1 16.5,1214" fill="none" style="stroke:#000000;stroke-width:1.5;"/><line style="stroke:#000000;stroke-width:1.5;" x1="14" x2="106.7617" y1="1236.2969" y2="1236.2969"/><text fill="#000000" font-family="sans-serif" font-size="14" font-weight="bold" lengthAdjust="spacing" textLength="79.7617" x="18" y="1228.9951">Illuminate</text></g><!--cluster Support--><g class="cluster" data-entity="Support" data-source-line="26" data-uid="ent0009" id="cluster_Support"><path d="M24.5,1241 L88.8076,1241 A3.75,3.75 0 0 1 91.3076,1243.5 L98.3076,1263.2969 L177.5,1263.2969 A2.5,2.5 0 0 1 180,1265.7969 L180,1371.5 A2.5,2.5 0 0 1 177.5,1374 L24.5,1374 A2.5,2.5 0 0 1 22,1371.5 L22,1243.5 A2.5,2.5 0 0 1 24.5,1241" fill="none" style="stroke:#000000;stroke-width:1.5;"/><line style="stroke:#000000;stroke-width:1.5;" x1="22" x2="98.3076" y1="1263.2969" y2="1263.2969"/><text fill="#000000" font-family="sans-serif" font-size="14" font-weight="bold" lengthAdjust="spacing" textLength="63.3076" x="26" y="1255.9951">Support</text></g><!--cluster AdamBrett--><g class="cluster" data-entity="AdamBrett" data-source-line="35" data-uid="ent0016" id="cluster_AdamBrett"><path d="M28.5,1390 L114.8467,1390 A3.75,3.75 0 0 1 117.3467,1392.5 L124.3467,1412.2969 L173.5,1412.2969 A2.5,2.5 0 0 1 176,1414.7969 L176,1590.5 A2.5,2.5 0 0 1 173.5,1593 L28.5,1593 A2.5,2.5 0 0 1 26,1590.5 L26,1392.5 A2.5,2.5 0 0 1 28.5,1390" fill="none" style="stroke:#000000;stroke-width:1.5;"/><line style="stroke:#000000;stroke-width:1.5;" x1="26" x2="124.3467" y1="1412.2969" y2="1412.2969"/><text fill="#000000" font-family="sans-serif" font-size="14" font-weight="bold" lengthAdjust="spacing" textLength="85.3467" x="30" y="1404.9951">AdamBrett</text></g><!--cluster ShellWrapper--><g class="cluster" data-entity="ShellWrapper" data-source-line="35" data-uid="ent0017" id="cluster_ShellWrapper"><path d="M36.5,1417 L144.8789,1417 A3.75,3.75 0 0 1 147.3789,1419.5 L154.3789,1439.2969 L165.5,1439.2969 A2.5,2.5 0 0 1 168,1441.7969 L168,1582.5 A2.5,2.5 0 0 1 165.5,1585 L36.5,1585 A2.5,2.5 0 0 1 34,1582.5 L34,1419.5 A2.5,2.5 0 0 1 36.5,1417" fill="none" style="stroke:#000000;stroke-width:1.5;"/><line style="stroke:#000000;stroke-width:1.5;" x1="34" x2="154.3789" y1="1439.2969" y2="1439.2969"/><text fill="#000000" font-family="sans-serif" font-size="14" font-weight="bold" lengthAdjust="spacing" textLength="107.3789" x="38" y="1431.9951">ShellWrapper</text></g><!--cluster Command--><g class="cluster" data-entity="Command" data-source-line="34" data-uid="ent0014" id="cluster_Command"><path d="M44.5,1444 L124.0039,1444 A3.75,3.75 0 0 1 126.5039,1446.5 L133.5039,1466.2969 L157.5,1466.2969 A2.5,2.5 0 0 1 160,1468.7969 L160,1574.5 A2.5,2.5 0 0 1 157.5,1577 L44.5,1577 A2.5,2.5 0 0 1 42,1574.5 L42,1446.5 A2.5,2.5 0 0 1 44.5,1444" fill="none" style="stroke:#000000;stroke-width:1.5;"/><line style="stroke:#000000;stroke-width:1.5;" x1="42" x2="133.5039" y1="1466.2969" y2="1466.2969"/><text fill="#000000" font-family="sans-serif" font-size="14" font-weight="bold" lengthAdjust="spacing" textLength="78.5039" x="46" y="1458.9951">Command</text></g><!--class ErrorException__class--><g class="entity" data-entity="ErrorException__class" data-source-line="78" data-uid="ent0032" id="entity_ErrorException__class"><rect fill="#F1F1F1" height="40.2656" rx="2.5" ry="2.5" style="stroke:#181818;stroke-width:0.5;" width="135.8242" x="33" y="381"/><ellipse cx="48" cy="401.1328" fill="#ADD1B2" rx="11" ry="11" style="stroke:#181818;stroke-width:1;"/><path d="M50.9688,406.7734 Q50.3906,407.0703 49.75,407.2109 Q49.1094,407.3672 48.4063,407.3672 Q45.9063,407.3672 44.5781,405.7266 Q43.2656,404.0703 43.2656,400.9453 Q43.2656,397.8203 44.5781,396.1641 Q45.9063,394.5078 48.4063,394.5078 Q49.1094,394.5078 49.75,394.6641 Q50.4063,394.8203 50.9688,395.1172 L50.9688,397.8359 Q50.3438,397.2578 49.75,396.9922 Q49.1563,396.7109 48.5313,396.7109 Q47.1875,396.7109 46.5,397.7891 Q45.8125,398.8516 45.8125,400.9453 Q45.8125,403.0391 46.5,404.1172 Q47.1875,405.1797 48.5313,405.1797 Q49.1563,405.1797 49.75,404.9141 Q50.3438,404.6328 50.9688,404.0547 L50.9688,406.7734 Z " fill="#000000"/><text fill="#000000" font-family="sans-serif" font-size="12" font-style="italic" lengthAdjust="spacing" textLength="64.4824" x="81.6709" y="397.1387">&#171;external&#187;</text><text fill="#000000" font-family="sans-serif" font-size="14" lengthAdjust="spacing" textLength="103.8242" x="62" y="412.9639">ErrorException</text></g><!--class LaravelSwissEphemeris__class--><g class="entity" data-entity="LaravelSwissEphemeris__class" data-source-line="15" data-uid="ent0003" id="entity_LaravelSwissEphemeris__class"><rect fill="#F1F1F1" height="32" rx="2.5" ry="2.5" style="stroke:#181818;stroke-width:0.5;" width="196.7256" x="250" y="1530"/><ellipse cx="265" cy="1546" fill="#ADD1B2" rx="11" ry="11" style="stroke:#181818;stroke-width:1;"/><path d="M267.9688,1551.6406 Q267.3906,1551.9375 266.75,1552.0781 Q266.1094,1552.2344 265.4063,1552.2344 Q262.9063,1552.2344 261.5781,1550.5938 Q260.2656,1548.9375 260.2656,1545.8125 Q260.2656,1542.6875 261.5781,1541.0313 Q262.9063,1539.375 265.4063,1539.375 Q266.1094,1539.375 266.75,1539.5313 Q267.4063,1539.6875 267.9688,1539.9844 L267.9688,1542.7031 Q267.3438,1542.125 266.75,1541.8594 Q266.1563,1541.5781 265.5313,1541.5781 Q264.1875,1541.5781 263.5,1542.6563 Q262.8125,1543.7188 262.8125,1545.8125 Q262.8125,1547.9063 263.5,1548.9844 Q264.1875,1550.0469 265.5313,1550.0469 Q266.1563,1550.0469 266.75,1549.7813 Q267.3438,1549.5 267.9688,1548.9219 L267.9688,1551.6406 Z " fill="#000000"/><text fill="#000000" font-family="sans-serif" font-size="14" lengthAdjust="spacing" textLength="164.7256" x="279" y="1550.8467">LaravelSwissEphemeris</text></g><!--class SwissEphemerisDateTime__class--><g class="entity" data-entity="SwissEphemerisDateTime__class" data-source-line="23" data-uid="ent0007" id="entity_SwissEphemerisDateTime__class"><rect fill="#F1F1F1" height="32" rx="2.5" ry="2.5" style="stroke:#181818;stroke-width:0.5;" width="213.3779" x="242" y="1580"/><ellipse cx="257" cy="1596" fill="#ADD1B2" rx="11" ry="11" style="stroke:#181818;stroke-width:1;"/><path d="M259.9688,1601.6406 Q259.3906,1601.9375 258.75,1602.0781 Q258.1094,1602.2344 257.4063,1602.2344 Q254.9063,1602.2344 253.5781,1600.5938 Q252.2656,1598.9375 252.2656,1595.8125 Q252.2656,1592.6875 253.5781,1591.0313 Q254.9063,1589.375 257.4063,1589.375 Q258.1094,1589.375 258.75,1589.5313 Q259.4063,1589.6875 259.9688,1589.9844 L259.9688,1592.7031 Q259.3438,1592.125 258.75,1591.8594 Q258.1563,1591.5781 257.5313,1591.5781 Q256.1875,1591.5781 255.5,1592.6563 Q254.8125,1593.7188 254.8125,1595.8125 Q254.8125,1597.9063 255.5,1598.9844 Q256.1875,1600.0469 257.5313,1600.0469 Q258.1563,1600.0469 258.75,1599.7813 Q259.3438,1599.5 259.9688,1598.9219 L259.9688,1601.6406 Z " fill="#000000"/><text fill="#000000" font-family="sans-serif" font-size="14" lengthAdjust="spacing" textLength="181.3779" x="271" y="1600.8467">SwissEphemerisDateTime</text></g><!--class SwissEphemerisServiceProvider__class--><g class="entity" data-entity="SwissEphemerisServiceProvider__class" data-source-line="31" data-uid="ent0012" id="entity_SwissEphemerisServiceProvider__class"><rect fill="#F1F1F1" height="32" rx="2.5" ry="2.5" style="stroke:#181818;stroke-width:0.5;" width="255.1592" x="221" y="1630"/><ellipse cx="236" cy="1646" fill="#ADD1B2" rx="11" ry="11" style="stroke:#181818;stroke-width:1;"/><path d="M238.9688,1651.6406 Q238.3906,1651.9375 237.75,1652.0781 Q237.1094,1652.2344 236.4063,1652.2344 Q233.9063,1652.2344 232.5781,1650.5938 Q231.2656,1648.9375 231.2656,1645.8125 Q231.2656,1642.6875 232.5781,1641.0313 Q233.9063,1639.375 236.4063,1639.375 Q237.1094,1639.375 237.75,1639.5313 Q238.4063,1639.6875 238.9688,1639.9844 L238.9688,1642.7031 Q238.3438,1642.125 237.75,1641.8594 Q237.1563,1641.5781 236.5313,1641.5781 Q235.1875,1641.5781 234.5,1642.6563 Q233.8125,1643.7188 233.8125,1645.8125 Q233.8125,1647.9063 234.5,1648.9844 Q235.1875,1650.0469 236.5313,1650.0469 Q237.1563,1650.0469 237.75,1649.7813 Q238.3438,1649.5 238.9688,1648.9219 L238.9688,1651.6406 Z " fill="#000000"/><text fill="#000000" font-family="sans-serif" font-size="14" lengthAdjust="spacing" textLength="223.1592" x="250" y="1650.8467">SwissEphemerisServiceProvider</text></g><!--class SwissEphemerisArgument__class--><g class="entity" data-entity="SwissEphemerisArgument__class" data-source-line="39" data-uid="ent0019" id="entity_SwissEphemerisArgument__class"><rect fill="#F1F1F1" height="32" rx="2.5" ry="2.5" style="stroke:#181818;stroke-width:0.5;" width="214.9297" x="241" y="85"/><ellipse cx="256" cy="101" fill="#ADD1B2" rx="11" ry="11" style="stroke:#181818;stroke-width:1;"/><path d="M258.9688,106.6406 Q258.3906,106.9375 257.75,107.0781 Q257.1094,107.2344 256.4063,107.2344 Q253.9063,107.2344 252.5781,105.5938 Q251.2656,103.9375 251.2656,100.8125 Q251.2656,97.6875 252.5781,96.0313 Q253.9063,94.375 256.4063,94.375 Q257.1094,94.375 257.75,94.5313 Q258.4063,94.6875 258.9688,94.9844 L258.9688,97.7031 Q258.3438,97.125 257.75,96.8594 Q257.1563,96.5781 256.5313,96.5781 Q255.1875,96.5781 254.5,97.6563 Q253.8125,98.7188 253.8125,100.8125 Q253.8125,102.9063 254.5,103.9844 Q255.1875,105.0469 256.5313,105.0469 Q257.1563,105.0469 257.75,104.7813 Q258.3438,104.5 258.9688,103.9219 L258.9688,106.6406 Z " fill="#000000"/><text fill="#000000" font-family="sans-serif" font-size="14" lengthAdjust="spacing" textLength="182.9297" x="270" y="105.8467">SwissEphemerisArgument</text></g><!--class SwissEphemerisFlag__class--><g class="entity" data-entity="SwissEphemerisFlag__class" data-source-line="47" data-uid="ent0022" id="entity_SwissEphemerisFlag__class"><rect fill="#F1F1F1" height="32" rx="2.5" ry="2.5" style="stroke:#181818;stroke-width:0.5;" width="174.6318" x="261" y="135"/><ellipse cx="276" cy="151" fill="#ADD1B2" rx="11" ry="11" style="stroke:#181818;stroke-width:1;"/><path d="M278.9688,156.6406 Q278.3906,156.9375 277.75,157.0781 Q277.1094,157.2344 276.4063,157.2344 Q273.9063,157.2344 272.5781,155.5938 Q271.2656,153.9375 271.2656,150.8125 Q271.2656,147.6875 272.5781,146.0313 Q273.9063,144.375 276.4063,144.375 Q277.1094,144.375 277.75,144.5313 Q278.4063,144.6875 278.9688,144.9844 L278.9688,147.7031 Q278.3438,147.125 277.75,146.8594 Q277.1563,146.5781 276.5313,146.5781 Q275.1875,146.5781 274.5,147.6563 Q273.8125,148.7188 273.8125,150.8125 Q273.8125,152.9063 274.5,153.9844 Q275.1875,155.0469 276.5313,155.0469 Q277.1563,155.0469 277.75,154.7813 Q278.3438,154.5 278.9688,153.9219 L278.9688,156.6406 Z " fill="#000000"/><text fill="#000000" font-family="sans-serif" font-size="14" lengthAdjust="spacing" textLength="142.6318" x="290" y="155.8467">SwissEphemerisFlag</text></g><!--class CommandFlag__enum--><g class="entity" data-entity="CommandFlag__enum" data-source-line="51" data-uid="ent0025" id="entity_CommandFlag__enum"><rect fill="#F1F1F1" height="32" rx="2.5" ry="2.5" style="stroke:#181818;stroke-width:0.5;" width="133.3633" x="282" y="310"/><ellipse cx="297" cy="326" fill="#EB937F" rx="11" ry="11" style="stroke:#181818;stroke-width:1;"/><path d="M301.1094,332 L293.3906,332 L293.3906,319.6094 L301.1094,319.6094 L301.1094,321.7656 L295.8438,321.7656 L295.8438,324.4375 L300.6094,324.4375 L300.6094,326.5938 L295.8438,326.5938 L295.8438,329.8438 L301.1094,329.8438 L301.1094,332 Z " fill="#000000"/><text fill="#000000" font-family="sans-serif" font-size="14" lengthAdjust="spacing" textLength="101.3633" x="311" y="330.8467">CommandFlag</text></g><!--class OutputFormat__enum--><g class="entity" data-entity="OutputFormat__enum" data-source-line="55" data-uid="ent0026" id="entity_OutputFormat__enum"><rect fill="#F1F1F1" height="32" rx="2.5" ry="2.5" style="stroke:#181818;stroke-width:0.5;" width="130.7109" x="283" y="260"/><ellipse cx="298" cy="276" fill="#EB937F" rx="11" ry="11" style="stroke:#181818;stroke-width:1;"/><path d="M302.1094,282 L294.3906,282 L294.3906,269.6094 L302.1094,269.6094 L302.1094,271.7656 L296.8438,271.7656 L296.8438,274.4375 L301.6094,274.4375 L301.6094,276.5938 L296.8438,276.5938 L296.8438,279.8438 L302.1094,279.8438 L302.1094,282 Z " fill="#000000"/><text fill="#000000" font-family="sans-serif" font-size="14" lengthAdjust="spacing" textLength="98.7109" x="312" y="280.8467">OutputFormat</text></g><!--class PlanetsList__enum--><g class="entity" data-entity="PlanetsList__enum" data-source-line="59" data-uid="ent0027" id="entity_PlanetsList__enum"><rect fill="#F1F1F1" height="32" rx="2.5" ry="2.5" style="stroke:#181818;stroke-width:0.5;" width="107.6533" x="294.5" y="210"/><ellipse cx="309.5" cy="226" fill="#EB937F" rx="11" ry="11" style="stroke:#181818;stroke-width:1;"/><path d="M313.6094,232 L305.8906,232 L305.8906,219.6094 L313.6094,219.6094 L313.6094,221.7656 L308.3438,221.7656 L308.3438,224.4375 L313.1094,224.4375 L313.1094,226.5938 L308.3438,226.5938 L308.3438,229.8438 L313.6094,229.8438 L313.6094,232 Z " fill="#000000"/><text fill="#000000" font-family="sans-serif" font-size="14" lengthAdjust="spacing" textLength="75.6533" x="323.5" y="230.8467">PlanetsList</text></g><!--class RegExPattern__enum--><g class="entity" data-entity="RegExPattern__enum" data-source-line="63" data-uid="ent0028" id="entity_RegExPattern__enum"><rect fill="#F1F1F1" height="32" rx="2.5" ry="2.5" style="stroke:#181818;stroke-width:0.5;" width="127.6006" x="572" y="310"/><ellipse cx="587" cy="326" fill="#EB937F" rx="11" ry="11" style="stroke:#181818;stroke-width:1;"/><path d="M591.1094,332 L583.3906,332 L583.3906,319.6094 L591.1094,319.6094 L591.1094,321.7656 L585.8438,321.7656 L585.8438,324.4375 L590.6094,324.4375 L590.6094,326.5938 L585.8438,326.5938 L585.8438,329.8438 L591.1094,329.8438 L591.1094,332 Z " fill="#000000"/><text fill="#000000" font-family="sans-serif" font-size="14" lengthAdjust="spacing" textLength="95.6006" x="601" y="330.8467">RegExPattern</text></g><!--class SingleFictiousObject__enum--><g class="entity" data-entity="SingleFictiousObject__enum" data-source-line="67" data-uid="ent0029" id="entity_SingleFictiousObject__enum"><rect fill="#F1F1F1" height="32" rx="2.5" ry="2.5" style="stroke:#181818;stroke-width:0.5;" width="174.3857" x="549" y="260"/><ellipse cx="564" cy="276" fill="#EB937F" rx="11" ry="11" style="stroke:#181818;stroke-width:1;"/><path d="M568.1094,282 L560.3906,282 L560.3906,269.6094 L568.1094,269.6094 L568.1094,271.7656 L562.8438,271.7656 L562.8438,274.4375 L567.6094,274.4375 L567.6094,276.5938 L562.8438,276.5938 L562.8438,279.8438 L568.1094,279.8438 L568.1094,282 Z " fill="#000000"/><text fill="#000000" font-family="sans-serif" font-size="14" lengthAdjust="spacing" textLength="142.3857" x="578" y="280.8467">SingleFictiousObject</text></g><!--class SinglePlanet__enum--><g class="entity" data-entity="SinglePlanet__enum" data-source-line="71" data-uid="ent0030" id="entity_SinglePlanet__enum"><rect fill="#F1F1F1" height="32" rx="2.5" ry="2.5" style="stroke:#181818;stroke-width:0.5;" width="118.9258" x="576.5" y="210"/><ellipse cx="591.5" cy="226" fill="#EB937F" rx="11" ry="11" style="stroke:#181818;stroke-width:1;"/><path d="M595.6094,232 L587.8906,232 L587.8906,219.6094 L595.6094,219.6094 L595.6094,221.7656 L590.3438,221.7656 L590.3438,224.4375 L595.1094,224.4375 L595.1094,226.5938 L590.3438,226.5938 L590.3438,229.8438 L595.6094,229.8438 L595.6094,232 Z " fill="#000000"/><text fill="#000000" font-family="sans-serif" font-size="14" lengthAdjust="spacing" textLength="86.9258" x="605.5" y="230.8467">SinglePlanet</text></g><!--class TimeSteps__enum--><g class="entity" data-entity="TimeSteps__enum" data-source-line="75" data-uid="ent0031" id="entity_TimeSteps__enum"><rect fill="#F1F1F1" height="32" rx="2.5" ry="2.5" style="stroke:#181818;stroke-width:0.5;" width="105.8623" x="836" y="310"/><ellipse cx="851" cy="326" fill="#EB937F" rx="11" ry="11" style="stroke:#181818;stroke-width:1;"/><path d="M855.1094,332 L847.3906,332 L847.3906,319.6094 L855.1094,319.6094 L855.1094,321.7656 L849.8438,321.7656 L849.8438,324.4375 L854.6094,324.4375 L854.6094,326.5938 L849.8438,326.5938 L849.8438,329.8438 L855.1094,329.8438 L855.1094,332 Z " fill="#000000"/><text fill="#000000" font-family="sans-serif" font-size="14" lengthAdjust="spacing" textLength="73.8623" x="865" y="330.8467">TimeSteps</text></g><!--class SwissEphemerisError__class--><g class="entity" data-entity="SwissEphemerisError__class" data-source-line="81" data-uid="ent0034" id="entity_SwissEphemerisError__class"><rect fill="#F1F1F1" height="32" rx="2.5" ry="2.5" style="stroke:#181818;stroke-width:0.5;" width="179.9023" x="258.5" y="385"/><ellipse cx="273.5" cy="401" fill="#ADD1B2" rx="11" ry="11" style="stroke:#181818;stroke-width:1;"/><path d="M276.4688,406.6406 Q275.8906,406.9375 275.25,407.0781 Q274.6094,407.2344 273.9063,407.2344 Q271.4063,407.2344 270.0781,405.5938 Q268.7656,403.9375 268.7656,400.8125 Q268.7656,397.6875 270.0781,396.0313 Q271.4063,394.375 273.9063,394.375 Q274.6094,394.375 275.25,394.5313 Q275.9063,394.6875 276.4688,394.9844 L276.4688,397.7031 Q275.8438,397.125 275.25,396.8594 Q274.6563,396.5781 274.0313,396.5781 Q272.6875,396.5781 272,397.6563 Q271.3125,398.7188 271.3125,400.8125 Q271.3125,402.9063 272,403.9844 Q272.6875,405.0469 274.0313,405.0469 Q274.6563,405.0469 275.25,404.7813 Q275.8438,404.5 276.4688,403.9219 L276.4688,406.6406 Z " fill="#000000"/><text fill="#000000" font-family="sans-serif" font-size="14" lengthAdjust="spacing" textLength="147.9023" x="287.5" y="405.8467">SwissEphemerisError</text></g><!--class MoonPeriod__class--><g class="entity" data-entity="MoonPeriod__class" data-source-line="85" data-uid="ent0037" id="entity_MoonPeriod__class"><rect fill="#F1F1F1" height="32" rx="2.5" ry="2.5" style="stroke:#181818;stroke-width:0.5;" width="114.2363" x="291.5" y="1172"/><ellipse cx="306.5" cy="1188" fill="#ADD1B2" rx="11" ry="11" style="stroke:#181818;stroke-width:1;"/><path d="M309.4688,1193.6406 Q308.8906,1193.9375 308.25,1194.0781 Q307.6094,1194.2344 306.9063,1194.2344 Q304.4063,1194.2344 303.0781,1192.5938 Q301.7656,1190.9375 301.7656,1187.8125 Q301.7656,1184.6875 303.0781,1183.0313 Q304.4063,1181.375 306.9063,1181.375 Q307.6094,1181.375 308.25,1181.5313 Q308.9063,1181.6875 309.4688,1181.9844 L309.4688,1184.7031 Q308.8438,1184.125 308.25,1183.8594 Q307.6563,1183.5781 307.0313,1183.5781 Q305.6875,1183.5781 305,1184.6563 Q304.3125,1185.7188 304.3125,1187.8125 Q304.3125,1189.9063 305,1190.9844 Q305.6875,1192.0469 307.0313,1192.0469 Q307.6563,1192.0469 308.25,1191.7813 Q308.8438,1191.5 309.4688,1190.9219 L309.4688,1193.6406 Z " fill="#000000"/><text fill="#000000" font-family="sans-serif" font-size="14" lengthAdjust="spacing" textLength="82.2363" x="320.5" y="1192.8467">MoonPeriod</text></g><!--class MoonPeriods__class--><g class="entity" data-entity="MoonPeriods__class" data-source-line="93" data-uid="ent0039" id="entity_MoonPeriods__class"><rect fill="#F1F1F1" height="32" rx="2.5" ry="2.5" style="stroke:#181818;stroke-width:0.5;" width="121.5303" x="287.5" y="1222"/><ellipse cx="302.5" cy="1238" fill="#ADD1B2" rx="11" ry="11" style="stroke:#181818;stroke-width:1;"/><path d="M305.4688,1243.6406 Q304.8906,1243.9375 304.25,1244.0781 Q303.6094,1244.2344 302.9063,1244.2344 Q300.4063,1244.2344 299.0781,1242.5938 Q297.7656,1240.9375 297.7656,1237.8125 Q297.7656,1234.6875 299.0781,1233.0313 Q300.4063,1231.375 302.9063,1231.375 Q303.6094,1231.375 304.25,1231.5313 Q304.9063,1231.6875 305.4688,1231.9844 L305.4688,1234.7031 Q304.8438,1234.125 304.25,1233.8594 Q303.6563,1233.5781 303.0313,1233.5781 Q301.6875,1233.5781 301,1234.6563 Q300.3125,1235.7188 300.3125,1237.8125 Q300.3125,1239.9063 301,1240.9844 Q301.6875,1242.0469 303.0313,1242.0469 Q303.6563,1242.0469 304.25,1241.7813 Q304.8438,1241.5 305.4688,1240.9219 L305.4688,1243.6406 Z " fill="#000000"/><text fill="#000000" font-family="sans-serif" font-size="14" lengthAdjust="spacing" textLength="89.5303" x="316.5" y="1242.8467">MoonPeriods</text></g><!--class MoonPhaseRecord__class--><g class="entity" data-entity="MoonPhaseRecord__class" data-source-line="97" data-uid="ent0041" id="entity_MoonPhaseRecord__class"><rect fill="#F1F1F1" height="32" rx="2.5" ry="2.5" style="stroke:#181818;stroke-width:0.5;" width="161.1309" x="268" y="1122"/><ellipse cx="283" cy="1138" fill="#ADD1B2" rx="11" ry="11" style="stroke:#181818;stroke-width:1;"/><path d="M285.9688,1143.6406 Q285.3906,1143.9375 284.75,1144.0781 Q284.1094,1144.2344 283.4063,1144.2344 Q280.9063,1144.2344 279.5781,1142.5938 Q278.2656,1140.9375 278.2656,1137.8125 Q278.2656,1134.6875 279.5781,1133.0313 Q280.9063,1131.375 283.4063,1131.375 Q284.1094,1131.375 284.75,1131.5313 Q285.4063,1131.6875 285.9688,1131.9844 L285.9688,1134.7031 Q285.3438,1134.125 284.75,1133.8594 Q284.1563,1133.5781 283.5313,1133.5781 Q282.1875,1133.5781 281.5,1134.6563 Q280.8125,1135.7188 280.8125,1137.8125 Q280.8125,1139.9063 281.5,1140.9844 Q282.1875,1142.0469 283.5313,1142.0469 Q284.1563,1142.0469 284.75,1141.7813 Q285.3438,1141.5 285.9688,1140.9219 L285.9688,1143.6406 Z " fill="#000000"/><text fill="#000000" font-family="sans-serif" font-size="14" lengthAdjust="spacing" textLength="129.1309" x="297" y="1142.8467">MoonPhaseRecord</text></g><!--class MoonPhases__class--><g class="entity" data-entity="MoonPhases__class" data-source-line="101" data-uid="ent0042" id="entity_MoonPhases__class"><rect fill="#F1F1F1" height="32" rx="2.5" ry="2.5" style="stroke:#181818;stroke-width:0.5;" width="119.1787" x="289" y="1272"/><ellipse cx="304" cy="1288" fill="#ADD1B2" rx="11" ry="11" style="stroke:#181818;stroke-width:1;"/><path d="M306.9688,1293.6406 Q306.3906,1293.9375 305.75,1294.0781 Q305.1094,1294.2344 304.4063,1294.2344 Q301.9063,1294.2344 300.5781,1292.5938 Q299.2656,1290.9375 299.2656,1287.8125 Q299.2656,1284.6875 300.5781,1283.0313 Q301.9063,1281.375 304.4063,1281.375 Q305.1094,1281.375 305.75,1281.5313 Q306.4063,1281.6875 306.9688,1281.9844 L306.9688,1284.7031 Q306.3438,1284.125 305.75,1283.8594 Q305.1563,1283.5781 304.5313,1283.5781 Q303.1875,1283.5781 302.5,1284.6563 Q301.8125,1285.7188 301.8125,1287.8125 Q301.8125,1289.9063 302.5,1290.9844 Q303.1875,1292.0469 304.5313,1292.0469 Q305.1563,1292.0469 305.75,1291.7813 Q306.3438,1291.5 306.9688,1290.9219 L306.9688,1293.6406 Z " fill="#000000"/><text fill="#000000" font-family="sans-serif" font-size="14" lengthAdjust="spacing" textLength="87.1787" x="318" y="1292.8467">MoonPhases</text></g><!--class MoonSynodicRhythm__class--><g class="entity" data-entity="MoonSynodicRhythm__class" data-source-line="105" data-uid="ent0044" id="entity_MoonSynodicRhythm__class"><rect fill="#F1F1F1" height="32" rx="2.5" ry="2.5" style="stroke:#181818;stroke-width:0.5;" width="180.0527" x="258.5" y="1322"/><ellipse cx="273.5" cy="1338" fill="#ADD1B2" rx="11" ry="11" style="stroke:#181818;stroke-width:1;"/><path d="M276.4688,1343.6406 Q275.8906,1343.9375 275.25,1344.0781 Q274.6094,1344.2344 273.9063,1344.2344 Q271.4063,1344.2344 270.0781,1342.5938 Q268.7656,1340.9375 268.7656,1337.8125 Q268.7656,1334.6875 270.0781,1333.0313 Q271.4063,1331.375 273.9063,1331.375 Q274.6094,1331.375 275.25,1331.5313 Q275.9063,1331.6875 276.4688,1331.9844 L276.4688,1334.7031 Q275.8438,1334.125 275.25,1333.8594 Q274.6563,1333.5781 274.0313,1333.5781 Q272.6875,1333.5781 272,1334.6563 Q271.3125,1335.7188 271.3125,1337.8125 Q271.3125,1339.9063 272,1340.9844 Q272.6875,1342.0469 274.0313,1342.0469 Q274.6563,1342.0469 275.25,1341.7813 Q275.8438,1341.5 276.4688,1340.9219 L276.4688,1343.6406 Z " fill="#000000"/><text fill="#000000" font-family="sans-serif" font-size="14" lengthAdjust="spacing" textLength="148.0527" x="287.5" y="1342.8467">MoonSynodicRhythm</text></g><!--class MoonSynodicRhythmRecord__class--><g class="entity" data-entity="MoonSynodicRhythmRecord__class" data-source-line="109" data-uid="ent0046" id="entity_MoonSynodicRhythmRecord__class"><rect fill="#F1F1F1" height="32" rx="2.5" ry="2.5" style="stroke:#181818;stroke-width:0.5;" width="229.2988" x="521.5" y="1172"/><ellipse cx="536.5" cy="1188" fill="#ADD1B2" rx="11" ry="11" style="stroke:#181818;stroke-width:1;"/><path d="M539.4688,1193.6406 Q538.8906,1193.9375 538.25,1194.0781 Q537.6094,1194.2344 536.9063,1194.2344 Q534.4063,1194.2344 533.0781,1192.5938 Q531.7656,1190.9375 531.7656,1187.8125 Q531.7656,1184.6875 533.0781,1183.0313 Q534.4063,1181.375 536.9063,1181.375 Q537.6094,1181.375 538.25,1181.5313 Q538.9063,1181.6875 539.4688,1181.9844 L539.4688,1184.7031 Q538.8438,1184.125 538.25,1183.8594 Q537.6563,1183.5781 537.0313,1183.5781 Q535.6875,1183.5781 535,1184.6563 Q534.3125,1185.7188 534.3125,1187.8125 Q534.3125,1189.9063 535,1190.9844 Q535.6875,1192.0469 537.0313,1192.0469 Q537.6563,1192.0469 538.25,1191.7813 Q538.8438,1191.5 539.4688,1190.9219 L539.4688,1193.6406 Z " fill="#000000"/><text fill="#000000" font-family="sans-serif" font-size="14" lengthAdjust="spacing" textLength="197.2988" x="550.5" y="1192.8467">MoonSynodicRhythmRecord</text></g><!--class Builder__interface--><g class="entity" data-entity="Builder__interface" data-source-line="113" data-uid="ent0048" id="entity_Builder__interface"><rect fill="#F1F1F1" height="32" rx="2.5" ry="2.5" style="stroke:#181818;stroke-width:0.5;" width="81.5127" x="307.5" y="814"/><ellipse cx="322.5" cy="830" fill="#B4A7E5" rx="11" ry="11" style="stroke:#181818;stroke-width:1;"/><path d="M318.4219,825.7656 L318.4219,823.6094 L325.8125,823.6094 L325.8125,825.7656 L323.3438,825.7656 L323.3438,833.8438 L325.8125,833.8438 L325.8125,836 L318.4219,836 L318.4219,833.8438 L320.8906,833.8438 L320.8906,825.7656 L318.4219,825.7656 Z " fill="#000000"/><text fill="#000000" font-family="sans-serif" font-size="14" font-style="italic" lengthAdjust="spacing" textLength="49.5127" x="336.5" y="834.8467">Builder</text></g><!--class BuilderStrategy__interface--><g class="entity" data-entity="BuilderStrategy__interface" data-source-line="117" data-uid="ent0050" id="entity_BuilderStrategy__interface"><rect fill="#F1F1F1" height="32" rx="2.5" ry="2.5" style="stroke:#181818;stroke-width:0.5;" width="141.498" x="278" y="764"/><ellipse cx="293" cy="780" fill="#B4A7E5" rx="11" ry="11" style="stroke:#181818;stroke-width:1;"/><path d="M288.9219,775.7656 L288.9219,773.6094 L296.3125,773.6094 L296.3125,775.7656 L293.8438,775.7656 L293.8438,783.8438 L296.3125,783.8438 L296.3125,786 L288.9219,786 L288.9219,783.8438 L291.3906,783.8438 L291.3906,775.7656 L288.9219,775.7656 Z " fill="#000000"/><text fill="#000000" font-family="sans-serif" font-size="14" font-style="italic" lengthAdjust="spacing" textLength="109.498" x="307" y="784.8467">BuilderStrategy</text></g><!--class FromMoonSynodicRhythm__class--><g class="entity" data-entity="FromMoonSynodicRhythm__class" data-source-line="121" data-uid="ent0052" id="entity_FromMoonSynodicRhythm__class"><rect fill="#F1F1F1" height="32" rx="2.5" ry="2.5" style="stroke:#181818;stroke-width:0.5;" width="216.0645" x="528" y="939"/><ellipse cx="543" cy="955" fill="#ADD1B2" rx="11" ry="11" style="stroke:#181818;stroke-width:1;"/><path d="M545.9688,960.6406 Q545.3906,960.9375 544.75,961.0781 Q544.1094,961.2344 543.4063,961.2344 Q540.9063,961.2344 539.5781,959.5938 Q538.2656,957.9375 538.2656,954.8125 Q538.2656,951.6875 539.5781,950.0313 Q540.9063,948.375 543.4063,948.375 Q544.1094,948.375 544.75,948.5313 Q545.4063,948.6875 545.9688,948.9844 L545.9688,951.7031 Q545.3438,951.125 544.75,950.8594 Q544.1563,950.5781 543.5313,950.5781 Q542.1875,950.5781 541.5,951.6563 Q540.8125,952.7188 540.8125,954.8125 Q540.8125,956.9063 541.5,957.9844 Q542.1875,959.0469 543.5313,959.0469 Q544.1563,959.0469 544.75,958.7813 Q545.3438,958.5 545.9688,957.9219 L545.9688,960.6406 Z " fill="#000000"/><text fill="#000000" font-family="sans-serif" font-size="14" lengthAdjust="spacing" textLength="184.0645" x="557" y="959.8467">FromMoonSynodicRhythm</text></g><!--class FromMoonSynodicRhythm__class--><g class="entity" data-entity="FromMoonSynodicRhythm__class" data-source-line="125" data-uid="ent0055" id="entity_FromMoonSynodicRhythm__class"><rect fill="#F1F1F1" height="32" rx="2.5" ry="2.5" style="stroke:#181818;stroke-width:0.5;" width="216.0645" x="528" y="739"/><ellipse cx="543" cy="755" fill="#ADD1B2" rx="11" ry="11" style="stroke:#181818;stroke-width:1;"/><path d="M545.9688,760.6406 Q545.3906,760.9375 544.75,761.0781 Q544.1094,761.2344 543.4063,761.2344 Q540.9063,761.2344 539.5781,759.5938 Q538.2656,757.9375 538.2656,754.8125 Q538.2656,751.6875 539.5781,750.0313 Q540.9063,748.375 543.4063,748.375 Q544.1094,748.375 544.75,748.5313 Q545.4063,748.6875 545.9688,748.9844 L545.9688,751.7031 Q545.3438,751.125 544.75,750.8594 Q544.1563,750.5781 543.5313,750.5781 Q542.1875,750.5781 541.5,751.6563 Q540.8125,752.7188 540.8125,754.8125 Q540.8125,756.9063 541.5,757.9844 Q542.1875,759.0469 543.5313,759.0469 Q544.1563,759.0469 544.75,758.7813 Q545.3438,758.5 545.9688,757.9219 L545.9688,760.6406 Z " fill="#000000"/><text fill="#000000" font-family="sans-serif" font-size="14" lengthAdjust="spacing" textLength="184.0645" x="557" y="759.8467">FromMoonSynodicRhythm</text></g><!--class MoonPhaseStrategy__class--><g class="entity" data-entity="MoonPhaseStrategy__class" data-source-line="129" data-uid="ent0058" id="entity_MoonPhaseStrategy__class"><rect fill="#F1F1F1" height="32" rx="2.5" ry="2.5" style="stroke:#181818;stroke-width:0.5;" width="171.8701" x="550" y="641"/><ellipse cx="565" cy="657" fill="#A9DCDF" rx="11" ry="11" style="stroke:#181818;stroke-width:1;"/><path d="M565.1094,652.3438 L563.9531,657.4219 L566.2813,657.4219 L565.1094,652.3438 Z M563.625,650.1094 L566.6094,650.1094 L569.9688,662.5 L567.5156,662.5 L566.75,659.4375 L563.4688,659.4375 L562.7188,662.5 L560.2813,662.5 L563.625,650.1094 Z " fill="#000000"/><text fill="#000000" font-family="sans-serif" font-size="14" font-style="italic" lengthAdjust="spacing" textLength="139.8701" x="579" y="661.8467">MoonPhaseStrategy</text></g><!--class FirstQuarter__class--><g class="entity" data-entity="FirstQuarter__class" data-source-line="136" data-uid="ent0062" id="entity_FirstQuarter__class"><rect fill="#F1F1F1" height="32" rx="2.5" ry="2.5" style="stroke:#181818;stroke-width:0.5;" width="116.5674" x="830.5" y="541"/><ellipse cx="845.5" cy="557" fill="#ADD1B2" rx="11" ry="11" style="stroke:#181818;stroke-width:1;"/><path d="M848.4688,562.6406 Q847.8906,562.9375 847.25,563.0781 Q846.6094,563.2344 845.9063,563.2344 Q843.4063,563.2344 842.0781,561.5938 Q840.7656,559.9375 840.7656,556.8125 Q840.7656,553.6875 842.0781,552.0313 Q843.4063,550.375 845.9063,550.375 Q846.6094,550.375 847.25,550.5313 Q847.9063,550.6875 848.4688,550.9844 L848.4688,553.7031 Q847.8438,553.125 847.25,552.8594 Q846.6563,552.5781 846.0313,552.5781 Q844.6875,552.5781 844,553.6563 Q843.3125,554.7188 843.3125,556.8125 Q843.3125,558.9063 844,559.9844 Q844.6875,561.0469 846.0313,561.0469 Q846.6563,561.0469 847.25,560.7813 Q847.8438,560.5 848.4688,559.9219 L848.4688,562.6406 Z " fill="#000000"/><text fill="#000000" font-family="sans-serif" font-size="14" lengthAdjust="spacing" textLength="84.5674" x="859.5" y="561.8467">FirstQuarter</text></g><!--class FullMoon__class--><g class="entity" data-entity="FullMoon__class" data-source-line="141" data-uid="ent0065" id="entity_FullMoon__class"><rect fill="#F1F1F1" height="32" rx="2.5" ry="2.5" style="stroke:#181818;stroke-width:0.5;" width="94.7881" x="841.5" y="691"/><ellipse cx="856.5" cy="707" fill="#ADD1B2" rx="11" ry="11" style="stroke:#181818;stroke-width:1;"/><path d="M859.4688,712.6406 Q858.8906,712.9375 858.25,713.0781 Q857.6094,713.2344 856.9063,713.2344 Q854.4063,713.2344 853.0781,711.5938 Q851.7656,709.9375 851.7656,706.8125 Q851.7656,703.6875 853.0781,702.0313 Q854.4063,700.375 856.9063,700.375 Q857.6094,700.375 858.25,700.5313 Q858.9063,700.6875 859.4688,700.9844 L859.4688,703.7031 Q858.8438,703.125 858.25,702.8594 Q857.6563,702.5781 857.0313,702.5781 Q855.6875,702.5781 855,703.6563 Q854.3125,704.7188 854.3125,706.8125 Q854.3125,708.9063 855,709.9844 Q855.6875,711.0469 857.0313,711.0469 Q857.6563,711.0469 858.25,710.7813 Q858.8438,710.5 859.4688,709.9219 L859.4688,712.6406 Z " fill="#000000"/><text fill="#000000" font-family="sans-serif" font-size="14" lengthAdjust="spacing" textLength="62.7881" x="870.5" y="711.8467">FullMoon</text></g><!--class NewMoon__class--><g class="entity" data-entity="NewMoon__class" data-source-line="146" data-uid="ent0068" id="entity_NewMoon__class"><rect fill="#F1F1F1" height="32" rx="2.5" ry="2.5" style="stroke:#181818;stroke-width:0.5;" width="100.6191" x="838.5" y="641"/><ellipse cx="853.5" cy="657" fill="#ADD1B2" rx="11" ry="11" style="stroke:#181818;stroke-width:1;"/><path d="M856.4688,662.6406 Q855.8906,662.9375 855.25,663.0781 Q854.6094,663.2344 853.9063,663.2344 Q851.4063,663.2344 850.0781,661.5938 Q848.7656,659.9375 848.7656,656.8125 Q848.7656,653.6875 850.0781,652.0313 Q851.4063,650.375 853.9063,650.375 Q854.6094,650.375 855.25,650.5313 Q855.9063,650.6875 856.4688,650.9844 L856.4688,653.7031 Q855.8438,653.125 855.25,652.8594 Q854.6563,652.5781 854.0313,652.5781 Q852.6875,652.5781 852,653.6563 Q851.3125,654.7188 851.3125,656.8125 Q851.3125,658.9063 852,659.9844 Q852.6875,661.0469 854.0313,661.0469 Q854.6563,661.0469 855.25,660.7813 Q855.8438,660.5 856.4688,659.9219 L856.4688,662.6406 Z " fill="#000000"/><text fill="#000000" font-family="sans-serif" font-size="14" lengthAdjust="spacing" textLength="68.6191" x="867.5" y="661.8467">NewMoon</text></g><!--class ThirdQuarter__class--><g class="entity" data-entity="ThirdQuarter__class" data-source-line="151" data-uid="ent0071" id="entity_ThirdQuarter__class"><rect fill="#F1F1F1" height="32" rx="2.5" ry="2.5" style="stroke:#181818;stroke-width:0.5;" width="122.043" x="828" y="591"/><ellipse cx="843" cy="607" fill="#ADD1B2" rx="11" ry="11" style="stroke:#181818;stroke-width:1;"/><path d="M845.9688,612.6406 Q845.3906,612.9375 844.75,613.0781 Q844.1094,613.2344 843.4063,613.2344 Q840.9063,613.2344 839.5781,611.5938 Q838.2656,609.9375 838.2656,606.8125 Q838.2656,603.6875 839.5781,602.0313 Q840.9063,600.375 843.4063,600.375 Q844.1094,600.375 844.75,600.5313 Q845.4063,600.6875 845.9688,600.9844 L845.9688,603.7031 Q845.3438,603.125 844.75,602.8594 Q844.1563,602.5781 843.5313,602.5781 Q842.1875,602.5781 841.5,603.6563 Q840.8125,604.7188 840.8125,606.8125 Q840.8125,608.9063 841.5,609.9844 Q842.1875,611.0469 843.5313,611.0469 Q844.1563,611.0469 844.75,610.7813 Q845.3438,610.5 845.9688,609.9219 L845.9688,612.6406 Z " fill="#000000"/><text fill="#000000" font-family="sans-serif" font-size="14" lengthAdjust="spacing" textLength="90.043" x="857" y="611.8467">ThirdQuarter</text></g><!--class FromArray__class--><g class="entity" data-entity="FromArray__class" data-source-line="157" data-uid="ent0075" id="entity_FromArray__class"><rect fill="#F1F1F1" height="32" rx="2.5" ry="2.5" style="stroke:#181818;stroke-width:0.5;" width="105.9648" x="583" y="864"/><ellipse cx="598" cy="880" fill="#ADD1B2" rx="11" ry="11" style="stroke:#181818;stroke-width:1;"/><path d="M600.9688,885.6406 Q600.3906,885.9375 599.75,886.0781 Q599.1094,886.2344 598.4063,886.2344 Q595.9063,886.2344 594.5781,884.5938 Q593.2656,882.9375 593.2656,879.8125 Q593.2656,876.6875 594.5781,875.0313 Q595.9063,873.375 598.4063,873.375 Q599.1094,873.375 599.75,873.5313 Q600.4063,873.6875 600.9688,873.9844 L600.9688,876.7031 Q600.3438,876.125 599.75,875.8594 Q599.1563,875.5781 598.5313,875.5781 Q597.1875,875.5781 596.5,876.6563 Q595.8125,877.7188 595.8125,879.8125 Q595.8125,881.9063 596.5,882.9844 Q597.1875,884.0469 598.5313,884.0469 Q599.1563,884.0469 599.75,883.7813 Q600.3438,883.5 600.9688,882.9219 L600.9688,885.6406 Z " fill="#000000"/><text fill="#000000" font-family="sans-serif" font-size="14" lengthAdjust="spacing" textLength="73.9648" x="612" y="884.8467">FromArray</text></g><!--class FromRecords__class--><g class="entity" data-entity="FromRecords__class" data-source-line="161" data-uid="ent0077" id="entity_FromRecords__class"><rect fill="#F1F1F1" height="32" rx="2.5" ry="2.5" style="stroke:#181818;stroke-width:0.5;" width="124.5518" x="573.5" y="814"/><ellipse cx="588.5" cy="830" fill="#ADD1B2" rx="11" ry="11" style="stroke:#181818;stroke-width:1;"/><path d="M591.4688,835.6406 Q590.8906,835.9375 590.25,836.0781 Q589.6094,836.2344 588.9063,836.2344 Q586.4063,836.2344 585.0781,834.5938 Q583.7656,832.9375 583.7656,829.8125 Q583.7656,826.6875 585.0781,825.0313 Q586.4063,823.375 588.9063,823.375 Q589.6094,823.375 590.25,823.5313 Q590.9063,823.6875 591.4688,823.9844 L591.4688,826.7031 Q590.8438,826.125 590.25,825.8594 Q589.6563,825.5781 589.0313,825.5781 Q587.6875,825.5781 587,826.6563 Q586.3125,827.7188 586.3125,829.8125 Q586.3125,831.9063 587,832.9844 Q587.6875,834.0469 589.0313,834.0469 Q589.6563,834.0469 590.25,833.7813 Q590.8438,833.5 591.4688,832.9219 L591.4688,835.6406 Z " fill="#000000"/><text fill="#000000" font-family="sans-serif" font-size="14" lengthAdjust="spacing" textLength="92.5518" x="602.5" y="834.8467">FromRecords</text></g><!--class MoonPeriodType__enum--><g class="entity" data-entity="MoonPeriodType__enum" data-source-line="165" data-uid="ent0080" id="entity_MoonPeriodType__enum"><rect fill="#F1F1F1" height="32" rx="2.5" ry="2.5" style="stroke:#181818;stroke-width:0.5;" width="148.5732" x="274" y="1022"/><ellipse cx="289" cy="1038" fill="#EB937F" rx="11" ry="11" style="stroke:#181818;stroke-width:1;"/><path d="M293.1094,1044 L285.3906,1044 L285.3906,1031.6094 L293.1094,1031.6094 L293.1094,1033.7656 L287.8438,1033.7656 L287.8438,1036.4375 L292.6094,1036.4375 L292.6094,1038.5938 L287.8438,1038.5938 L287.8438,1041.8438 L293.1094,1041.8438 L293.1094,1044 Z " fill="#000000"/><text fill="#000000" font-family="sans-serif" font-size="14" lengthAdjust="spacing" textLength="116.5732" x="303" y="1042.8467">MoonPeriodType</text></g><!--class MoonPhaseType__enum--><g class="entity" data-entity="MoonPhaseType__enum" data-source-line="169" data-uid="ent0081" id="entity_MoonPhaseType__enum"><rect fill="#F1F1F1" height="32" rx="2.5" ry="2.5" style="stroke:#181818;stroke-width:0.5;" width="146.2217" x="275.5" y="1072"/><ellipse cx="290.5" cy="1088" fill="#EB937F" rx="11" ry="11" style="stroke:#181818;stroke-width:1;"/><path d="M294.6094,1094 L286.8906,1094 L286.8906,1081.6094 L294.6094,1081.6094 L294.6094,1083.7656 L289.3438,1083.7656 L289.3438,1086.4375 L294.1094,1086.4375 L294.1094,1088.5938 L289.3438,1088.5938 L289.3438,1091.8438 L294.6094,1091.8438 L294.6094,1094 Z " fill="#000000"/><text fill="#000000" font-family="sans-serif" font-size="14" lengthAdjust="spacing" textLength="114.2217" x="304.5" y="1092.8467">MoonPhaseType</text></g><!--class WithFuzzyCondition__trait--><g class="entity" data-entity="WithFuzzyCondition__trait" data-source-line="133" data-uid="ent0061" id="entity_WithFuzzyCondition__trait"><rect fill="#F1F1F1" height="40.2656" rx="2.5" ry="2.5" style="stroke:#181818;stroke-width:0.5;" width="170.8105" x="550.5" y="1397"/><ellipse cx="565.5" cy="1417.1328" fill="#FF7700" rx="11" ry="11" style="stroke:#181818;stroke-width:1;"/><path d="M566.3438,1423.8828 L563.8906,1423.8828 L563.8906,1413.6328 L560.75,1413.6328 L560.75,1411.4922 L569.4844,1411.4922 L569.4844,1413.6328 L566.3438,1413.6328 L566.3438,1423.8828 Z " fill="#000000"/><text fill="#000000" font-family="sans-serif" font-size="12" font-style="italic" lengthAdjust="spacing" textLength="42.3398" x="627.7354" y="1413.1387">&#171;Trait&#187;</text><text fill="#000000" font-family="sans-serif" font-size="14" lengthAdjust="spacing" textLength="138.8105" x="579.5" y="1428.9639">WithFuzzyCondition</text></g><!--class QueryBuilder__class--><g class="entity" data-entity="QueryBuilder__class" data-source-line="173" data-uid="ent0083" id="entity_QueryBuilder__class"><rect fill="#F1F1F1" height="32" rx="2.5" ry="2.5" style="stroke:#181818;stroke-width:0.5;" width="124.0596" x="286.5" y="1480"/><ellipse cx="301.5" cy="1496" fill="#A9DCDF" rx="11" ry="11" style="stroke:#181818;stroke-width:1;"/><path d="M301.6094,1491.3438 L300.4531,1496.4219 L302.7813,1496.4219 L301.6094,1491.3438 Z M300.125,1489.1094 L303.1094,1489.1094 L306.4688,1501.5 L304.0156,1501.5 L303.25,1498.4375 L299.9688,1498.4375 L299.2188,1501.5 L296.7813,1501.5 L300.125,1489.1094 Z " fill="#000000"/><text fill="#000000" font-family="sans-serif" font-size="14" font-style="italic" lengthAdjust="spacing" textLength="92.0596" x="315.5" y="1500.8467">QueryBuilder</text></g><!--class MoonSynodicRhythmTemplate__class--><g class="entity" data-entity="MoonSynodicRhythmTemplate__class" data-source-line="177" data-uid="ent0084" id="entity_MoonSynodicRhythmTemplate__class"><rect fill="#F1F1F1" height="32" rx="2.5" ry="2.5" style="stroke:#181818;stroke-width:0.5;" width="246.3135" x="513" y="1480"/><ellipse cx="528" cy="1496" fill="#ADD1B2" rx="11" ry="11" style="stroke:#181818;stroke-width:1;"/><path d="M530.9688,1501.6406 Q530.3906,1501.9375 529.75,1502.0781 Q529.1094,1502.2344 528.4063,1502.2344 Q525.9063,1502.2344 524.5781,1500.5938 Q523.2656,1498.9375 523.2656,1495.8125 Q523.2656,1492.6875 524.5781,1491.0313 Q525.9063,1489.375 528.4063,1489.375 Q529.1094,1489.375 529.75,1489.5313 Q530.4063,1489.6875 530.9688,1489.9844 L530.9688,1492.7031 Q530.3438,1492.125 529.75,1491.8594 Q529.1563,1491.5781 528.5313,1491.5781 Q527.1875,1491.5781 526.5,1492.6563 Q525.8125,1493.7188 525.8125,1495.8125 Q525.8125,1497.9063 526.5,1498.9844 Q527.1875,1500.0469 528.5313,1500.0469 Q529.1563,1500.0469 529.75,1499.7813 Q530.3438,1499.5 530.9688,1498.9219 L530.9688,1501.6406 Z " fill="#000000"/><text fill="#000000" font-family="sans-serif" font-size="14" lengthAdjust="spacing" textLength="214.3135" x="542" y="1500.8467">MoonSynodicRhythmTemplate</text></g><!--class Carbon__class--><g class="entity" data-entity="Carbon__class" data-source-line="19" data-uid="ent0006" id="entity_Carbon__class"><rect fill="#F1F1F1" height="40.2656" rx="2.5" ry="2.5" style="stroke:#181818;stroke-width:0.5;" width="92.4824" x="55" y="1158"/><ellipse cx="70" cy="1178.1328" fill="#ADD1B2" rx="11" ry="11" style="stroke:#181818;stroke-width:1;"/><path d="M72.9688,1183.7734 Q72.3906,1184.0703 71.75,1184.2109 Q71.1094,1184.3672 70.4063,1184.3672 Q67.9063,1184.3672 66.5781,1182.7266 Q65.2656,1181.0703 65.2656,1177.9453 Q65.2656,1174.8203 66.5781,1173.1641 Q67.9063,1171.5078 70.4063,1171.5078 Q71.1094,1171.5078 71.75,1171.6641 Q72.4063,1171.8203 72.9688,1172.1172 L72.9688,1174.8359 Q72.3438,1174.2578 71.75,1173.9922 Q71.1563,1173.7109 70.5313,1173.7109 Q69.1875,1173.7109 68.5,1174.7891 Q67.8125,1175.8516 67.8125,1177.9453 Q67.8125,1180.0391 68.5,1181.1172 Q69.1875,1182.1797 70.5313,1182.1797 Q71.1563,1182.1797 71.75,1181.9141 Q72.3438,1181.6328 72.9688,1181.0547 L72.9688,1183.7734 Z " fill="#000000"/><text fill="#000000" font-family="sans-serif" font-size="12" font-style="italic" lengthAdjust="spacing" textLength="64.4824" x="82" y="1174.1387">&#171;external&#187;</text><text fill="#000000" font-family="sans-serif" font-size="14" lengthAdjust="spacing" textLength="50.4355" x="89.0234" y="1189.9639">Carbon</text></g><!--class ServiceProvider__class--><g class="entity" data-entity="ServiceProvider__class" data-source-line="27" data-uid="ent0010" id="entity_ServiceProvider__class"><rect fill="#F1F1F1" height="40.2656" rx="2.5" ry="2.5" style="stroke:#181818;stroke-width:0.5;" width="141.9355" x="30" y="1326"/><ellipse cx="45" cy="1346.1328" fill="#ADD1B2" rx="11" ry="11" style="stroke:#181818;stroke-width:1;"/><path d="M47.9688,1351.7734 Q47.3906,1352.0703 46.75,1352.2109 Q46.1094,1352.3672 45.4063,1352.3672 Q42.9063,1352.3672 41.5781,1350.7266 Q40.2656,1349.0703 40.2656,1345.9453 Q40.2656,1342.8203 41.5781,1341.1641 Q42.9063,1339.5078 45.4063,1339.5078 Q46.1094,1339.5078 46.75,1339.6641 Q47.4063,1339.8203 47.9688,1340.1172 L47.9688,1342.8359 Q47.3438,1342.2578 46.75,1341.9922 Q46.1563,1341.7109 45.5313,1341.7109 Q44.1875,1341.7109 43.5,1342.7891 Q42.8125,1343.8516 42.8125,1345.9453 Q42.8125,1348.0391 43.5,1349.1172 Q44.1875,1350.1797 45.5313,1350.1797 Q46.1563,1350.1797 46.75,1349.9141 Q47.3438,1349.6328 47.9688,1349.0547 L47.9688,1351.7734 Z " fill="#000000"/><text fill="#000000" font-family="sans-serif" font-size="12" font-style="italic" lengthAdjust="spacing" textLength="64.4824" x="81.7266" y="1342.1387">&#171;external&#187;</text><text fill="#000000" font-family="sans-serif" font-size="14" lengthAdjust="spacing" textLength="109.9355" x="59" y="1357.9639">ServiceProvider</text></g><!--class Collection__class--><g class="entity" data-entity="Collection__class" data-source-line="89" data-uid="ent0038" id="entity_Collection__class"><rect fill="#F1F1F1" height="40.2656" rx="2.5" ry="2.5" style="stroke:#181818;stroke-width:0.5;" width="101.248" x="50.5" y="1268"/><ellipse cx="65.5" cy="1288.1328" fill="#ADD1B2" rx="11" ry="11" style="stroke:#181818;stroke-width:1;"/><path d="M68.4688,1293.7734 Q67.8906,1294.0703 67.25,1294.2109 Q66.6094,1294.3672 65.9063,1294.3672 Q63.4063,1294.3672 62.0781,1292.7266 Q60.7656,1291.0703 60.7656,1287.9453 Q60.7656,1284.8203 62.0781,1283.1641 Q63.4063,1281.5078 65.9063,1281.5078 Q66.6094,1281.5078 67.25,1281.6641 Q67.9063,1281.8203 68.4688,1282.1172 L68.4688,1284.8359 Q67.8438,1284.2578 67.25,1283.9922 Q66.6563,1283.7109 66.0313,1283.7109 Q64.6875,1283.7109 64,1284.7891 Q63.3125,1285.8516 63.3125,1287.9453 Q63.3125,1290.0391 64,1291.1172 Q64.6875,1292.1797 66.0313,1292.1797 Q66.6563,1292.1797 67.25,1291.9141 Q67.8438,1291.6328 68.4688,1291.0547 L68.4688,1293.7734 Z " fill="#000000"/><text fill="#000000" font-family="sans-serif" font-size="12" font-style="italic" lengthAdjust="spacing" textLength="64.4824" x="81.8828" y="1284.1387">&#171;external&#187;</text><text fill="#000000" font-family="sans-serif" font-size="14" lengthAdjust="spacing" textLength="69.248" x="79.5" y="1299.9639">Collection</text></g><!--class Argument__class--><g class="entity" data-entity="Argument__class" data-source-line="35" data-uid="ent0015" id="entity_Argument__class"><rect fill="#F1F1F1" height="40.2656" rx="2.5" ry="2.5" style="stroke:#181818;stroke-width:0.5;" width="101.7061" x="50" y="1471"/><ellipse cx="65" cy="1491.1328" fill="#ADD1B2" rx="11" ry="11" style="stroke:#181818;stroke-width:1;"/><path d="M67.9688,1496.7734 Q67.3906,1497.0703 66.75,1497.2109 Q66.1094,1497.3672 65.4063,1497.3672 Q62.9063,1497.3672 61.5781,1495.7266 Q60.2656,1494.0703 60.2656,1490.9453 Q60.2656,1487.8203 61.5781,1486.1641 Q62.9063,1484.5078 65.4063,1484.5078 Q66.1094,1484.5078 66.75,1484.6641 Q67.4063,1484.8203 67.9688,1485.1172 L67.9688,1487.8359 Q67.3438,1487.2578 66.75,1486.9922 Q66.1563,1486.7109 65.5313,1486.7109 Q64.1875,1486.7109 63.5,1487.7891 Q62.8125,1488.8516 62.8125,1490.9453 Q62.8125,1493.0391 63.5,1494.1172 Q64.1875,1495.1797 65.5313,1495.1797 Q66.1563,1495.1797 66.75,1494.9141 Q67.3438,1494.6328 67.9688,1494.0547 L67.9688,1496.7734 Z " fill="#000000"/><text fill="#000000" font-family="sans-serif" font-size="12" font-style="italic" lengthAdjust="spacing" textLength="64.4824" x="81.6118" y="1487.1387">&#171;external&#187;</text><text fill="#000000" font-family="sans-serif" font-size="14" lengthAdjust="spacing" textLength="69.7061" x="79" y="1502.9639">Argument</text></g><!--class Flag__class--><g class="entity" data-entity="Flag__class" data-source-line="43" data-uid="ent0021" id="entity_Flag__class"><rect fill="#F1F1F1" height="40.2656" rx="2.5" ry="2.5" style="stroke:#181818;stroke-width:0.5;" width="92.4824" x="55" y="1529"/><ellipse cx="70" cy="1549.1328" fill="#ADD1B2" rx="11" ry="11" style="stroke:#181818;stroke-width:1;"/><path d="M72.9688,1554.7734 Q72.3906,1555.0703 71.75,1555.2109 Q71.1094,1555.3672 70.4063,1555.3672 Q67.9063,1555.3672 66.5781,1553.7266 Q65.2656,1552.0703 65.2656,1548.9453 Q65.2656,1545.8203 66.5781,1544.1641 Q67.9063,1542.5078 70.4063,1542.5078 Q71.1094,1542.5078 71.75,1542.6641 Q72.4063,1542.8203 72.9688,1543.1172 L72.9688,1545.8359 Q72.3438,1545.2578 71.75,1544.9922 Q71.1563,1544.7109 70.5313,1544.7109 Q69.1875,1544.7109 68.5,1545.7891 Q67.8125,1546.8516 67.8125,1548.9453 Q67.8125,1551.0391 68.5,1552.1172 Q69.1875,1553.1797 70.5313,1553.1797 Q71.1563,1553.1797 71.75,1552.9141 Q72.3438,1552.6328 72.9688,1552.0547 L72.9688,1554.7734 Z " fill="#000000"/><text fill="#000000" font-family="sans-serif" font-size="12" font-style="italic" lengthAdjust="spacing" textLength="64.4824" x="82" y="1545.1387">&#171;external&#187;</text><text fill="#000000" font-family="sans-serif" font-size="14" lengthAdjust="spacing" textLength="29.4082" x="99.5371" y="1560.9639">Flag</text></g><g class="link" data-entity-1="Carbon__class" data-entity-2="SwissEphemerisDateTime__class" data-uid="lnk8" id="link_Carbon__class_SwissEphemerisDateTime__class"><polygon fill="none" points="146.775,1198.0491,159.1427,1212.4379,165.3025,1202.1396,146.775,1198.0491" style="stroke:#516F42;stroke-width:1;"/><path d="M162.2226,1207.2887 C178.0278,1216.7423 178.716,1220.4093 188,1237 C206.1459,1269.4273 180.3866,1543.1615 205,1571 C214.816,1582.1021 227.6764,1589.4148 241.6566,1594.095" fill="none" style="stroke:#516F42;stroke-width:1;"/></g><g class="link" data-entity-1="ServiceProvider__class" data-entity-2="SwissEphemerisServiceProvider__class" data-uid="lnk13" id="link_ServiceProvider__class_SwissEphemerisServiceProvider__class"><polygon fill="none" points="127.9196,1366.0952,137.6943,1382.3572,145.4966,1373.24,127.9196,1366.0952" style="stroke:#516F42;stroke-width:1;"/><path d="M141.5954,1377.7986 C161.7372,1395.0354 174.7319,1410.0734 188,1440 C204.3741,1476.9322 177.599,1591.3136 205,1621 C209.6849,1626.0757 215.0077,1630.3493 220.7772,1633.9347" fill="none" style="stroke:#516F42;stroke-width:1;"/></g><g class="link" data-entity-1="Argument__class" data-entity-2="SwissEphemerisArgument__class" data-uid="lnk20" id="link_Argument__class_SwissEphemerisArgument__class"><polygon fill="none" points="123.8371,1470.9956,140.84,1462.5751,132.3871,1454.0575,123.8371,1470.9956" style="stroke:#516F42;stroke-width:1;"/><path d="M136.6136,1458.3163 C157.6293,1437.4605 175.2621,1415.3321 188,1378 C199.2316,1345.0824 181.6818,151.8065 205,126 C214.6827,115.2841 227.2048,108.1207 240.8023,103.4546" fill="none" style="stroke:#516F42;stroke-width:1;"/></g><g class="link" data-entity-1="Flag__class" data-entity-2="SwissEphemerisFlag__class" data-uid="lnk23" id="link_Flag__class_SwissEphemerisFlag__class"><polygon fill="none" points="147.2041,1544.3674,166.1322,1545.6811,163.1348,1534.0615,147.2041,1544.3674" style="stroke:#516F42;stroke-width:1;"/><path d="M164.6335,1539.8713 C180.0927,1535.8835 178.4502,1533.1221 188,1520 C209.9209,1489.8792 181.1515,207.6188 205,179 C218.8808,162.3426 239.5172,153.717 260.8037,149.6066" fill="none" style="stroke:#516F42;stroke-width:1;"/></g><g class="link" data-entity-1="ErrorException__class" data-entity-2="SwissEphemerisError__class" data-uid="lnk35" id="link_ErrorException__class_SwissEphemerisError__class"><polygon fill="none" points="169.084,401,187.084,407,187.084,395,169.084,401" style="stroke:#516F42;stroke-width:1;"/><path d="M187.084,401 C214.6259,401 228.9114,401 258.3915,401" fill="none" style="stroke:#516F42;stroke-width:1;"/></g><g class="link" data-entity-1="Collection__class" data-entity-2="MoonPeriods__class" data-uid="lnk40" id="link_Collection__class_MoonPeriods__class"><polygon fill="none" points="151.6232,1275.2708,170.5349,1276.8027,167.6717,1265.1493,151.6232,1275.2708" style="stroke:#516F42;stroke-width:1;"/><path d="M169.1033,1270.976 C185.9888,1266.8273 187.5279,1266.6491 205,1263 C231.9227,1257.3771 261.8852,1251.9905 287.3613,1247.6668" fill="none" style="stroke:#516F42;stroke-width:1;"/></g><g class="link" data-entity-1="Collection__class" data-entity-2="MoonPhases__class" data-uid="lnk43" id="link_Collection__class_MoonPhases__class"><polygon fill="none" points="151.6806,1288,169.6806,1294,169.6806,1282,151.6806,1288" style="stroke:#516F42;stroke-width:1;"/><path d="M169.6806,1288 C209.3314,1288 246.9753,1288 288.8185,1288" fill="none" style="stroke:#516F42;stroke-width:1;"/></g><g class="link" data-entity-1="Collection__class" data-entity-2="MoonSynodicRhythm__class" data-uid="lnk45" id="link_Collection__class_MoonSynodicRhythm__class"><polygon fill="none" points="151.6232,1300.7292,167.6717,1310.8507,170.5349,1299.1973,151.6232,1300.7292" style="stroke:#516F42;stroke-width:1;"/><path d="M169.1033,1305.024 C185.9888,1309.1727 187.5279,1309.3509 205,1313 C222.2108,1316.5945 240.664,1320.0925 258.3931,1323.278" fill="none" style="stroke:#516F42;stroke-width:1;"/></g><g class="link" data-entity-1="Builder__interface" data-entity-2="FromMoonSynodicRhythm__class" data-uid="lnk53" id="link_Builder__interface_FromMoonSynodicRhythm__class"><polygon fill="none" points="381.4266,846.1345,394.8559,859.5381,400.2122,848.7998,381.4266,846.1345" style="stroke:#516F42;stroke-width:1;"/><path d="M397.534,854.1689 C430.2474,870.4865 466.6345,888.0448 513,908 C538.54,918.9921 567.5726,930.2264 590.9073,938.9541" fill="none" style="stroke:#516F42;stroke-width:1;stroke-dasharray:7,7;"/></g><g class="link" data-entity-1="Builder__interface" data-entity-2="FromMoonSynodicRhythm__class" data-uid="lnk56" id="link_Builder__interface_FromMoonSynodicRhythm__class"><polygon fill="none" points="389.5043,825.6481,408.1709,829.0473,406.4771,817.1675,389.5043,825.6481" style="stroke:#516F42;stroke-width:1;"/><path d="M407.324,823.1074 C432.7088,819.4881 448.091,815.6894 476,805 C493.8661,798.1571 495.2402,790.1145 513,783 C524.5994,778.3534 537.1429,774.3815 549.6213,771.0157" fill="none" style="stroke:#516F42;stroke-width:1;stroke-dasharray:7,7;"/></g><g class="link" data-entity-1="BuilderStrategy__interface" data-entity-2="MoonPhaseStrategy__class" data-uid="lnk59" id="link_BuilderStrategy__interface_MoonPhaseStrategy__class"><polygon fill="none" points="369.2442,763.8157,387.093,757.38,379.6618,747.9578,369.2442,763.8157" style="stroke:#516F42;stroke-width:1;"/><path d="M383.3774,752.6689 C412.7743,729.4836 456.5335,698.4043 513,677 C524.6405,672.5875 537.2687,669.1479 549.8395,666.4667" fill="none" style="stroke:#516F42;stroke-width:1;stroke-dasharray:7,7;"/></g><g class="link" data-entity-1="WithFuzzyCondition__trait" data-entity-2="FirstQuarter__class" data-uid="lnk63" id="link_WithFuzzyCondition__trait_FirstQuarter__class"><polygon fill="#516F42" points="721.5007,1400.2782,731.3479,1400.4576,726.106,1398.3311,728.2325,1393.0892,721.5007,1400.2782" style="stroke:#516F42;stroke-width:1;"/><path d="M727.027,1397.9417 C744.8326,1390.4135 756.0082,1381.8326 767,1366 C776.4428,1352.3986 774.6757,786.3939 777,770 C780.0382,748.5704 813.721,598.2655 828,582 C830.9779,578.6078 834.4901,575.6653 838.2969,573.1148" fill="none" style="stroke:#516F42;stroke-width:1;"/><text fill="#000000" font-family="sans-serif" font-size="13" lengthAdjust="spacing" textLength="29.7832" x="779" y="625.0669">uses</text></g><g class="link" data-entity-1="MoonPhaseStrategy__class" data-entity-2="FirstQuarter__class" data-uid="lnk64" id="link_MoonPhaseStrategy__class_FirstQuarter__class"><polygon fill="none" points="677.3275,640.9333,696.2699,639.8451,691.8286,628.6973,677.3275,640.9333" style="stroke:#516F42;stroke-width:1;"/><path d="M694.0492,634.2712 C740.8886,615.6101 800.976,591.6709 847.7726,573.0269" fill="none" style="stroke:#516F42;stroke-width:1;"/></g><g class="link" data-entity-1="WithFuzzyCondition__trait" data-entity-2="FullMoon__class" data-uid="lnk66" id="link_WithFuzzyCondition__trait_FullMoon__class"><polygon fill="#516F42" points="721.7148,1398.0511,731.5632,1398.1428,726.3025,1396.063,728.3823,1390.8024,721.7148,1398.0511" style="stroke:#516F42;stroke-width:1;"/><path d="M727.2201,1395.6654 C744.3557,1388.24 755.2048,1380.3128 767,1366 C851.9815,1262.8795 881.8856,814.0698 887.1248,723.113" fill="none" style="stroke:#516F42;stroke-width:1;"/><text fill="#000000" font-family="sans-serif" font-size="13" lengthAdjust="spacing" textLength="29.7832" x="779" y="1276.0669">uses</text></g><g class="link" data-entity-1="MoonPhaseStrategy__class" data-entity-2="FullMoon__class" data-uid="lnk67" id="link_MoonPhaseStrategy__class_FullMoon__class"><polygon fill="none" points="722.1583,668.9711,738.9667,677.7732,740.8863,665.9278,722.1583,668.9711" style="stroke:#516F42;stroke-width:1;"/><path d="M739.9265,671.8505 C754.9103,674.2786 752.5587,674.1051 767,677 C791.7222,681.9559 819.002,688.614 841.3917,694.3988" fill="none" style="stroke:#516F42;stroke-width:1;"/></g><g class="link" data-entity-1="WithFuzzyCondition__trait" data-entity-2="NewMoon__class" data-uid="lnk69" id="link_WithFuzzyCondition__trait_NewMoon__class"><polygon fill="#516F42" points="721.6676,1399.2417,731.5156,1399.3713,726.263,1397.2713,728.363,1392.0187,721.6676,1399.2417" style="stroke:#516F42;stroke-width:1;"/><path d="M727.1821,1396.8772 C744.6438,1389.39 755.6366,1381.1155 767,1366 C781.4834,1346.7343 774.7734,1281.9996 777,1258 C791.6381,1100.2196 796.2347,1060.859 810,903 C812.1402,878.4563 813.5125,701.927 828,682 C830.8534,678.0752 834.4411,674.7636 838.4358,671.9698" fill="none" style="stroke:#516F42;stroke-width:1;"/><text fill="#000000" font-family="sans-serif" font-size="13" lengthAdjust="spacing" textLength="29.7832" x="779" y="898.0669">uses</text></g><g class="link" data-entity-1="MoonPhaseStrategy__class" data-entity-2="NewMoon__class" data-uid="lnk70" id="link_MoonPhaseStrategy__class_NewMoon__class"><polygon fill="none" points="722.3274,657,740.3274,663,740.3274,651,722.3274,657" style="stroke:#516F42;stroke-width:1;"/><path d="M740.3274,657 C778.984,657 805.3251,657 838.4011,657" fill="none" style="stroke:#516F42;stroke-width:1;"/></g><g class="link" data-entity-1="WithFuzzyCondition__trait" data-entity-2="ThirdQuarter__class" data-uid="lnk72" id="link_WithFuzzyCondition__trait_ThirdQuarter__class"><polygon fill="#516F42" points="721.7918,1400.1047,731.6394,1400.2621,726.3927,1398.1473,728.5076,1392.9006,721.7918,1400.1047" style="stroke:#516F42;stroke-width:1;"/><path d="M727.3129,1397.7558 C744.9941,1390.2336 756.0462,1381.7113 767,1366 C782.318,1344.0292 772.2699,910.3626 777,884 C784.8937,840.0055 800.0609,832.578 810,789 C817.8089,754.7618 806.8853,660.0607 828,632 C830.5783,628.5735 833.7132,625.6134 837.1827,623.0567" fill="none" style="stroke:#516F42;stroke-width:1;"/><text fill="#000000" font-family="sans-serif" font-size="13" lengthAdjust="spacing" textLength="29.7832" x="779" y="784.0669">uses</text></g><g class="link" data-entity-1="MoonPhaseStrategy__class" data-entity-2="ThirdQuarter__class" data-uid="lnk73" id="link_MoonPhaseStrategy__class_ThirdQuarter__class"><polygon fill="none" points="717.4537,640.9734,736.279,643.3412,733.9346,631.5724,717.4537,640.9734" style="stroke:#516F42;stroke-width:1;"/><path d="M735.1068,637.4568 C770.9547,630.3158 794.8032,625.5651 827.8905,618.974" fill="none" style="stroke:#516F42;stroke-width:1;"/></g><g class="link" data-entity-1="Builder__interface" data-entity-2="FromArray__class" data-uid="lnk76" id="link_Builder__interface_FromArray__class"><polygon fill="none" points="389.7996,837.0577,406.4948,846.0729,408.5648,834.2528,389.7996,837.0577" style="stroke:#516F42;stroke-width:1;"/><path d="M407.5298,840.1628 C458.0996,849.0192 527.194,861.1198 582.7997,870.8581" fill="none" style="stroke:#516F42;stroke-width:1;stroke-dasharray:7,7;"/></g><g class="link" data-entity-1="Builder__interface" data-entity-2="FromRecords__class" data-uid="lnk78" id="link_Builder__interface_FromRecords__class"><polygon fill="none" points="389.7996,830,407.7996,836,407.7996,824,389.7996,830" style="stroke:#516F42;stroke-width:1;"/><path d="M407.7996,830 C455.6027,830 517.802,830 573.4036,830" fill="none" style="stroke:#516F42;stroke-width:1;stroke-dasharray:7,7;"/></g><g class="link" data-entity-1="QueryBuilder__class" data-entity-2="MoonSynodicRhythmTemplate__class" data-uid="lnk85" id="link_QueryBuilder__class_MoonSynodicRhythmTemplate__class"><polygon fill="none" points="410.7469,1496,428.7469,1502,428.7469,1490,410.7469,1496" style="stroke:#516F42;stroke-width:1;"/><path d="M428.7469,1496 C458.5669,1496 477.523,1496 512.7737,1496" fill="none" style="stroke:#516F42;stroke-width:1;"/></g><!--SRC=[vLXPRzGm47xFhp3b1IIG0758226rPLT2uYZTbNY9j7AJsSJW8xATjW7ntx7ZtElj7arBKVlIU6RixviPspFU1vd42SE8uaBa6Ya66dCS88JKJy8pB353XrAAYsD1XKGFNpr_lNpveg_7aIRdH1T7GiOWjp74qSz4Yfp7bV6o_FCRVo2O2HvllNXjlms6Id4iBWXFq19J1K6mNjLgAE6WYmoGa3eLGKfYGC0oNI06x0oa2YWiDT82IPAa6iL4Wk4cUA108uuPg0n7C0Exd3RKmZ086Z7wZ6KaZWLN9A54XE4aIu6190hzjkGHYYXM2XryChFFWSukY5ADpG722darYuMRP_xSEd-2FntKOopF1AzK5OAJbKkwptgDT-yGN6gG75Fq_hrlkMsTw7FyW3NC2OCIqgzgtR0CUAnCz1ov-dzZuUFraTAS4MuM2yDPdcKcXNsVPo3FIGGdKfoRl4h7f2-xwIXuALnbuOk9nr7piMQUZ_jXZDcH16sdfK3fTucp3AI9ic0CyxWVjaEPv0ouBidMWn42DOJpHwo7xbVvOhJ9HMCnd7tzI4qfJagUzkFM8jIWhehtYqnlvew49pndzH40ysrk6hTimx8pNYnAasj3VCrrbkkfa0oxVT8LZ0LoGh6f3UeJKGwZCnuBuXIIoUK9rdQtb1XTmLWWCrFtA4o9BLkv-dhsmnGmjtqyYd51NSWwO4um5eYj8JCDcQkKpMXb-UeKJKph8oUN4MIsW9Tp-g9r9tXRWlKwLvU44jDpVakvxm3xIUuQljEqq2aRKlii13yn1Y8k6RN33It6njfh6ZNgEgNg4gY7eroJcvnH0s_KrcLrbUY8WKwnWbE8JFVRycjb6qA-FwJgezsDOCmABc8IEOE6O4zwztWEakVHNJk9ONYK4sewElFraPi3iZJpQcAa5g23oghaKdql5gt-Tj1dshnw82cwB6hPo6mwXtcGfQaKpB-Zl9fEXWZBADYUqEwiVOFJIBiEZ-HlULplcRlcNBiTH1hNyPaoeaYlNcsz3RWYlJ7VVNjynnZC9IPQzOlcTwBJQVxhLs6cnCGLJ-lOgdonq7Q-hQAFvayUJgTltZnxzXYLYvfosY5pfRUEH1XU0V3qwSu1y-VIl3E8LFfRZgLktwjlKMxiRcRRD2UcW-iEYeT8jyYCu-xwxNWtivDJQdMtcfaAqsLbGE3UP-GBNDnsGYh8CXy3-7kVZdbAPFmFhgykhdlfUeZyc-nSn-zUb-BfSGwbn4NJrvIZ_wYNsUITUosenhzgVASzNFq5fctAvqK6WqUt5UttKyycHBih-u2rP3-yEPXOcps-jj_ybeCikY-khc3_9zyGT-sxipRqlpnhxOvtGOCUXbvtMcV-0W00]--></g></svg>