<svg xmlns="http://www.w3.org/2000/svg" xmlns:xlink="http://www.w3.org/1999/xlink" contentStyleType="text/css" data-diagram-type="CLASS" height="2318px" preserveAspectRatio="none" style="width:1208px;height:2318px;background:#FFFFFF;" version="1.1" viewBox="0 0 1208 2318" width="1208px" zoomAndPan="magnify"><defs/><g><!--cluster MarcoConsiglio--><g class="cluster" data-entity="MarcoConsiglio" data-source-line="15" data-uid="ent0004" id="cluster_MarcoConsiglio"><path d="M207.5,4 L328.9287,4 A3.75,3.75 0 0 1 331.4287,6.5 L338.4287,26.2969 L1198.5,26.2969 A2.5,2.5 0 0 1 1201,28.7969 L1201,2308.5 A2.5,2.5 0 0 1 1198.5,2311 L207.5,2311 A2.5,2.5 0 0 1 205,2308.5 L205,6.5 A2.5,2.5 0 0 1 207.5,4" fill="none" style="stroke:#000000;stroke-width:1.5;"/><line style="stroke:#000000;stroke-width:1.5;" x1="205" x2="338.4287" y1="26.2969" y2="26.2969"/><text fill="#000000" font-family="sans-serif" font-size="14" font-weight="bold" lengthAdjust="spacing" textLength="120.4287" x="209" y="18.9951">MarcoConsiglio</text></g><!--cluster Ephemeris--><g class="cluster" data-entity="Ephemeris" data-source-line="14" data-uid="ent0002" id="cluster_Ephemeris"><path d="M215.5,31 L299.666,31 A3.75,3.75 0 0 1 302.166,33.5 L309.166,53.2969 L1190.5,53.2969 A2.5,2.5 0 0 1 1193,55.7969 L1193,2300.5 A2.5,2.5 0 0 1 1190.5,2303 L215.5,2303 A2.5,2.5 0 0 1 213,2300.5 L213,33.5 A2.5,2.5 0 0 1 215.5,31" fill="none" style="stroke:#000000;stroke-width:1.5;"/><line style="stroke:#000000;stroke-width:1.5;" x1="213" x2="309.166" y1="53.2969" y2="53.2969"/><text fill="#000000" font-family="sans-serif" font-size="14" font-weight="bold" lengthAdjust="spacing" textLength="83.166" x="217" y="45.9951">Ephemeris</text></g><!--cluster Command--><g class="cluster" data-entity="Command" data-source-line="38" data-uid="ent0018" id="cluster_Command"><path d="M235.5,58 L315.0039,58 A3.75,3.75 0 0 1 317.5039,60.5 L324.5039,80.2969 L461.5,80.2969 A2.5,2.5 0 0 1 464,82.7969 L464,172.5 A2.5,2.5 0 0 1 461.5,175 L235.5,175 A2.5,2.5 0 0 1 233,172.5 L233,60.5 A2.5,2.5 0 0 1 235.5,58" fill="none" style="stroke:#000000;stroke-width:1.5;"/><line style="stroke:#000000;stroke-width:1.5;" x1="233" x2="324.5039" y1="80.2969" y2="80.2969"/><text fill="#000000" font-family="sans-serif" font-size="14" font-weight="bold" lengthAdjust="spacing" textLength="78.5039" x="237" y="72.9951">Command</text></g><!--cluster Enums--><g class="cluster" data-entity="Enums" data-source-line="50" data-uid="ent0024" id="cluster_Enums"><path d="M276.5,183 L329.918,183 A3.75,3.75 0 0 1 332.418,185.5 L339.418,205.2969 L949.5,205.2969 A2.5,2.5 0 0 1 952,207.7969 L952,474.5 A2.5,2.5 0 0 1 949.5,477 L276.5,477 A2.5,2.5 0 0 1 274,474.5 L274,185.5 A2.5,2.5 0 0 1 276.5,183" fill="none" style="stroke:#000000;stroke-width:1.5;"/><line style="stroke:#000000;stroke-width:1.5;" x1="274" x2="339.418" y1="205.2969" y2="205.2969"/><text fill="#000000" font-family="sans-serif" font-size="14" font-weight="bold" lengthAdjust="spacing" textLength="52.418" x="278" y="197.9951">Enums</text></g><!--cluster Moon--><g class="cluster" data-entity="Moon" data-source-line="78" data-uid="ent0032" id="cluster_Moon"><path d="M305,210 L349.1348,210 A3.75,3.75 0 0 1 351.6348,212.5 L358.6348,232.2969 L392,232.2969 A2.5,2.5 0 0 1 394.5,234.7969 L394.5,324.5 A2.5,2.5 0 0 1 392,327 L305,327 A2.5,2.5 0 0 1 302.5,324.5 L302.5,212.5 A2.5,2.5 0 0 1 305,210" fill="none" style="stroke:#000000;stroke-width:1.5;"/><line style="stroke:#000000;stroke-width:1.5;" x1="302.5" x2="358.6348" y1="232.2969" y2="232.2969"/><text fill="#000000" font-family="sans-serif" font-size="14" font-weight="bold" lengthAdjust="spacing" textLength="43.1348" x="306.5" y="224.9951">Moon</text></g><!--cluster Exceptions--><g class="cluster" data-entity="Exceptions" data-source-line="88" data-uid="ent0036" id="cluster_Exceptions"><path d="M241,485 L327.8184,485 A3.75,3.75 0 0 1 330.3184,487.5 L337.3184,507.2969 L456,507.2969 A2.5,2.5 0 0 1 458.5,509.7969 L458.5,599.5 A2.5,2.5 0 0 1 456,602 L241,602 A2.5,2.5 0 0 1 238.5,599.5 L238.5,487.5 A2.5,2.5 0 0 1 241,485" fill="none" style="stroke:#000000;stroke-width:1.5;"/><line style="stroke:#000000;stroke-width:1.5;" x1="238.5" x2="337.3184" y1="507.2969" y2="507.2969"/><text fill="#000000" font-family="sans-serif" font-size="14" font-weight="bold" lengthAdjust="spacing" textLength="85.8184" x="242.5" y="499.9951">Exceptions</text></g><!--cluster Records--><g class="cluster" data-entity="Records" data-source-line="99" data-uid="ent0044" id="cluster_Records"><path d="M253.5,610 L317.9512,610 A3.75,3.75 0 0 1 320.4512,612.5 L327.4512,632.2969 L758,632.2969 A2.5,2.5 0 0 1 760.5,634.7969 L760.5,809.5 A2.5,2.5 0 0 1 758,812 L253.5,812 A2.5,2.5 0 0 1 251,809.5 L251,612.5 A2.5,2.5 0 0 1 253.5,610" fill="none" style="stroke:#000000;stroke-width:1.5;"/><line style="stroke:#000000;stroke-width:1.5;" x1="251" x2="327.4512" y1="632.2969" y2="632.2969"/><text fill="#000000" font-family="sans-serif" font-size="14" font-weight="bold" lengthAdjust="spacing" textLength="63.4512" x="255" y="624.9951">Records</text></g><!--cluster Moon--><g class="cluster" data-entity="Moon" data-source-line="98" data-uid="ent0042" id="cluster_Moon"><path d="M261.5,637 L305.6348,637 A3.75,3.75 0 0 1 308.1348,639.5 L315.1348,659.2969 L750,659.2969 A2.5,2.5 0 0 1 752.5,661.7969 L752.5,801.5 A2.5,2.5 0 0 1 750,804 L261.5,804 A2.5,2.5 0 0 1 259,801.5 L259,639.5 A2.5,2.5 0 0 1 261.5,637" fill="none" style="stroke:#000000;stroke-width:1.5;"/><line style="stroke:#000000;stroke-width:1.5;" x1="259" x2="315.1348" y1="659.2969" y2="659.2969"/><text fill="#000000" font-family="sans-serif" font-size="14" font-weight="bold" lengthAdjust="spacing" textLength="43.1348" x="263" y="651.9951">Moon</text></g><!--cluster Rhythms--><g class="cluster" data-entity="Rhythms" data-source-line="119" data-uid="ent0052" id="cluster_Rhythms"><path d="M251,820 L321.4531,820 A3.75,3.75 0 0 1 323.9531,822.5 L330.9531,842.2969 L1182.5,842.2969 A2.5,2.5 0 0 1 1185,844.7969 L1185,1909.5 A2.5,2.5 0 0 1 1182.5,1912 L251,1912 A2.5,2.5 0 0 1 248.5,1909.5 L248.5,822.5 A2.5,2.5 0 0 1 251,820" fill="none" style="stroke:#000000;stroke-width:1.5;"/><line style="stroke:#000000;stroke-width:1.5;" x1="248.5" x2="330.9531" y1="842.2969" y2="842.2969"/><text fill="#000000" font-family="sans-serif" font-size="14" font-weight="bold" lengthAdjust="spacing" textLength="69.4531" x="252.5" y="834.9951">Rhythms</text></g><!--cluster Builders--><g class="cluster" data-entity="Builders" data-source-line="119" data-uid="ent0053" id="cluster_Builders"><path d="M264.5,847 L330.4893,847 A3.75,3.75 0 0 1 332.9893,849.5 L339.9893,869.2969 L1174.5,869.2969 A2.5,2.5 0 0 1 1177,871.7969 L1177,1626.5 A2.5,2.5 0 0 1 1174.5,1629 L264.5,1629 A2.5,2.5 0 0 1 262,1626.5 L262,849.5 A2.5,2.5 0 0 1 264.5,847" fill="none" style="stroke:#000000;stroke-width:1.5;"/><line style="stroke:#000000;stroke-width:1.5;" x1="262" x2="339.9893" y1="869.2969" y2="869.2969"/><text fill="#000000" font-family="sans-serif" font-size="14" font-weight="bold" lengthAdjust="spacing" textLength="64.9893" x="266" y="861.9951">Builders</text></g><!--cluster Interfaces--><g class="cluster" data-entity="Interfaces" data-source-line="118" data-uid="ent0050" id="cluster_Interfaces"><path d="M272.5,1278 L353.4326,1278 A3.75,3.75 0 0 1 355.9326,1280.5 L362.9326,1300.2969 L424.5,1300.2969 A2.5,2.5 0 0 1 427,1302.7969 L427,1392.5 A2.5,2.5 0 0 1 424.5,1395 L272.5,1395 A2.5,2.5 0 0 1 270,1392.5 L270,1280.5 A2.5,2.5 0 0 1 272.5,1278" fill="none" style="stroke:#000000;stroke-width:1.5;"/><line style="stroke:#000000;stroke-width:1.5;" x1="270" x2="362.9326" y1="1300.2969" y2="1300.2969"/><text fill="#000000" font-family="sans-serif" font-size="14" font-weight="bold" lengthAdjust="spacing" textLength="79.9326" x="274" y="1292.9951">Interfaces</text></g><!--cluster Moon--><g class="cluster" data-entity="Moon" data-source-line="131" data-uid="ent0059" id="cluster_Moon"><path d="M788.5,1244 L832.6348,1244 A3.75,3.75 0 0 1 835.1348,1246.5 L842.1348,1266.2969 L993.5,1266.2969 A2.5,2.5 0 0 1 996,1268.7969 L996,1618.5 A2.5,2.5 0 0 1 993.5,1621 L788.5,1621 A2.5,2.5 0 0 1 786,1618.5 L786,1246.5 A2.5,2.5 0 0 1 788.5,1244" fill="none" style="stroke:#000000;stroke-width:1.5;"/><line style="stroke:#000000;stroke-width:1.5;" x1="786" x2="842.1348" y1="1266.2969" y2="1266.2969"/><text fill="#000000" font-family="sans-serif" font-size="14" font-weight="bold" lengthAdjust="spacing" textLength="43.1348" x="790" y="1258.9951">Moon</text></g><!--cluster Apogees--><g class="cluster" data-entity="Apogees" data-source-line="130" data-uid="ent0057" id="cluster_Apogees"><path d="M832.5,1546 L901.3193,1546 A3.75,3.75 0 0 1 903.8193,1548.5 L910.8193,1568.2969 L949.5,1568.2969 A2.5,2.5 0 0 1 952,1570.7969 L952,1610.5 A2.5,2.5 0 0 1 949.5,1613 L832.5,1613 A2.5,2.5 0 0 1 830,1610.5 L830,1548.5 A2.5,2.5 0 0 1 832.5,1546" fill="none" style="stroke:#000000;stroke-width:1.5;"/><line style="stroke:#000000;stroke-width:1.5;" x1="830" x2="910.8193" y1="1568.2969" y2="1568.2969"/><text fill="#000000" font-family="sans-serif" font-size="14" font-weight="bold" lengthAdjust="spacing" textLength="67.8193" x="834" y="1560.9951">Apogees</text></g><!--cluster Periods--><g class="cluster" data-entity="Periods" data-source-line="134" data-uid="ent0061" id="cluster_Periods"><path d="M796.5,1346 L856.9316,1346 A3.75,3.75 0 0 1 859.4316,1348.5 L866.4316,1368.2969 L985.5,1368.2969 A2.5,2.5 0 0 1 988,1370.7969 L988,1410.5 A2.5,2.5 0 0 1 985.5,1413 L796.5,1413 A2.5,2.5 0 0 1 794,1410.5 L794,1348.5 A2.5,2.5 0 0 1 796.5,1346" fill="none" style="stroke:#000000;stroke-width:1.5;"/><line style="stroke:#000000;stroke-width:1.5;" x1="794" x2="866.4316" y1="1368.2969" y2="1368.2969"/><text fill="#000000" font-family="sans-serif" font-size="14" font-weight="bold" lengthAdjust="spacing" textLength="59.4316" x="798" y="1360.9951">Periods</text></g><!--cluster Phases--><g class="cluster" data-entity="Phases" data-source-line="138" data-uid="ent0064" id="cluster_Phases"><path d="M796.5,1271 L853.3359,1271 A3.75,3.75 0 0 1 855.8359,1273.5 L862.8359,1293.2969 L985.5,1293.2969 A2.5,2.5 0 0 1 988,1295.7969 L988,1335.5 A2.5,2.5 0 0 1 985.5,1338 L796.5,1338 A2.5,2.5 0 0 1 794,1335.5 L794,1273.5 A2.5,2.5 0 0 1 796.5,1271" fill="none" style="stroke:#000000;stroke-width:1.5;"/><line style="stroke:#000000;stroke-width:1.5;" x1="794" x2="862.8359" y1="1293.2969" y2="1293.2969"/><text fill="#000000" font-family="sans-serif" font-size="14" font-weight="bold" lengthAdjust="spacing" textLength="55.8359" x="798" y="1285.9951">Phases</text></g><!--cluster SynodicRhythm--><g class="cluster" data-entity="SynodicRhythm" data-source-line="142" data-uid="ent0067" id="cluster_SynodicRhythm"><path d="M823,1421 L947.0332,1421 A3.75,3.75 0 0 1 949.5332,1423.5 L956.5332,1443.2969 L959,1443.2969 A2.5,2.5 0 0 1 961.5,1445.7969 L961.5,1535.5 A2.5,2.5 0 0 1 959,1538 L823,1538 A2.5,2.5 0 0 1 820.5,1535.5 L820.5,1423.5 A2.5,2.5 0 0 1 823,1421" fill="none" style="stroke:#000000;stroke-width:1.5;"/><line style="stroke:#000000;stroke-width:1.5;" x1="820.5" x2="956.5332" y1="1443.2969" y2="1443.2969"/><text fill="#000000" font-family="sans-serif" font-size="14" font-weight="bold" lengthAdjust="spacing" textLength="123.0332" x="824.5" y="1435.9951">SynodicRhythm</text></g><!--cluster Strategies--><g class="cluster" data-entity="Strategies" data-source-line="154" data-uid="ent0075" id="cluster_Strategies"><path d="M597.5,874 L680.4629,874 A3.75,3.75 0 0 1 682.9629,876.5 L689.9629,896.2969 L1166.5,896.2969 A2.5,2.5 0 0 1 1169,898.7969 L1169,1233.5 A2.5,2.5 0 0 1 1166.5,1236 L597.5,1236 A2.5,2.5 0 0 1 595,1233.5 L595,876.5 A2.5,2.5 0 0 1 597.5,874" fill="none" style="stroke:#000000;stroke-width:1.5;"/><line style="stroke:#000000;stroke-width:1.5;" x1="595" x2="689.9629" y1="896.2969" y2="896.2969"/><text fill="#000000" font-family="sans-serif" font-size="14" font-weight="bold" lengthAdjust="spacing" textLength="81.9629" x="599" y="888.9951">Strategies</text></g><!--cluster Moon--><g class="cluster" data-entity="Moon" data-source-line="160" data-uid="ent0080" id="cluster_Moon"><path d="M791,901 L835.1348,901 A3.75,3.75 0 0 1 837.6348,903.5 L844.6348,923.2969 L1158.5,923.2969 A2.5,2.5 0 0 1 1161,925.7969 L1161,1225.5 A2.5,2.5 0 0 1 1158.5,1228 L791,1228 A2.5,2.5 0 0 1 788.5,1225.5 L788.5,903.5 A2.5,2.5 0 0 1 791,901" fill="none" style="stroke:#000000;stroke-width:1.5;"/><line style="stroke:#000000;stroke-width:1.5;" x1="788.5" x2="844.6348" y1="923.2969" y2="923.2969"/><text fill="#000000" font-family="sans-serif" font-size="14" font-weight="bold" lengthAdjust="spacing" textLength="43.1348" x="792.5" y="915.9951">Moon</text></g><!--cluster Anomalies--><g class="cluster" data-entity="Anomalies" data-source-line="159" data-uid="ent0078" id="cluster_Anomalies"><path d="M799,1153 L881.8809,1153 A3.75,3.75 0 0 1 884.3809,1155.5 L891.3809,1175.2969 L1132,1175.2969 A2.5,2.5 0 0 1 1134.5,1177.7969 L1134.5,1217.5 A2.5,2.5 0 0 1 1132,1220 L799,1220 A2.5,2.5 0 0 1 796.5,1217.5 L796.5,1155.5 A2.5,2.5 0 0 1 799,1153" fill="none" style="stroke:#000000;stroke-width:1.5;"/><line style="stroke:#000000;stroke-width:1.5;" x1="796.5" x2="891.3809" y1="1175.2969" y2="1175.2969"/><text fill="#000000" font-family="sans-serif" font-size="14" font-weight="bold" lengthAdjust="spacing" textLength="81.8809" x="800.5" y="1167.9951">Anomalies</text></g><!--cluster Phases--><g class="cluster" data-entity="Phases" data-source-line="167" data-uid="ent0084" id="cluster_Phases"><path d="M818.5,928 L875.3359,928 A3.75,3.75 0 0 1 877.8359,930.5 L884.8359,950.2969 L1150.5,950.2969 A2.5,2.5 0 0 1 1153,952.7969 L1153,1142.5 A2.5,2.5 0 0 1 1150.5,1145 L818.5,1145 A2.5,2.5 0 0 1 816,1142.5 L816,930.5 A2.5,2.5 0 0 1 818.5,928" fill="none" style="stroke:#000000;stroke-width:1.5;"/><line style="stroke:#000000;stroke-width:1.5;" x1="816" x2="884.8359" y1="950.2969" y2="950.2969"/><text fill="#000000" font-family="sans-serif" font-size="14" font-weight="bold" lengthAdjust="spacing" textLength="55.8359" x="820" y="942.9951">Phases</text></g><!--cluster Moon--><g class="cluster" data-entity="Moon" data-source-line="191" data-uid="ent0096" id="cluster_Moon"><path d="M259,1637 L303.1348,1637 A3.75,3.75 0 0 1 305.6348,1639.5 L312.6348,1659.2969 L438,1659.2969 A2.5,2.5 0 0 1 440.5,1661.7969 L440.5,1901.5 A2.5,2.5 0 0 1 438,1904 L259,1904 A2.5,2.5 0 0 1 256.5,1901.5 L256.5,1639.5 A2.5,2.5 0 0 1 259,1637" fill="none" style="stroke:#000000;stroke-width:1.5;"/><line style="stroke:#000000;stroke-width:1.5;" x1="256.5" x2="312.6348" y1="1659.2969" y2="1659.2969"/><text fill="#000000" font-family="sans-serif" font-size="14" font-weight="bold" lengthAdjust="spacing" textLength="43.1348" x="260.5" y="1651.9951">Moon</text></g><!--cluster Traits--><g class="cluster" data-entity="Traits" data-source-line="150" data-uid="ent0072" id="cluster_Traits"><path d="M257.5,1920 L304.2256,1920 A3.75,3.75 0 0 1 306.7256,1922.5 L313.7256,1942.2969 L439.5,1942.2969 A2.5,2.5 0 0 1 442,1944.7969 L442,1992.5 A2.5,2.5 0 0 1 439.5,1995 L257.5,1995 A2.5,2.5 0 0 1 255,1992.5 L255,1922.5 A2.5,2.5 0 0 1 257.5,1920" fill="none" style="stroke:#000000;stroke-width:1.5;"/><line style="stroke:#000000;stroke-width:1.5;" x1="255" x2="313.7256" y1="1942.2969" y2="1942.2969"/><text fill="#000000" font-family="sans-serif" font-size="14" font-weight="bold" lengthAdjust="spacing" textLength="45.7256" x="259" y="1934.9951">Traits</text></g><!--cluster Templates--><g class="cluster" data-entity="Templates" data-source-line="211" data-uid="ent0107" id="cluster_Templates"><path d="M272.5,2003 L355.9209,2003 A3.75,3.75 0 0 1 358.4209,2005.5 L365.4209,2025.2969 L766.5,2025.2969 A2.5,2.5 0 0 1 769,2027.7969 L769,2152.5 A2.5,2.5 0 0 1 766.5,2155 L272.5,2155 A2.5,2.5 0 0 1 270,2152.5 L270,2005.5 A2.5,2.5 0 0 1 272.5,2003" fill="none" style="stroke:#000000;stroke-width:1.5;"/><line style="stroke:#000000;stroke-width:1.5;" x1="270" x2="365.4209" y1="2025.2969" y2="2025.2969"/><text fill="#000000" font-family="sans-serif" font-size="14" font-weight="bold" lengthAdjust="spacing" textLength="82.4209" x="274" y="2017.9951">Templates</text></g><!--cluster Moon--><g class="cluster" data-entity="Moon" data-source-line="215" data-uid="ent0109" id="cluster_Moon"><path d="M539.5,2030 L583.6348,2030 A3.75,3.75 0 0 1 586.1348,2032.5 L593.1348,2052.2969 L758.5,2052.2969 A2.5,2.5 0 0 1 761,2054.7969 L761,2144.5 A2.5,2.5 0 0 1 758.5,2147 L539.5,2147 A2.5,2.5 0 0 1 537,2144.5 L537,2032.5 A2.5,2.5 0 0 1 539.5,2030" fill="none" style="stroke:#000000;stroke-width:1.5;"/><line style="stroke:#000000;stroke-width:1.5;" x1="537" x2="593.1348" y1="2052.2969" y2="2052.2969"/><text fill="#000000" font-family="sans-serif" font-size="14" font-weight="bold" lengthAdjust="spacing" textLength="43.1348" x="541" y="2044.9951">Moon</text></g><!--cluster Carbon--><g class="cluster" data-entity="Carbon" data-source-line="18" data-uid="ent0005" id="cluster_Carbon"><path d="M49.5,1623 L106.7324,1623 A3.75,3.75 0 0 1 109.2324,1625.5 L116.2324,1645.2969 L152.5,1645.2969 A2.5,2.5 0 0 1 155,1647.7969 L155,1695.5 A2.5,2.5 0 0 1 152.5,1698 L49.5,1698 A2.5,2.5 0 0 1 47,1695.5 L47,1625.5 A2.5,2.5 0 0 1 49.5,1623" fill="none" style="stroke:#000000;stroke-width:1.5;"/><line style="stroke:#000000;stroke-width:1.5;" x1="47" x2="116.2324" y1="1645.2969" y2="1645.2969"/><text fill="#000000" font-family="sans-serif" font-size="14" font-weight="bold" lengthAdjust="spacing" textLength="56.2324" x="51" y="1637.9951">Carbon</text></g><!--cluster Illuminate--><g class="cluster" data-entity="Illuminate" data-source-line="27" data-uid="ent0011" id="cluster_Illuminate"><path d="M16.5,1706 L97.2617,1706 A3.75,3.75 0 0 1 99.7617,1708.5 L106.7617,1728.2969 L185.5,1728.2969 A2.5,2.5 0 0 1 188,1730.7969 L188,1871.5 A2.5,2.5 0 0 1 185.5,1874 L16.5,1874 A2.5,2.5 0 0 1 14,1871.5 L14,1708.5 A2.5,2.5 0 0 1 16.5,1706" fill="none" style="stroke:#000000;stroke-width:1.5;"/><line style="stroke:#000000;stroke-width:1.5;" x1="14" x2="106.7617" y1="1728.2969" y2="1728.2969"/><text fill="#000000" font-family="sans-serif" font-size="14" font-weight="bold" lengthAdjust="spacing" textLength="79.7617" x="18" y="1720.9951">Illuminate</text></g><!--cluster Support--><g class="cluster" data-entity="Support" data-source-line="26" data-uid="ent0009" id="cluster_Support"><path d="M24.5,1733 L88.8076,1733 A3.75,3.75 0 0 1 91.3076,1735.5 L98.3076,1755.2969 L177.5,1755.2969 A2.5,2.5 0 0 1 180,1757.7969 L180,1863.5 A2.5,2.5 0 0 1 177.5,1866 L24.5,1866 A2.5,2.5 0 0 1 22,1863.5 L22,1735.5 A2.5,2.5 0 0 1 24.5,1733" fill="none" style="stroke:#000000;stroke-width:1.5;"/><line style="stroke:#000000;stroke-width:1.5;" x1="22" x2="98.3076" y1="1755.2969" y2="1755.2969"/><text fill="#000000" font-family="sans-serif" font-size="14" font-weight="bold" lengthAdjust="spacing" textLength="63.3076" x="26" y="1747.9951">Support</text></g><!--cluster AdamBrett--><g class="cluster" data-entity="AdamBrett" data-source-line="35" data-uid="ent0016" id="cluster_AdamBrett"><path d="M28.5,1882 L114.8467,1882 A3.75,3.75 0 0 1 117.3467,1884.5 L124.3467,1904.2969 L173.5,1904.2969 A2.5,2.5 0 0 1 176,1906.7969 L176,2082.5 A2.5,2.5 0 0 1 173.5,2085 L28.5,2085 A2.5,2.5 0 0 1 26,2082.5 L26,1884.5 A2.5,2.5 0 0 1 28.5,1882" fill="none" style="stroke:#000000;stroke-width:1.5;"/><line style="stroke:#000000;stroke-width:1.5;" x1="26" x2="124.3467" y1="1904.2969" y2="1904.2969"/><text fill="#000000" font-family="sans-serif" font-size="14" font-weight="bold" lengthAdjust="spacing" textLength="85.3467" x="30" y="1896.9951">AdamBrett</text></g><!--cluster ShellWrapper--><g class="cluster" data-entity="ShellWrapper" data-source-line="35" data-uid="ent0017" id="cluster_ShellWrapper"><path d="M36.5,1909 L144.8789,1909 A3.75,3.75 0 0 1 147.3789,1911.5 L154.3789,1931.2969 L165.5,1931.2969 A2.5,2.5 0 0 1 168,1933.7969 L168,2074.5 A2.5,2.5 0 0 1 165.5,2077 L36.5,2077 A2.5,2.5 0 0 1 34,2074.5 L34,1911.5 A2.5,2.5 0 0 1 36.5,1909" fill="none" style="stroke:#000000;stroke-width:1.5;"/><line style="stroke:#000000;stroke-width:1.5;" x1="34" x2="154.3789" y1="1931.2969" y2="1931.2969"/><text fill="#000000" font-family="sans-serif" font-size="14" font-weight="bold" lengthAdjust="spacing" textLength="107.3789" x="38" y="1923.9951">ShellWrapper</text></g><!--cluster Command--><g class="cluster" data-entity="Command" data-source-line="34" data-uid="ent0014" id="cluster_Command"><path d="M44.5,1936 L124.0039,1936 A3.75,3.75 0 0 1 126.5039,1938.5 L133.5039,1958.2969 L157.5,1958.2969 A2.5,2.5 0 0 1 160,1960.7969 L160,2066.5 A2.5,2.5 0 0 1 157.5,2069 L44.5,2069 A2.5,2.5 0 0 1 42,2066.5 L42,1938.5 A2.5,2.5 0 0 1 44.5,1936" fill="none" style="stroke:#000000;stroke-width:1.5;"/><line style="stroke:#000000;stroke-width:1.5;" x1="42" x2="133.5039" y1="1958.2969" y2="1958.2969"/><text fill="#000000" font-family="sans-serif" font-size="14" font-weight="bold" lengthAdjust="spacing" textLength="78.5039" x="46" y="1950.9951">Command</text></g><!--class ErrorException__class--><g class="entity" data-entity="ErrorException__class" data-source-line="86" data-uid="ent0035" id="entity_ErrorException__class"><rect fill="#F1F1F1" height="40.2656" rx="2.5" ry="2.5" style="stroke:#181818;stroke-width:0.5;" width="135.8242" x="33" y="504"/><ellipse cx="48" cy="524.1328" fill="#ADD1B2" rx="11" ry="11" style="stroke:#181818;stroke-width:1;"/><path d="M50.9688,529.7734 Q50.3906,530.0703 49.75,530.2109 Q49.1094,530.3672 48.4063,530.3672 Q45.9063,530.3672 44.5781,528.7266 Q43.2656,527.0703 43.2656,523.9453 Q43.2656,520.8203 44.5781,519.1641 Q45.9063,517.5078 48.4063,517.5078 Q49.1094,517.5078 49.75,517.6641 Q50.4063,517.8203 50.9688,518.1172 L50.9688,520.8359 Q50.3438,520.2578 49.75,519.9922 Q49.1563,519.7109 48.5313,519.7109 Q47.1875,519.7109 46.5,520.7891 Q45.8125,521.8516 45.8125,523.9453 Q45.8125,526.0391 46.5,527.1172 Q47.1875,528.1797 48.5313,528.1797 Q49.1563,528.1797 49.75,527.9141 Q50.3438,527.6328 50.9688,527.0547 L50.9688,529.7734 Z " fill="#000000"/><text fill="#000000" font-family="sans-serif" font-size="12" font-style="italic" lengthAdjust="spacing" textLength="64.4824" x="81.6709" y="520.1387">&#171;external&#187;</text><text fill="#000000" font-family="sans-serif" font-size="14" lengthAdjust="spacing" textLength="103.8242" x="62" y="535.9639">ErrorException</text></g><!--class Exception__class--><g class="entity" data-entity="Exception__class" data-source-line="92" data-uid="ent0039" id="entity_Exception__class"><rect fill="#F1F1F1" height="40.2656" rx="2.5" ry="2.5" style="stroke:#181818;stroke-width:0.5;" width="101.1455" x="50.5" y="562"/><ellipse cx="65.5" cy="582.1328" fill="#ADD1B2" rx="11" ry="11" style="stroke:#181818;stroke-width:1;"/><path d="M68.4688,587.7734 Q67.8906,588.0703 67.25,588.2109 Q66.6094,588.3672 65.9063,588.3672 Q63.4063,588.3672 62.0781,586.7266 Q60.7656,585.0703 60.7656,581.9453 Q60.7656,578.8203 62.0781,577.1641 Q63.4063,575.5078 65.9063,575.5078 Q66.6094,575.5078 67.25,575.6641 Q67.9063,575.8203 68.4688,576.1172 L68.4688,578.8359 Q67.8438,578.2578 67.25,577.9922 Q66.6563,577.7109 66.0313,577.7109 Q64.6875,577.7109 64,578.7891 Q63.3125,579.8516 63.3125,581.9453 Q63.3125,584.0391 64,585.1172 Q64.6875,586.1797 66.0313,586.1797 Q66.6563,586.1797 67.25,585.9141 Q67.8438,585.6328 68.4688,585.0547 L68.4688,587.7734 Z " fill="#000000"/><text fill="#000000" font-family="sans-serif" font-size="12" font-style="italic" lengthAdjust="spacing" textLength="64.4824" x="81.8315" y="578.1387">&#171;external&#187;</text><text fill="#000000" font-family="sans-serif" font-size="14" lengthAdjust="spacing" textLength="69.1455" x="79.5" y="593.9639">Exception</text></g><!--class LaravelSwissEphemeris__class--><g class="entity" data-entity="LaravelSwissEphemeris__class" data-source-line="15" data-uid="ent0003" id="entity_LaravelSwissEphemeris__class"><rect fill="#F1F1F1" height="32" rx="2.5" ry="2.5" style="stroke:#181818;stroke-width:0.5;" width="196.7256" x="250" y="2163"/><ellipse cx="265" cy="2179" fill="#ADD1B2" rx="11" ry="11" style="stroke:#181818;stroke-width:1;"/><path d="M267.9688,2184.6406 Q267.3906,2184.9375 266.75,2185.0781 Q266.1094,2185.2344 265.4063,2185.2344 Q262.9063,2185.2344 261.5781,2183.5938 Q260.2656,2181.9375 260.2656,2178.8125 Q260.2656,2175.6875 261.5781,2174.0313 Q262.9063,2172.375 265.4063,2172.375 Q266.1094,2172.375 266.75,2172.5313 Q267.4063,2172.6875 267.9688,2172.9844 L267.9688,2175.7031 Q267.3438,2175.125 266.75,2174.8594 Q266.1563,2174.5781 265.5313,2174.5781 Q264.1875,2174.5781 263.5,2175.6563 Q262.8125,2176.7188 262.8125,2178.8125 Q262.8125,2180.9063 263.5,2181.9844 Q264.1875,2183.0469 265.5313,2183.0469 Q266.1563,2183.0469 266.75,2182.7813 Q267.3438,2182.5 267.9688,2181.9219 L267.9688,2184.6406 Z " fill="#000000"/><text fill="#000000" font-family="sans-serif" font-size="14" lengthAdjust="spacing" textLength="164.7256" x="279" y="2183.8467">LaravelSwissEphemeris</text></g><!--class SwissEphemerisDateTime__class--><g class="entity" data-entity="SwissEphemerisDateTime__class" data-source-line="23" data-uid="ent0007" id="entity_SwissEphemerisDateTime__class"><rect fill="#F1F1F1" height="32" rx="2.5" ry="2.5" style="stroke:#181818;stroke-width:0.5;" width="213.3779" x="242" y="2213"/><ellipse cx="257" cy="2229" fill="#ADD1B2" rx="11" ry="11" style="stroke:#181818;stroke-width:1;"/><path d="M259.9688,2234.6406 Q259.3906,2234.9375 258.75,2235.0781 Q258.1094,2235.2344 257.4063,2235.2344 Q254.9063,2235.2344 253.5781,2233.5938 Q252.2656,2231.9375 252.2656,2228.8125 Q252.2656,2225.6875 253.5781,2224.0313 Q254.9063,2222.375 257.4063,2222.375 Q258.1094,2222.375 258.75,2222.5313 Q259.4063,2222.6875 259.9688,2222.9844 L259.9688,2225.7031 Q259.3438,2225.125 258.75,2224.8594 Q258.1563,2224.5781 257.5313,2224.5781 Q256.1875,2224.5781 255.5,2225.6563 Q254.8125,2226.7188 254.8125,2228.8125 Q254.8125,2230.9063 255.5,2231.9844 Q256.1875,2233.0469 257.5313,2233.0469 Q258.1563,2233.0469 258.75,2232.7813 Q259.3438,2232.5 259.9688,2231.9219 L259.9688,2234.6406 Z " fill="#000000"/><text fill="#000000" font-family="sans-serif" font-size="14" lengthAdjust="spacing" textLength="181.3779" x="271" y="2233.8467">SwissEphemerisDateTime</text></g><!--class SwissEphemerisServiceProvider__class--><g class="entity" data-entity="SwissEphemerisServiceProvider__class" data-source-line="31" data-uid="ent0012" id="entity_SwissEphemerisServiceProvider__class"><rect fill="#F1F1F1" height="32" rx="2.5" ry="2.5" style="stroke:#181818;stroke-width:0.5;" width="255.1592" x="221" y="2263"/><ellipse cx="236" cy="2279" fill="#ADD1B2" rx="11" ry="11" style="stroke:#181818;stroke-width:1;"/><path d="M238.9688,2284.6406 Q238.3906,2284.9375 237.75,2285.0781 Q237.1094,2285.2344 236.4063,2285.2344 Q233.9063,2285.2344 232.5781,2283.5938 Q231.2656,2281.9375 231.2656,2278.8125 Q231.2656,2275.6875 232.5781,2274.0313 Q233.9063,2272.375 236.4063,2272.375 Q237.1094,2272.375 237.75,2272.5313 Q238.4063,2272.6875 238.9688,2272.9844 L238.9688,2275.7031 Q238.3438,2275.125 237.75,2274.8594 Q237.1563,2274.5781 236.5313,2274.5781 Q235.1875,2274.5781 234.5,2275.6563 Q233.8125,2276.7188 233.8125,2278.8125 Q233.8125,2280.9063 234.5,2281.9844 Q235.1875,2283.0469 236.5313,2283.0469 Q237.1563,2283.0469 237.75,2282.7813 Q238.3438,2282.5 238.9688,2281.9219 L238.9688,2284.6406 Z " fill="#000000"/><text fill="#000000" font-family="sans-serif" font-size="14" lengthAdjust="spacing" textLength="223.1592" x="250" y="2283.8467">SwissEphemerisServiceProvider</text></g><!--class SwissEphemerisArgument__class--><g class="entity" data-entity="SwissEphemerisArgument__class" data-source-line="39" data-uid="ent0019" id="entity_SwissEphemerisArgument__class"><rect fill="#F1F1F1" height="32" rx="2.5" ry="2.5" style="stroke:#181818;stroke-width:0.5;" width="214.9297" x="241" y="85"/><ellipse cx="256" cy="101" fill="#ADD1B2" rx="11" ry="11" style="stroke:#181818;stroke-width:1;"/><path d="M258.9688,106.6406 Q258.3906,106.9375 257.75,107.0781 Q257.1094,107.2344 256.4063,107.2344 Q253.9063,107.2344 252.5781,105.5938 Q251.2656,103.9375 251.2656,100.8125 Q251.2656,97.6875 252.5781,96.0313 Q253.9063,94.375 256.4063,94.375 Q257.1094,94.375 257.75,94.5313 Q258.4063,94.6875 258.9688,94.9844 L258.9688,97.7031 Q258.3438,97.125 257.75,96.8594 Q257.1563,96.5781 256.5313,96.5781 Q255.1875,96.5781 254.5,97.6563 Q253.8125,98.7188 253.8125,100.8125 Q253.8125,102.9063 254.5,103.9844 Q255.1875,105.0469 256.5313,105.0469 Q257.1563,105.0469 257.75,104.7813 Q258.3438,104.5 258.9688,103.9219 L258.9688,106.6406 Z " fill="#000000"/><text fill="#000000" font-family="sans-serif" font-size="14" lengthAdjust="spacing" textLength="182.9297" x="270" y="105.8467">SwissEphemerisArgument</text></g><!--class SwissEphemerisFlag__class--><g class="entity" data-entity="SwissEphemerisFlag__class" data-source-line="47" data-uid="ent0022" id="entity_SwissEphemerisFlag__class"><rect fill="#F1F1F1" height="32" rx="2.5" ry="2.5" style="stroke:#181818;stroke-width:0.5;" width="174.6318" x="261" y="135"/><ellipse cx="276" cy="151" fill="#ADD1B2" rx="11" ry="11" style="stroke:#181818;stroke-width:1;"/><path d="M278.9688,156.6406 Q278.3906,156.9375 277.75,157.0781 Q277.1094,157.2344 276.4063,157.2344 Q273.9063,157.2344 272.5781,155.5938 Q271.2656,153.9375 271.2656,150.8125 Q271.2656,147.6875 272.5781,146.0313 Q273.9063,144.375 276.4063,144.375 Q277.1094,144.375 277.75,144.5313 Q278.4063,144.6875 278.9688,144.9844 L278.9688,147.7031 Q278.3438,147.125 277.75,146.8594 Q277.1563,146.5781 276.5313,146.5781 Q275.1875,146.5781 274.5,147.6563 Q273.8125,148.7188 273.8125,150.8125 Q273.8125,152.9063 274.5,153.9844 Q275.1875,155.0469 276.5313,155.0469 Q277.1563,155.0469 277.75,154.7813 Q278.3438,154.5 278.9688,153.9219 L278.9688,156.6406 Z " fill="#000000"/><text fill="#000000" font-family="sans-serif" font-size="14" lengthAdjust="spacing" textLength="142.6318" x="290" y="155.8467">SwissEphemerisFlag</text></g><!--class CommandFlag__enum--><g class="entity" data-entity="CommandFlag__enum" data-source-line="51" data-uid="ent0025" id="entity_CommandFlag__enum"><rect fill="#F1F1F1" height="32" rx="2.5" ry="2.5" style="stroke:#181818;stroke-width:0.5;" width="133.3633" x="282" y="437"/><ellipse cx="297" cy="453" fill="#EB937F" rx="11" ry="11" style="stroke:#181818;stroke-width:1;"/><path d="M301.1094,459 L293.3906,459 L293.3906,446.6094 L301.1094,446.6094 L301.1094,448.7656 L295.8438,448.7656 L295.8438,451.4375 L300.6094,451.4375 L300.6094,453.5938 L295.8438,453.5938 L295.8438,456.8438 L301.1094,456.8438 L301.1094,459 Z " fill="#000000"/><text fill="#000000" font-family="sans-serif" font-size="14" lengthAdjust="spacing" textLength="101.3633" x="311" y="457.8467">CommandFlag</text></g><!--class OutputFormat__enum--><g class="entity" data-entity="OutputFormat__enum" data-source-line="55" data-uid="ent0026" id="entity_OutputFormat__enum"><rect fill="#F1F1F1" height="32" rx="2.5" ry="2.5" style="stroke:#181818;stroke-width:0.5;" width="130.7109" x="283" y="387"/><ellipse cx="298" cy="403" fill="#EB937F" rx="11" ry="11" style="stroke:#181818;stroke-width:1;"/><path d="M302.1094,409 L294.3906,409 L294.3906,396.6094 L302.1094,396.6094 L302.1094,398.7656 L296.8438,398.7656 L296.8438,401.4375 L301.6094,401.4375 L301.6094,403.5938 L296.8438,403.5938 L296.8438,406.8438 L302.1094,406.8438 L302.1094,409 Z " fill="#000000"/><text fill="#000000" font-family="sans-serif" font-size="14" lengthAdjust="spacing" textLength="98.7109" x="312" y="407.8467">OutputFormat</text></g><!--class PlanetsList__enum--><g class="entity" data-entity="PlanetsList__enum" data-source-line="59" data-uid="ent0027" id="entity_PlanetsList__enum"><rect fill="#F1F1F1" height="32" rx="2.5" ry="2.5" style="stroke:#181818;stroke-width:0.5;" width="107.6533" x="294.5" y="337"/><ellipse cx="309.5" cy="353" fill="#EB937F" rx="11" ry="11" style="stroke:#181818;stroke-width:1;"/><path d="M313.6094,359 L305.8906,359 L305.8906,346.6094 L313.6094,346.6094 L313.6094,348.7656 L308.3438,348.7656 L308.3438,351.4375 L313.1094,351.4375 L313.1094,353.5938 L308.3438,353.5938 L308.3438,356.8438 L313.6094,356.8438 L313.6094,359 Z " fill="#000000"/><text fill="#000000" font-family="sans-serif" font-size="14" lengthAdjust="spacing" textLength="75.6533" x="323.5" y="357.8467">PlanetsList</text></g><!--class RegExPattern__enum--><g class="entity" data-entity="RegExPattern__enum" data-source-line="63" data-uid="ent0028" id="entity_RegExPattern__enum"><rect fill="#F1F1F1" height="32" rx="2.5" ry="2.5" style="stroke:#181818;stroke-width:0.5;" width="127.6006" x="585" y="437"/><ellipse cx="600" cy="453" fill="#EB937F" rx="11" ry="11" style="stroke:#181818;stroke-width:1;"/><path d="M604.1094,459 L596.3906,459 L596.3906,446.6094 L604.1094,446.6094 L604.1094,448.7656 L598.8438,448.7656 L598.8438,451.4375 L603.6094,451.4375 L603.6094,453.5938 L598.8438,453.5938 L598.8438,456.8438 L604.1094,456.8438 L604.1094,459 Z " fill="#000000"/><text fill="#000000" font-family="sans-serif" font-size="14" lengthAdjust="spacing" textLength="95.6006" x="614" y="457.8467">RegExPattern</text></g><!--class SingleFictiousObject__enum--><g class="entity" data-entity="SingleFictiousObject__enum" data-source-line="67" data-uid="ent0029" id="entity_SingleFictiousObject__enum"><rect fill="#F1F1F1" height="32" rx="2.5" ry="2.5" style="stroke:#181818;stroke-width:0.5;" width="174.3857" x="562" y="387"/><ellipse cx="577" cy="403" fill="#EB937F" rx="11" ry="11" style="stroke:#181818;stroke-width:1;"/><path d="M581.1094,409 L573.3906,409 L573.3906,396.6094 L581.1094,396.6094 L581.1094,398.7656 L575.8438,398.7656 L575.8438,401.4375 L580.6094,401.4375 L580.6094,403.5938 L575.8438,403.5938 L575.8438,406.8438 L581.1094,406.8438 L581.1094,409 Z " fill="#000000"/><text fill="#000000" font-family="sans-serif" font-size="14" lengthAdjust="spacing" textLength="142.3857" x="591" y="407.8467">SingleFictiousObject</text></g><!--class SinglePlanet__enum--><g class="entity" data-entity="SinglePlanet__enum" data-source-line="71" data-uid="ent0030" id="entity_SinglePlanet__enum"><rect fill="#F1F1F1" height="32" rx="2.5" ry="2.5" style="stroke:#181818;stroke-width:0.5;" width="118.9258" x="589.5" y="337"/><ellipse cx="604.5" cy="353" fill="#EB937F" rx="11" ry="11" style="stroke:#181818;stroke-width:1;"/><path d="M608.6094,359 L600.8906,359 L600.8906,346.6094 L608.6094,346.6094 L608.6094,348.7656 L603.3438,348.7656 L603.3438,351.4375 L608.1094,351.4375 L608.1094,353.5938 L603.3438,353.5938 L603.3438,356.8438 L608.6094,356.8438 L608.6094,359 Z " fill="#000000"/><text fill="#000000" font-family="sans-serif" font-size="14" lengthAdjust="spacing" textLength="86.9258" x="618.5" y="357.8467">SinglePlanet</text></g><!--class TimeSteps__enum--><g class="entity" data-entity="TimeSteps__enum" data-source-line="75" data-uid="ent0031" id="entity_TimeSteps__enum"><rect fill="#F1F1F1" height="32" rx="2.5" ry="2.5" style="stroke:#181818;stroke-width:0.5;" width="105.8623" x="838" y="437"/><ellipse cx="853" cy="453" fill="#EB937F" rx="11" ry="11" style="stroke:#181818;stroke-width:1;"/><path d="M857.1094,459 L849.3906,459 L849.3906,446.6094 L857.1094,446.6094 L857.1094,448.7656 L851.8438,448.7656 L851.8438,451.4375 L856.6094,451.4375 L856.6094,453.5938 L851.8438,453.5938 L851.8438,456.8438 L857.1094,456.8438 L857.1094,459 Z " fill="#000000"/><text fill="#000000" font-family="sans-serif" font-size="14" lengthAdjust="spacing" textLength="73.8623" x="867" y="457.8467">TimeSteps</text></g><!--class Period__enum--><g class="entity" data-entity="Period__enum" data-source-line="79" data-uid="ent0033" id="entity_Period__enum"><rect fill="#F1F1F1" height="32" rx="2.5" ry="2.5" style="stroke:#181818;stroke-width:0.5;" width="76.1533" x="310.5" y="237"/><ellipse cx="325.5" cy="253" fill="#EB937F" rx="11" ry="11" style="stroke:#181818;stroke-width:1;"/><path d="M329.6094,259 L321.8906,259 L321.8906,246.6094 L329.6094,246.6094 L329.6094,248.7656 L324.3438,248.7656 L324.3438,251.4375 L329.1094,251.4375 L329.1094,253.5938 L324.3438,253.5938 L324.3438,256.8438 L329.6094,256.8438 L329.6094,259 Z " fill="#000000"/><text fill="#000000" font-family="sans-serif" font-size="14" lengthAdjust="spacing" textLength="44.1533" x="339.5" y="257.8467">Period</text></g><!--class Phase__enum--><g class="entity" data-entity="Phase__enum" data-source-line="83" data-uid="ent0034" id="entity_Phase__enum"><rect fill="#F1F1F1" height="32" rx="2.5" ry="2.5" style="stroke:#181818;stroke-width:0.5;" width="73.8018" x="311.5" y="287"/><ellipse cx="326.5" cy="303" fill="#EB937F" rx="11" ry="11" style="stroke:#181818;stroke-width:1;"/><path d="M330.6094,309 L322.8906,309 L322.8906,296.6094 L330.6094,296.6094 L330.6094,298.7656 L325.3438,298.7656 L325.3438,301.4375 L330.1094,301.4375 L330.1094,303.5938 L325.3438,303.5938 L325.3438,306.8438 L330.6094,306.8438 L330.6094,309 Z " fill="#000000"/><text fill="#000000" font-family="sans-serif" font-size="14" lengthAdjust="spacing" textLength="41.8018" x="340.5" y="307.8467">Phase</text></g><!--class SwissEphemerisError__class--><g class="entity" data-entity="SwissEphemerisError__class" data-source-line="89" data-uid="ent0037" id="entity_SwissEphemerisError__class"><rect fill="#F1F1F1" height="32" rx="2.5" ry="2.5" style="stroke:#181818;stroke-width:0.5;" width="179.9023" x="258.5" y="512"/><ellipse cx="273.5" cy="528" fill="#ADD1B2" rx="11" ry="11" style="stroke:#181818;stroke-width:1;"/><path d="M276.4688,533.6406 Q275.8906,533.9375 275.25,534.0781 Q274.6094,534.2344 273.9063,534.2344 Q271.4063,534.2344 270.0781,532.5938 Q268.7656,530.9375 268.7656,527.8125 Q268.7656,524.6875 270.0781,523.0313 Q271.4063,521.375 273.9063,521.375 Q274.6094,521.375 275.25,521.5313 Q275.9063,521.6875 276.4688,521.9844 L276.4688,524.7031 Q275.8438,524.125 275.25,523.8594 Q274.6563,523.5781 274.0313,523.5781 Q272.6875,523.5781 272,524.6563 Q271.3125,525.7188 271.3125,527.8125 Q271.3125,529.9063 272,530.9844 Q272.6875,532.0469 274.0313,532.0469 Q274.6563,532.0469 275.25,531.7813 Q275.8438,531.5 276.4688,530.9219 L276.4688,533.6406 Z " fill="#000000"/><text fill="#000000" font-family="sans-serif" font-size="14" lengthAdjust="spacing" textLength="147.9023" x="287.5" y="532.8467">SwissEphemerisError</text></g><!--class SwissEphemerisWarning__class--><g class="entity" data-entity="SwissEphemerisWarning__class" data-source-line="95" data-uid="ent0040" id="entity_SwissEphemerisWarning__class"><rect fill="#F1F1F1" height="32" rx="2.5" ry="2.5" style="stroke:#181818;stroke-width:0.5;" width="203.9238" x="246.5" y="562"/><ellipse cx="261.5" cy="578" fill="#ADD1B2" rx="11" ry="11" style="stroke:#181818;stroke-width:1;"/><path d="M264.4688,583.6406 Q263.8906,583.9375 263.25,584.0781 Q262.6094,584.2344 261.9063,584.2344 Q259.4063,584.2344 258.0781,582.5938 Q256.7656,580.9375 256.7656,577.8125 Q256.7656,574.6875 258.0781,573.0313 Q259.4063,571.375 261.9063,571.375 Q262.6094,571.375 263.25,571.5313 Q263.9063,571.6875 264.4688,571.9844 L264.4688,574.7031 Q263.8438,574.125 263.25,573.8594 Q262.6563,573.5781 262.0313,573.5781 Q260.6875,573.5781 260,574.6563 Q259.3125,575.7188 259.3125,577.8125 Q259.3125,579.9063 260,580.9844 Q260.6875,582.0469 262.0313,582.0469 Q262.6563,582.0469 263.25,581.7813 Q263.8438,581.5 264.4688,580.9219 L264.4688,583.6406 Z " fill="#000000"/><text fill="#000000" font-family="sans-serif" font-size="14" lengthAdjust="spacing" textLength="171.9238" x="275.5" y="582.8467">SwissEphemerisWarning</text></g><!--class AnomalisticRecord__class--><g class="entity" data-entity="AnomalisticRecord__class" data-source-line="99" data-uid="ent0043" id="entity_AnomalisticRecord__class"><rect fill="#F1F1F1" height="32" rx="2.5" ry="2.5" style="stroke:#181818;stroke-width:0.5;" width="162.6279" x="267" y="664"/><ellipse cx="282" cy="680" fill="#A9DCDF" rx="11" ry="11" style="stroke:#181818;stroke-width:1;"/><path d="M282.1094,675.3438 L280.9531,680.4219 L283.2813,680.4219 L282.1094,675.3438 Z M280.625,673.1094 L283.6094,673.1094 L286.9688,685.5 L284.5156,685.5 L283.75,682.4375 L280.4688,682.4375 L279.7188,685.5 L277.2813,685.5 L280.625,673.1094 Z " fill="#000000"/><text fill="#000000" font-family="sans-serif" font-size="14" font-style="italic" lengthAdjust="spacing" textLength="130.6279" x="296" y="684.8467">AnomalisticRecord</text></g><!--class ApogeeRecord__class--><g class="entity" data-entity="ApogeeRecord__class" data-source-line="103" data-uid="ent0045" id="entity_ApogeeRecord__class"><rect fill="#F1F1F1" height="32" rx="2.5" ry="2.5" style="stroke:#181818;stroke-width:0.5;" width="134.3887" x="582" y="664"/><ellipse cx="597" cy="680" fill="#ADD1B2" rx="11" ry="11" style="stroke:#181818;stroke-width:1;"/><path d="M599.9688,685.6406 Q599.3906,685.9375 598.75,686.0781 Q598.1094,686.2344 597.4063,686.2344 Q594.9063,686.2344 593.5781,684.5938 Q592.2656,682.9375 592.2656,679.8125 Q592.2656,676.6875 593.5781,675.0313 Q594.9063,673.375 597.4063,673.375 Q598.1094,673.375 598.75,673.5313 Q599.4063,673.6875 599.9688,673.9844 L599.9688,676.7031 Q599.3438,676.125 598.75,675.8594 Q598.1563,675.5781 597.5313,675.5781 Q596.1875,675.5781 595.5,676.6563 Q594.8125,677.7188 594.8125,679.8125 Q594.8125,681.9063 595.5,682.9844 Q596.1875,684.0469 597.5313,684.0469 Q598.1563,684.0469 598.75,683.7813 Q599.3438,683.5 599.9688,682.9219 L599.9688,685.6406 Z " fill="#000000"/><text fill="#000000" font-family="sans-serif" font-size="14" lengthAdjust="spacing" textLength="102.3887" x="611" y="684.8467">ApogeeRecord</text></g><!--class Period__class--><g class="entity" data-entity="Period__class" data-source-line="107" data-uid="ent0047" id="entity_Period__class"><rect fill="#F1F1F1" height="32" rx="2.5" ry="2.5" style="stroke:#181818;stroke-width:0.5;" width="76.1533" x="310.5" y="764"/><ellipse cx="325.5" cy="780" fill="#ADD1B2" rx="11" ry="11" style="stroke:#181818;stroke-width:1;"/><path d="M328.4688,785.6406 Q327.8906,785.9375 327.25,786.0781 Q326.6094,786.2344 325.9063,786.2344 Q323.4063,786.2344 322.0781,784.5938 Q320.7656,782.9375 320.7656,779.8125 Q320.7656,776.6875 322.0781,775.0313 Q323.4063,773.375 325.9063,773.375 Q326.6094,773.375 327.25,773.5313 Q327.9063,773.6875 328.4688,773.9844 L328.4688,776.7031 Q327.8438,776.125 327.25,775.8594 Q326.6563,775.5781 326.0313,775.5781 Q324.6875,775.5781 324,776.6563 Q323.3125,777.7188 323.3125,779.8125 Q323.3125,781.9063 324,782.9844 Q324.6875,784.0469 326.0313,784.0469 Q326.6563,784.0469 327.25,783.7813 Q327.8438,783.5 328.4688,782.9219 L328.4688,785.6406 Z " fill="#000000"/><text fill="#000000" font-family="sans-serif" font-size="14" lengthAdjust="spacing" textLength="44.1533" x="339.5" y="784.8467">Period</text></g><!--class PhaseRecord__class--><g class="entity" data-entity="PhaseRecord__class" data-source-line="111" data-uid="ent0048" id="entity_PhaseRecord__class"><rect fill="#F1F1F1" height="32" rx="2.5" ry="2.5" style="stroke:#181818;stroke-width:0.5;" width="123.0479" x="287" y="714"/><ellipse cx="302" cy="730" fill="#ADD1B2" rx="11" ry="11" style="stroke:#181818;stroke-width:1;"/><path d="M304.9688,735.6406 Q304.3906,735.9375 303.75,736.0781 Q303.1094,736.2344 302.4063,736.2344 Q299.9063,736.2344 298.5781,734.5938 Q297.2656,732.9375 297.2656,729.8125 Q297.2656,726.6875 298.5781,725.0313 Q299.9063,723.375 302.4063,723.375 Q303.1094,723.375 303.75,723.5313 Q304.4063,723.6875 304.9688,723.9844 L304.9688,726.7031 Q304.3438,726.125 303.75,725.8594 Q303.1563,725.5781 302.5313,725.5781 Q301.1875,725.5781 300.5,726.6563 Q299.8125,727.7188 299.8125,729.8125 Q299.8125,731.9063 300.5,732.9844 Q301.1875,734.0469 302.5313,734.0469 Q303.1563,734.0469 303.75,733.7813 Q304.3438,733.5 304.9688,732.9219 L304.9688,735.6406 Z " fill="#000000"/><text fill="#000000" font-family="sans-serif" font-size="14" lengthAdjust="spacing" textLength="91.0479" x="316" y="734.8467">PhaseRecord</text></g><!--class SynodicRhythmRecord__class--><g class="entity" data-entity="SynodicRhythmRecord__class" data-source-line="115" data-uid="ent0049" id="entity_SynodicRhythmRecord__class"><rect fill="#F1F1F1" height="32" rx="2.5" ry="2.5" style="stroke:#181818;stroke-width:0.5;" width="191.2158" x="553.5" y="764"/><ellipse cx="568.5" cy="780" fill="#ADD1B2" rx="11" ry="11" style="stroke:#181818;stroke-width:1;"/><path d="M571.4688,785.6406 Q570.8906,785.9375 570.25,786.0781 Q569.6094,786.2344 568.9063,786.2344 Q566.4063,786.2344 565.0781,784.5938 Q563.7656,782.9375 563.7656,779.8125 Q563.7656,776.6875 565.0781,775.0313 Q566.4063,773.375 568.9063,773.375 Q569.6094,773.375 570.25,773.5313 Q570.9063,773.6875 571.4688,773.9844 L571.4688,776.7031 Q570.8438,776.125 570.25,775.8594 Q569.6563,775.5781 569.0313,775.5781 Q567.6875,775.5781 567,776.6563 Q566.3125,777.7188 566.3125,779.8125 Q566.3125,781.9063 567,782.9844 Q567.6875,784.0469 569.0313,784.0469 Q569.6563,784.0469 570.25,783.7813 Q570.8438,783.5 571.4688,782.9219 L571.4688,785.6406 Z " fill="#000000"/><text fill="#000000" font-family="sans-serif" font-size="14" lengthAdjust="spacing" textLength="159.2158" x="582.5" y="784.8467">SynodicRhythmRecord</text></g><!--class Builder__class--><g class="entity" data-entity="Builder__class" data-source-line="123" data-uid="ent0054" id="entity_Builder__class"><rect fill="#F1F1F1" height="32" rx="2.5" ry="2.5" style="stroke:#181818;stroke-width:0.5;" width="81.5127" x="608" y="1433"/><ellipse cx="623" cy="1449" fill="#A9DCDF" rx="11" ry="11" style="stroke:#181818;stroke-width:1;"/><path d="M623.1094,1444.3438 L621.9531,1449.4219 L624.2813,1449.4219 L623.1094,1444.3438 Z M621.625,1442.1094 L624.6094,1442.1094 L627.9688,1454.5 L625.5156,1454.5 L624.75,1451.4375 L621.4688,1451.4375 L620.7188,1454.5 L618.2813,1454.5 L621.625,1442.1094 Z " fill="#000000"/><text fill="#000000" font-family="sans-serif" font-size="14" font-style="italic" lengthAdjust="spacing" textLength="49.5127" x="637" y="1453.8467">Builder</text></g><!--class Builder__interface--><g class="entity" data-entity="Builder__interface" data-source-line="119" data-uid="ent0051" id="entity_Builder__interface"><rect fill="#F1F1F1" height="32" rx="2.5" ry="2.5" style="stroke:#181818;stroke-width:0.5;" width="81.5127" x="307.5" y="1355"/><ellipse cx="322.5" cy="1371" fill="#B4A7E5" rx="11" ry="11" style="stroke:#181818;stroke-width:1;"/><path d="M318.4219,1366.7656 L318.4219,1364.6094 L325.8125,1364.6094 L325.8125,1366.7656 L323.3438,1366.7656 L323.3438,1374.8438 L325.8125,1374.8438 L325.8125,1377 L318.4219,1377 L318.4219,1374.8438 L320.8906,1374.8438 L320.8906,1366.7656 L318.4219,1366.7656 Z " fill="#000000"/><text fill="#000000" font-family="sans-serif" font-size="14" font-style="italic" lengthAdjust="spacing" textLength="49.5127" x="336.5" y="1375.8467">Builder</text></g><!--class BuilderStrategy__interface--><g class="entity" data-entity="BuilderStrategy__interface" data-source-line="127" data-uid="ent0056" id="entity_BuilderStrategy__interface"><rect fill="#F1F1F1" height="32" rx="2.5" ry="2.5" style="stroke:#181818;stroke-width:0.5;" width="141.498" x="278" y="1305"/><ellipse cx="293" cy="1321" fill="#B4A7E5" rx="11" ry="11" style="stroke:#181818;stroke-width:1;"/><path d="M288.9219,1316.7656 L288.9219,1314.6094 L296.3125,1314.6094 L296.3125,1316.7656 L293.8438,1316.7656 L293.8438,1324.8438 L296.3125,1324.8438 L296.3125,1327 L288.9219,1327 L288.9219,1324.8438 L291.3906,1324.8438 L291.3906,1316.7656 L288.9219,1316.7656 Z " fill="#000000"/><text fill="#000000" font-family="sans-serif" font-size="14" font-style="italic" lengthAdjust="spacing" textLength="109.498" x="307" y="1325.8467">BuilderStrategy</text></g><!--class FromArray__class--><g class="entity" data-entity="FromArray__class" data-source-line="131" data-uid="ent0058" id="entity_FromArray__class"><rect fill="#F1F1F1" height="32" rx="2.5" ry="2.5" style="stroke:#181818;stroke-width:0.5;" width="105.9648" x="838" y="1573"/><ellipse cx="853" cy="1589" fill="#ADD1B2" rx="11" ry="11" style="stroke:#181818;stroke-width:1;"/><path d="M855.9688,1594.6406 Q855.3906,1594.9375 854.75,1595.0781 Q854.1094,1595.2344 853.4063,1595.2344 Q850.9063,1595.2344 849.5781,1593.5938 Q848.2656,1591.9375 848.2656,1588.8125 Q848.2656,1585.6875 849.5781,1584.0313 Q850.9063,1582.375 853.4063,1582.375 Q854.1094,1582.375 854.75,1582.5313 Q855.4063,1582.6875 855.9688,1582.9844 L855.9688,1585.7031 Q855.3438,1585.125 854.75,1584.8594 Q854.1563,1584.5781 853.5313,1584.5781 Q852.1875,1584.5781 851.5,1585.6563 Q850.8125,1586.7188 850.8125,1588.8125 Q850.8125,1590.9063 851.5,1591.9844 Q852.1875,1593.0469 853.5313,1593.0469 Q854.1563,1593.0469 854.75,1592.7813 Q855.3438,1592.5 855.9688,1591.9219 L855.9688,1594.6406 Z " fill="#000000"/><text fill="#000000" font-family="sans-serif" font-size="14" lengthAdjust="spacing" textLength="73.9648" x="867" y="1593.8467">FromArray</text></g><!--class FromSynodicRhythm__class--><g class="entity" data-entity="FromSynodicRhythm__class" data-source-line="135" data-uid="ent0062" id="entity_FromSynodicRhythm__class"><rect fill="#F1F1F1" height="32" rx="2.5" ry="2.5" style="stroke:#181818;stroke-width:0.5;" width="177.9814" x="802" y="1373"/><ellipse cx="817" cy="1389" fill="#ADD1B2" rx="11" ry="11" style="stroke:#181818;stroke-width:1;"/><path d="M819.9688,1394.6406 Q819.3906,1394.9375 818.75,1395.0781 Q818.1094,1395.2344 817.4063,1395.2344 Q814.9063,1395.2344 813.5781,1393.5938 Q812.2656,1391.9375 812.2656,1388.8125 Q812.2656,1385.6875 813.5781,1384.0313 Q814.9063,1382.375 817.4063,1382.375 Q818.1094,1382.375 818.75,1382.5313 Q819.4063,1382.6875 819.9688,1382.9844 L819.9688,1385.7031 Q819.3438,1385.125 818.75,1384.8594 Q818.1563,1384.5781 817.5313,1384.5781 Q816.1875,1384.5781 815.5,1385.6563 Q814.8125,1386.7188 814.8125,1388.8125 Q814.8125,1390.9063 815.5,1391.9844 Q816.1875,1393.0469 817.5313,1393.0469 Q818.1563,1393.0469 818.75,1392.7813 Q819.3438,1392.5 819.9688,1391.9219 L819.9688,1394.6406 Z " fill="#000000"/><text fill="#000000" font-family="sans-serif" font-size="14" lengthAdjust="spacing" textLength="145.9814" x="831" y="1393.8467">FromSynodicRhythm</text></g><!--class FromSynodicRhythm__class--><g class="entity" data-entity="FromSynodicRhythm__class" data-source-line="139" data-uid="ent0065" id="entity_FromSynodicRhythm__class"><rect fill="#F1F1F1" height="32" rx="2.5" ry="2.5" style="stroke:#181818;stroke-width:0.5;" width="177.9814" x="802" y="1298"/><ellipse cx="817" cy="1314" fill="#ADD1B2" rx="11" ry="11" style="stroke:#181818;stroke-width:1;"/><path d="M819.9688,1319.6406 Q819.3906,1319.9375 818.75,1320.0781 Q818.1094,1320.2344 817.4063,1320.2344 Q814.9063,1320.2344 813.5781,1318.5938 Q812.2656,1316.9375 812.2656,1313.8125 Q812.2656,1310.6875 813.5781,1309.0313 Q814.9063,1307.375 817.4063,1307.375 Q818.1094,1307.375 818.75,1307.5313 Q819.4063,1307.6875 819.9688,1307.9844 L819.9688,1310.7031 Q819.3438,1310.125 818.75,1309.8594 Q818.1563,1309.5781 817.5313,1309.5781 Q816.1875,1309.5781 815.5,1310.6563 Q814.8125,1311.7188 814.8125,1313.8125 Q814.8125,1315.9063 815.5,1316.9844 Q816.1875,1318.0469 817.5313,1318.0469 Q818.1563,1318.0469 818.75,1317.7813 Q819.3438,1317.5 819.9688,1316.9219 L819.9688,1319.6406 Z " fill="#000000"/><text fill="#000000" font-family="sans-serif" font-size="14" lengthAdjust="spacing" textLength="145.9814" x="831" y="1318.8467">FromSynodicRhythm</text></g><!--class FromArray__class--><g class="entity" data-entity="FromArray__class" data-source-line="143" data-uid="ent0068" id="entity_FromArray__class"><rect fill="#F1F1F1" height="32" rx="2.5" ry="2.5" style="stroke:#181818;stroke-width:0.5;" width="105.9648" x="838" y="1498"/><ellipse cx="853" cy="1514" fill="#ADD1B2" rx="11" ry="11" style="stroke:#181818;stroke-width:1;"/><path d="M855.9688,1519.6406 Q855.3906,1519.9375 854.75,1520.0781 Q854.1094,1520.2344 853.4063,1520.2344 Q850.9063,1520.2344 849.5781,1518.5938 Q848.2656,1516.9375 848.2656,1513.8125 Q848.2656,1510.6875 849.5781,1509.0313 Q850.9063,1507.375 853.4063,1507.375 Q854.1094,1507.375 854.75,1507.5313 Q855.4063,1507.6875 855.9688,1507.9844 L855.9688,1510.7031 Q855.3438,1510.125 854.75,1509.8594 Q854.1563,1509.5781 853.5313,1509.5781 Q852.1875,1509.5781 851.5,1510.6563 Q850.8125,1511.7188 850.8125,1513.8125 Q850.8125,1515.9063 851.5,1516.9844 Q852.1875,1518.0469 853.5313,1518.0469 Q854.1563,1518.0469 854.75,1517.7813 Q855.3438,1517.5 855.9688,1516.9219 L855.9688,1519.6406 Z " fill="#000000"/><text fill="#000000" font-family="sans-serif" font-size="14" lengthAdjust="spacing" textLength="73.9648" x="867" y="1518.8467">FromArray</text></g><!--class FromRecords__class--><g class="entity" data-entity="FromRecords__class" data-source-line="147" data-uid="ent0070" id="entity_FromRecords__class"><rect fill="#F1F1F1" height="32" rx="2.5" ry="2.5" style="stroke:#181818;stroke-width:0.5;" width="124.5518" x="828.5" y="1448"/><ellipse cx="843.5" cy="1464" fill="#ADD1B2" rx="11" ry="11" style="stroke:#181818;stroke-width:1;"/><path d="M846.4688,1469.6406 Q845.8906,1469.9375 845.25,1470.0781 Q844.6094,1470.2344 843.9063,1470.2344 Q841.4063,1470.2344 840.0781,1468.5938 Q838.7656,1466.9375 838.7656,1463.8125 Q838.7656,1460.6875 840.0781,1459.0313 Q841.4063,1457.375 843.9063,1457.375 Q844.6094,1457.375 845.25,1457.5313 Q845.9063,1457.6875 846.4688,1457.9844 L846.4688,1460.7031 Q845.8438,1460.125 845.25,1459.8594 Q844.6563,1459.5781 844.0313,1459.5781 Q842.6875,1459.5781 842,1460.6563 Q841.3125,1461.7188 841.3125,1463.8125 Q841.3125,1465.9063 842,1466.9844 Q842.6875,1468.0469 844.0313,1468.0469 Q844.6563,1468.0469 845.25,1467.7813 Q845.8438,1467.5 846.4688,1466.9219 L846.4688,1469.6406 Z " fill="#000000"/><text fill="#000000" font-family="sans-serif" font-size="14" lengthAdjust="spacing" textLength="92.5518" x="857.5" y="1468.8467">FromRecords</text></g><!--class Strategy__class--><g class="entity" data-entity="Strategy__class" data-source-line="154" data-uid="ent0074" id="entity_Strategy__class"><rect fill="#F1F1F1" height="32" rx="2.5" ry="2.5" style="stroke:#181818;stroke-width:0.5;" width="91.9854" x="603" y="1188"/><ellipse cx="618" cy="1204" fill="#A9DCDF" rx="11" ry="11" style="stroke:#181818;stroke-width:1;"/><path d="M618.1094,1199.3438 L616.9531,1204.4219 L619.2813,1204.4219 L618.1094,1199.3438 Z M616.625,1197.1094 L619.6094,1197.1094 L622.9688,1209.5 L620.5156,1209.5 L619.75,1206.4375 L616.4688,1206.4375 L615.7188,1209.5 L613.2813,1209.5 L616.625,1197.1094 Z " fill="#000000"/><text fill="#000000" font-family="sans-serif" font-size="14" font-style="italic" lengthAdjust="spacing" textLength="59.9854" x="632" y="1208.8467">Strategy</text></g><!--class AnomalisticStrategy__class--><g class="entity" data-entity="AnomalisticStrategy__class" data-source-line="160" data-uid="ent0079" id="entity_AnomalisticStrategy__class"><rect fill="#F1F1F1" height="32" rx="2.5" ry="2.5" style="stroke:#181818;stroke-width:0.5;" width="173.3672" x="804.5" y="1180"/><ellipse cx="819.5" cy="1196" fill="#A9DCDF" rx="11" ry="11" style="stroke:#181818;stroke-width:1;"/><path d="M819.6094,1191.3438 L818.4531,1196.4219 L820.7813,1196.4219 L819.6094,1191.3438 Z M818.125,1189.1094 L821.1094,1189.1094 L824.4688,1201.5 L822.0156,1201.5 L821.25,1198.4375 L817.9688,1198.4375 L817.2188,1201.5 L814.7813,1201.5 L818.125,1189.1094 Z " fill="#000000"/><text fill="#000000" font-family="sans-serif" font-size="14" font-style="italic" lengthAdjust="spacing" textLength="141.3672" x="833.5" y="1200.8467">AnomalisticStrategy</text></g><!--class Apogee__class--><g class="entity" data-entity="Apogee__class" data-source-line="164" data-uid="ent0082" id="entity_Apogee__class"><rect fill="#F1F1F1" height="32" rx="2.5" ry="2.5" style="stroke:#181818;stroke-width:0.5;" width="85.1426" x="1041.5" y="1180"/><ellipse cx="1056.5" cy="1196" fill="#ADD1B2" rx="11" ry="11" style="stroke:#181818;stroke-width:1;"/><path d="M1059.4688,1201.6406 Q1058.8906,1201.9375 1058.25,1202.0781 Q1057.6094,1202.2344 1056.9063,1202.2344 Q1054.4063,1202.2344 1053.0781,1200.5938 Q1051.7656,1198.9375 1051.7656,1195.8125 Q1051.7656,1192.6875 1053.0781,1191.0313 Q1054.4063,1189.375 1056.9063,1189.375 Q1057.6094,1189.375 1058.25,1189.5313 Q1058.9063,1189.6875 1059.4688,1189.9844 L1059.4688,1192.7031 Q1058.8438,1192.125 1058.25,1191.8594 Q1057.6563,1191.5781 1057.0313,1191.5781 Q1055.6875,1191.5781 1055,1192.6563 Q1054.3125,1193.7188 1054.3125,1195.8125 Q1054.3125,1197.9063 1055,1198.9844 Q1055.6875,1200.0469 1057.0313,1200.0469 Q1057.6563,1200.0469 1058.25,1199.7813 Q1058.8438,1199.5 1059.4688,1198.9219 L1059.4688,1201.6406 Z " fill="#000000"/><text fill="#000000" font-family="sans-serif" font-size="14" lengthAdjust="spacing" textLength="53.1426" x="1070.5" y="1200.8467">Apogee</text></g><!--class PhaseStrategy__class--><g class="entity" data-entity="PhaseStrategy__class" data-source-line="168" data-uid="ent0085" id="entity_PhaseStrategy__class"><rect fill="#F1F1F1" height="32" rx="2.5" ry="2.5" style="stroke:#181818;stroke-width:0.5;" width="133.7871" x="824" y="1055"/><ellipse cx="839" cy="1071" fill="#A9DCDF" rx="11" ry="11" style="stroke:#181818;stroke-width:1;"/><path d="M839.1094,1066.3438 L837.9531,1071.4219 L840.2813,1071.4219 L839.1094,1066.3438 Z M837.625,1064.1094 L840.6094,1064.1094 L843.9688,1076.5 L841.5156,1076.5 L840.75,1073.4375 L837.4688,1073.4375 L836.7188,1076.5 L834.2813,1076.5 L837.625,1064.1094 Z " fill="#000000"/><text fill="#000000" font-family="sans-serif" font-size="14" font-style="italic" lengthAdjust="spacing" textLength="101.7871" x="853" y="1075.8467">PhaseStrategy</text></g><!--class FirstQuarter__class--><g class="entity" data-entity="FirstQuarter__class" data-source-line="172" data-uid="ent0087" id="entity_FirstQuarter__class"><rect fill="#F1F1F1" height="32" rx="2.5" ry="2.5" style="stroke:#181818;stroke-width:0.5;" width="116.5674" x="1025.5" y="1055"/><ellipse cx="1040.5" cy="1071" fill="#ADD1B2" rx="11" ry="11" style="stroke:#181818;stroke-width:1;"/><path d="M1043.4688,1076.6406 Q1042.8906,1076.9375 1042.25,1077.0781 Q1041.6094,1077.2344 1040.9063,1077.2344 Q1038.4063,1077.2344 1037.0781,1075.5938 Q1035.7656,1073.9375 1035.7656,1070.8125 Q1035.7656,1067.6875 1037.0781,1066.0313 Q1038.4063,1064.375 1040.9063,1064.375 Q1041.6094,1064.375 1042.25,1064.5313 Q1042.9063,1064.6875 1043.4688,1064.9844 L1043.4688,1067.7031 Q1042.8438,1067.125 1042.25,1066.8594 Q1041.6563,1066.5781 1041.0313,1066.5781 Q1039.6875,1066.5781 1039,1067.6563 Q1038.3125,1068.7188 1038.3125,1070.8125 Q1038.3125,1072.9063 1039,1073.9844 Q1039.6875,1075.0469 1041.0313,1075.0469 Q1041.6563,1075.0469 1042.25,1074.7813 Q1042.8438,1074.5 1043.4688,1073.9219 L1043.4688,1076.6406 Z " fill="#000000"/><text fill="#000000" font-family="sans-serif" font-size="14" lengthAdjust="spacing" textLength="84.5674" x="1054.5" y="1075.8467">FirstQuarter</text></g><!--class FullMoon__class--><g class="entity" data-entity="FullMoon__class" data-source-line="176" data-uid="ent0089" id="entity_FullMoon__class"><rect fill="#F1F1F1" height="32" rx="2.5" ry="2.5" style="stroke:#181818;stroke-width:0.5;" width="94.7881" x="1036.5" y="1005"/><ellipse cx="1051.5" cy="1021" fill="#ADD1B2" rx="11" ry="11" style="stroke:#181818;stroke-width:1;"/><path d="M1054.4688,1026.6406 Q1053.8906,1026.9375 1053.25,1027.0781 Q1052.6094,1027.2344 1051.9063,1027.2344 Q1049.4063,1027.2344 1048.0781,1025.5938 Q1046.7656,1023.9375 1046.7656,1020.8125 Q1046.7656,1017.6875 1048.0781,1016.0313 Q1049.4063,1014.375 1051.9063,1014.375 Q1052.6094,1014.375 1053.25,1014.5313 Q1053.9063,1014.6875 1054.4688,1014.9844 L1054.4688,1017.7031 Q1053.8438,1017.125 1053.25,1016.8594 Q1052.6563,1016.5781 1052.0313,1016.5781 Q1050.6875,1016.5781 1050,1017.6563 Q1049.3125,1018.7188 1049.3125,1020.8125 Q1049.3125,1022.9063 1050,1023.9844 Q1050.6875,1025.0469 1052.0313,1025.0469 Q1052.6563,1025.0469 1053.25,1024.7813 Q1053.8438,1024.5 1054.4688,1023.9219 L1054.4688,1026.6406 Z " fill="#000000"/><text fill="#000000" font-family="sans-serif" font-size="14" lengthAdjust="spacing" textLength="62.7881" x="1065.5" y="1025.8467">FullMoon</text></g><!--class NewMoon__class--><g class="entity" data-entity="NewMoon__class" data-source-line="180" data-uid="ent0091" id="entity_NewMoon__class"><rect fill="#F1F1F1" height="32" rx="2.5" ry="2.5" style="stroke:#181818;stroke-width:0.5;" width="100.6191" x="1033.5" y="955"/><ellipse cx="1048.5" cy="971" fill="#ADD1B2" rx="11" ry="11" style="stroke:#181818;stroke-width:1;"/><path d="M1051.4688,976.6406 Q1050.8906,976.9375 1050.25,977.0781 Q1049.6094,977.2344 1048.9063,977.2344 Q1046.4063,977.2344 1045.0781,975.5938 Q1043.7656,973.9375 1043.7656,970.8125 Q1043.7656,967.6875 1045.0781,966.0313 Q1046.4063,964.375 1048.9063,964.375 Q1049.6094,964.375 1050.25,964.5313 Q1050.9063,964.6875 1051.4688,964.9844 L1051.4688,967.7031 Q1050.8438,967.125 1050.25,966.8594 Q1049.6563,966.5781 1049.0313,966.5781 Q1047.6875,966.5781 1047,967.6563 Q1046.3125,968.7188 1046.3125,970.8125 Q1046.3125,972.9063 1047,973.9844 Q1047.6875,975.0469 1049.0313,975.0469 Q1049.6563,975.0469 1050.25,974.7813 Q1050.8438,974.5 1051.4688,973.9219 L1051.4688,976.6406 Z " fill="#000000"/><text fill="#000000" font-family="sans-serif" font-size="14" lengthAdjust="spacing" textLength="68.6191" x="1062.5" y="975.8467">NewMoon</text></g><!--class ThirdQuarter__class--><g class="entity" data-entity="ThirdQuarter__class" data-source-line="184" data-uid="ent0093" id="entity_ThirdQuarter__class"><rect fill="#F1F1F1" height="32" rx="2.5" ry="2.5" style="stroke:#181818;stroke-width:0.5;" width="122.043" x="1023" y="1105"/><ellipse cx="1038" cy="1121" fill="#ADD1B2" rx="11" ry="11" style="stroke:#181818;stroke-width:1;"/><path d="M1040.9688,1126.6406 Q1040.3906,1126.9375 1039.75,1127.0781 Q1039.1094,1127.2344 1038.4063,1127.2344 Q1035.9063,1127.2344 1034.5781,1125.5938 Q1033.2656,1123.9375 1033.2656,1120.8125 Q1033.2656,1117.6875 1034.5781,1116.0313 Q1035.9063,1114.375 1038.4063,1114.375 Q1039.1094,1114.375 1039.75,1114.5313 Q1040.4063,1114.6875 1040.9688,1114.9844 L1040.9688,1117.7031 Q1040.3438,1117.125 1039.75,1116.8594 Q1039.1563,1116.5781 1038.5313,1116.5781 Q1037.1875,1116.5781 1036.5,1117.6563 Q1035.8125,1118.7188 1035.8125,1120.8125 Q1035.8125,1122.9063 1036.5,1123.9844 Q1037.1875,1125.0469 1038.5313,1125.0469 Q1039.1563,1125.0469 1039.75,1124.7813 Q1040.3438,1124.5 1040.9688,1123.9219 L1040.9688,1126.6406 Z " fill="#000000"/><text fill="#000000" font-family="sans-serif" font-size="14" lengthAdjust="spacing" textLength="90.043" x="1052" y="1125.8467">ThirdQuarter</text></g><!--class AnomalisticRhythm__class--><g class="entity" data-entity="AnomalisticRhythm__class" data-source-line="192" data-uid="ent0097" id="entity_AnomalisticRhythm__class"><rect fill="#F1F1F1" height="32" rx="2.5" ry="2.5" style="stroke:#181818;stroke-width:0.5;" width="168.2676" x="264.5" y="1664"/><ellipse cx="279.5" cy="1680" fill="#ADD1B2" rx="11" ry="11" style="stroke:#181818;stroke-width:1;"/><path d="M282.4688,1685.6406 Q281.8906,1685.9375 281.25,1686.0781 Q280.6094,1686.2344 279.9063,1686.2344 Q277.4063,1686.2344 276.0781,1684.5938 Q274.7656,1682.9375 274.7656,1679.8125 Q274.7656,1676.6875 276.0781,1675.0313 Q277.4063,1673.375 279.9063,1673.375 Q280.6094,1673.375 281.25,1673.5313 Q281.9063,1673.6875 282.4688,1673.9844 L282.4688,1676.7031 Q281.8438,1676.125 281.25,1675.8594 Q280.6563,1675.5781 280.0313,1675.5781 Q278.6875,1675.5781 278,1676.6563 Q277.3125,1677.7188 277.3125,1679.8125 Q277.3125,1681.9063 278,1682.9844 Q278.6875,1684.0469 280.0313,1684.0469 Q280.6563,1684.0469 281.25,1683.7813 Q281.8438,1683.5 282.4688,1682.9219 L282.4688,1685.6406 Z " fill="#000000"/><text fill="#000000" font-family="sans-serif" font-size="14" lengthAdjust="spacing" textLength="136.2676" x="293.5" y="1684.8467">AnomalisticRhythm</text></g><!--class Apogees__class--><g class="entity" data-entity="Apogees__class" data-source-line="196" data-uid="ent0099" id="entity_Apogees__class"><rect fill="#F1F1F1" height="32" rx="2.5" ry="2.5" style="stroke:#181818;stroke-width:0.5;" width="92.4365" x="302.5" y="1864"/><ellipse cx="317.5" cy="1880" fill="#ADD1B2" rx="11" ry="11" style="stroke:#181818;stroke-width:1;"/><path d="M320.4688,1885.6406 Q319.8906,1885.9375 319.25,1886.0781 Q318.6094,1886.2344 317.9063,1886.2344 Q315.4063,1886.2344 314.0781,1884.5938 Q312.7656,1882.9375 312.7656,1879.8125 Q312.7656,1876.6875 314.0781,1875.0313 Q315.4063,1873.375 317.9063,1873.375 Q318.6094,1873.375 319.25,1873.5313 Q319.9063,1873.6875 320.4688,1873.9844 L320.4688,1876.7031 Q319.8438,1876.125 319.25,1875.8594 Q318.6563,1875.5781 318.0313,1875.5781 Q316.6875,1875.5781 316,1876.6563 Q315.3125,1877.7188 315.3125,1879.8125 Q315.3125,1881.9063 316,1882.9844 Q316.6875,1884.0469 318.0313,1884.0469 Q318.6563,1884.0469 319.25,1883.7813 Q319.8438,1883.5 320.4688,1882.9219 L320.4688,1885.6406 Z " fill="#000000"/><text fill="#000000" font-family="sans-serif" font-size="14" lengthAdjust="spacing" textLength="60.4365" x="331.5" y="1884.8467">Apogees</text></g><!--class Periods__class--><g class="entity" data-entity="Periods__class" data-source-line="200" data-uid="ent0101" id="entity_Periods__class"><rect fill="#F1F1F1" height="32" rx="2.5" ry="2.5" style="stroke:#181818;stroke-width:0.5;" width="83.4473" x="307" y="1714"/><ellipse cx="322" cy="1730" fill="#ADD1B2" rx="11" ry="11" style="stroke:#181818;stroke-width:1;"/><path d="M324.9688,1735.6406 Q324.3906,1735.9375 323.75,1736.0781 Q323.1094,1736.2344 322.4063,1736.2344 Q319.9063,1736.2344 318.5781,1734.5938 Q317.2656,1732.9375 317.2656,1729.8125 Q317.2656,1726.6875 318.5781,1725.0313 Q319.9063,1723.375 322.4063,1723.375 Q323.1094,1723.375 323.75,1723.5313 Q324.4063,1723.6875 324.9688,1723.9844 L324.9688,1726.7031 Q324.3438,1726.125 323.75,1725.8594 Q323.1563,1725.5781 322.5313,1725.5781 Q321.1875,1725.5781 320.5,1726.6563 Q319.8125,1727.7188 319.8125,1729.8125 Q319.8125,1731.9063 320.5,1732.9844 Q321.1875,1734.0469 322.5313,1734.0469 Q323.1563,1734.0469 323.75,1733.7813 Q324.3438,1733.5 324.9688,1732.9219 L324.9688,1735.6406 Z " fill="#000000"/><text fill="#000000" font-family="sans-serif" font-size="14" lengthAdjust="spacing" textLength="51.4473" x="336" y="1734.8467">Periods</text></g><!--class Phases__class--><g class="entity" data-entity="Phases__class" data-source-line="204" data-uid="ent0103" id="entity_Phases__class"><rect fill="#F1F1F1" height="32" rx="2.5" ry="2.5" style="stroke:#181818;stroke-width:0.5;" width="81.0957" x="308" y="1764"/><ellipse cx="323" cy="1780" fill="#ADD1B2" rx="11" ry="11" style="stroke:#181818;stroke-width:1;"/><path d="M325.9688,1785.6406 Q325.3906,1785.9375 324.75,1786.0781 Q324.1094,1786.2344 323.4063,1786.2344 Q320.9063,1786.2344 319.5781,1784.5938 Q318.2656,1782.9375 318.2656,1779.8125 Q318.2656,1776.6875 319.5781,1775.0313 Q320.9063,1773.375 323.4063,1773.375 Q324.1094,1773.375 324.75,1773.5313 Q325.4063,1773.6875 325.9688,1773.9844 L325.9688,1776.7031 Q325.3438,1776.125 324.75,1775.8594 Q324.1563,1775.5781 323.5313,1775.5781 Q322.1875,1775.5781 321.5,1776.6563 Q320.8125,1777.7188 320.8125,1779.8125 Q320.8125,1781.9063 321.5,1782.9844 Q322.1875,1784.0469 323.5313,1784.0469 Q324.1563,1784.0469 324.75,1783.7813 Q325.3438,1783.5 325.9688,1782.9219 L325.9688,1785.6406 Z " fill="#000000"/><text fill="#000000" font-family="sans-serif" font-size="14" lengthAdjust="spacing" textLength="49.0957" x="337" y="1784.8467">Phases</text></g><!--class SynodicRhythm__class--><g class="entity" data-entity="SynodicRhythm__class" data-source-line="208" data-uid="ent0105" id="entity_SynodicRhythm__class"><rect fill="#F1F1F1" height="32" rx="2.5" ry="2.5" style="stroke:#181818;stroke-width:0.5;" width="141.9697" x="277.5" y="1814"/><ellipse cx="292.5" cy="1830" fill="#ADD1B2" rx="11" ry="11" style="stroke:#181818;stroke-width:1;"/><path d="M295.4688,1835.6406 Q294.8906,1835.9375 294.25,1836.0781 Q293.6094,1836.2344 292.9063,1836.2344 Q290.4063,1836.2344 289.0781,1834.5938 Q287.7656,1832.9375 287.7656,1829.8125 Q287.7656,1826.6875 289.0781,1825.0313 Q290.4063,1823.375 292.9063,1823.375 Q293.6094,1823.375 294.25,1823.5313 Q294.9063,1823.6875 295.4688,1823.9844 L295.4688,1826.7031 Q294.8438,1826.125 294.25,1825.8594 Q293.6563,1825.5781 293.0313,1825.5781 Q291.6875,1825.5781 291,1826.6563 Q290.3125,1827.7188 290.3125,1829.8125 Q290.3125,1831.9063 291,1832.9844 Q291.6875,1834.0469 293.0313,1834.0469 Q293.6563,1834.0469 294.25,1833.7813 Q294.8438,1833.5 295.4688,1832.9219 L295.4688,1835.6406 Z " fill="#000000"/><text fill="#000000" font-family="sans-serif" font-size="14" lengthAdjust="spacing" textLength="109.9697" x="306.5" y="1834.8467">SynodicRhythm</text></g><!--class WithFuzzyCondition__trait--><g class="entity" data-entity="WithFuzzyCondition__trait" data-source-line="151" data-uid="ent0073" id="entity_WithFuzzyCondition__trait"><rect fill="#F1F1F1" height="40.2656" rx="2.5" ry="2.5" style="stroke:#181818;stroke-width:0.5;" width="170.8105" x="263" y="1947"/><ellipse cx="278" cy="1967.1328" fill="#FF7700" rx="11" ry="11" style="stroke:#181818;stroke-width:1;"/><path d="M278.8438,1973.8828 L276.3906,1973.8828 L276.3906,1963.6328 L273.25,1963.6328 L273.25,1961.4922 L281.9844,1961.4922 L281.9844,1963.6328 L278.8438,1963.6328 L278.8438,1973.8828 Z " fill="#000000"/><text fill="#000000" font-family="sans-serif" font-size="12" font-style="italic" lengthAdjust="spacing" textLength="42.3398" x="340.2354" y="1963.1387">&#171;Trait&#187;</text><text fill="#000000" font-family="sans-serif" font-size="14" lengthAdjust="spacing" textLength="138.8105" x="292" y="1978.9639">WithFuzzyCondition</text></g><!--class QueryTemplate__class--><g class="entity" data-entity="QueryTemplate__class" data-source-line="212" data-uid="ent0108" id="entity_QueryTemplate__class"><rect fill="#F1F1F1" height="32" rx="2.5" ry="2.5" style="stroke:#181818;stroke-width:0.5;" width="140.8076" x="278" y="2082"/><ellipse cx="293" cy="2098" fill="#A9DCDF" rx="11" ry="11" style="stroke:#181818;stroke-width:1;"/><path d="M293.1094,2093.3438 L291.9531,2098.4219 L294.2813,2098.4219 L293.1094,2093.3438 Z M291.625,2091.1094 L294.6094,2091.1094 L297.9688,2103.5 L295.5156,2103.5 L294.75,2100.4375 L291.4688,2100.4375 L290.7188,2103.5 L288.2813,2103.5 L291.625,2091.1094 Z " fill="#000000"/><text fill="#000000" font-family="sans-serif" font-size="14" font-style="italic" lengthAdjust="spacing" textLength="108.8076" x="307" y="2102.8467">QueryTemplate</text></g><!--class ApogeeTemplate__class--><g class="entity" data-entity="ApogeeTemplate__class" data-source-line="216" data-uid="ent0110" id="entity_ApogeeTemplate__class"><rect fill="#F1F1F1" height="32" rx="2.5" ry="2.5" style="stroke:#181818;stroke-width:0.5;" width="151.4033" x="573.5" y="2107"/><ellipse cx="588.5" cy="2123" fill="#ADD1B2" rx="11" ry="11" style="stroke:#181818;stroke-width:1;"/><path d="M591.4688,2128.6406 Q590.8906,2128.9375 590.25,2129.0781 Q589.6094,2129.2344 588.9063,2129.2344 Q586.4063,2129.2344 585.0781,2127.5938 Q583.7656,2125.9375 583.7656,2122.8125 Q583.7656,2119.6875 585.0781,2118.0313 Q586.4063,2116.375 588.9063,2116.375 Q589.6094,2116.375 590.25,2116.5313 Q590.9063,2116.6875 591.4688,2116.9844 L591.4688,2119.7031 Q590.8438,2119.125 590.25,2118.8594 Q589.6563,2118.5781 589.0313,2118.5781 Q587.6875,2118.5781 587,2119.6563 Q586.3125,2120.7188 586.3125,2122.8125 Q586.3125,2124.9063 587,2125.9844 Q587.6875,2127.0469 589.0313,2127.0469 Q589.6563,2127.0469 590.25,2126.7813 Q590.8438,2126.5 591.4688,2125.9219 L591.4688,2128.6406 Z " fill="#000000"/><text fill="#000000" font-family="sans-serif" font-size="14" lengthAdjust="spacing" textLength="119.4033" x="602.5" y="2127.8467">ApogeeTemplate</text></g><!--class SynodicRhythmTemplate__class--><g class="entity" data-entity="SynodicRhythmTemplate__class" data-source-line="220" data-uid="ent0112" id="entity_SynodicRhythmTemplate__class"><rect fill="#F1F1F1" height="32" rx="2.5" ry="2.5" style="stroke:#181818;stroke-width:0.5;" width="208.2305" x="545" y="2057"/><ellipse cx="560" cy="2073" fill="#ADD1B2" rx="11" ry="11" style="stroke:#181818;stroke-width:1;"/><path d="M562.9688,2078.6406 Q562.3906,2078.9375 561.75,2079.0781 Q561.1094,2079.2344 560.4063,2079.2344 Q557.9063,2079.2344 556.5781,2077.5938 Q555.2656,2075.9375 555.2656,2072.8125 Q555.2656,2069.6875 556.5781,2068.0313 Q557.9063,2066.375 560.4063,2066.375 Q561.1094,2066.375 561.75,2066.5313 Q562.4063,2066.6875 562.9688,2066.9844 L562.9688,2069.7031 Q562.3438,2069.125 561.75,2068.8594 Q561.1563,2068.5781 560.5313,2068.5781 Q559.1875,2068.5781 558.5,2069.6563 Q557.8125,2070.7188 557.8125,2072.8125 Q557.8125,2074.9063 558.5,2075.9844 Q559.1875,2077.0469 560.5313,2077.0469 Q561.1563,2077.0469 561.75,2076.7813 Q562.3438,2076.5 562.9688,2075.9219 L562.9688,2078.6406 Z " fill="#000000"/><text fill="#000000" font-family="sans-serif" font-size="14" lengthAdjust="spacing" textLength="176.2305" x="574" y="2077.8467">SynodicRhythmTemplate</text></g><!--class Carbon__class--><g class="entity" data-entity="Carbon__class" data-source-line="19" data-uid="ent0006" id="entity_Carbon__class"><rect fill="#F1F1F1" height="40.2656" rx="2.5" ry="2.5" style="stroke:#181818;stroke-width:0.5;" width="92.4824" x="55" y="1650"/><ellipse cx="70" cy="1670.1328" fill="#ADD1B2" rx="11" ry="11" style="stroke:#181818;stroke-width:1;"/><path d="M72.9688,1675.7734 Q72.3906,1676.0703 71.75,1676.2109 Q71.1094,1676.3672 70.4063,1676.3672 Q67.9063,1676.3672 66.5781,1674.7266 Q65.2656,1673.0703 65.2656,1669.9453 Q65.2656,1666.8203 66.5781,1665.1641 Q67.9063,1663.5078 70.4063,1663.5078 Q71.1094,1663.5078 71.75,1663.6641 Q72.4063,1663.8203 72.9688,1664.1172 L72.9688,1666.8359 Q72.3438,1666.2578 71.75,1665.9922 Q71.1563,1665.7109 70.5313,1665.7109 Q69.1875,1665.7109 68.5,1666.7891 Q67.8125,1667.8516 67.8125,1669.9453 Q67.8125,1672.0391 68.5,1673.1172 Q69.1875,1674.1797 70.5313,1674.1797 Q71.1563,1674.1797 71.75,1673.9141 Q72.3438,1673.6328 72.9688,1673.0547 L72.9688,1675.7734 Z " fill="#000000"/><text fill="#000000" font-family="sans-serif" font-size="12" font-style="italic" lengthAdjust="spacing" textLength="64.4824" x="82" y="1666.1387">&#171;external&#187;</text><text fill="#000000" font-family="sans-serif" font-size="14" lengthAdjust="spacing" textLength="50.4355" x="89.0234" y="1681.9639">Carbon</text></g><!--class ServiceProvider__class--><g class="entity" data-entity="ServiceProvider__class" data-source-line="27" data-uid="ent0010" id="entity_ServiceProvider__class"><rect fill="#F1F1F1" height="40.2656" rx="2.5" ry="2.5" style="stroke:#181818;stroke-width:0.5;" width="141.9355" x="30" y="1818"/><ellipse cx="45" cy="1838.1328" fill="#ADD1B2" rx="11" ry="11" style="stroke:#181818;stroke-width:1;"/><path d="M47.9688,1843.7734 Q47.3906,1844.0703 46.75,1844.2109 Q46.1094,1844.3672 45.4063,1844.3672 Q42.9063,1844.3672 41.5781,1842.7266 Q40.2656,1841.0703 40.2656,1837.9453 Q40.2656,1834.8203 41.5781,1833.1641 Q42.9063,1831.5078 45.4063,1831.5078 Q46.1094,1831.5078 46.75,1831.6641 Q47.4063,1831.8203 47.9688,1832.1172 L47.9688,1834.8359 Q47.3438,1834.2578 46.75,1833.9922 Q46.1563,1833.7109 45.5313,1833.7109 Q44.1875,1833.7109 43.5,1834.7891 Q42.8125,1835.8516 42.8125,1837.9453 Q42.8125,1840.0391 43.5,1841.1172 Q44.1875,1842.1797 45.5313,1842.1797 Q46.1563,1842.1797 46.75,1841.9141 Q47.3438,1841.6328 47.9688,1841.0547 L47.9688,1843.7734 Z " fill="#000000"/><text fill="#000000" font-family="sans-serif" font-size="12" font-style="italic" lengthAdjust="spacing" textLength="64.4824" x="81.7266" y="1834.1387">&#171;external&#187;</text><text fill="#000000" font-family="sans-serif" font-size="14" lengthAdjust="spacing" textLength="109.9355" x="59" y="1849.9639">ServiceProvider</text></g><!--class Collection__class--><g class="entity" data-entity="Collection__class" data-source-line="188" data-uid="ent0095" id="entity_Collection__class"><rect fill="#F1F1F1" height="40.2656" rx="2.5" ry="2.5" style="stroke:#181818;stroke-width:0.5;" width="101.248" x="50.5" y="1760"/><ellipse cx="65.5" cy="1780.1328" fill="#ADD1B2" rx="11" ry="11" style="stroke:#181818;stroke-width:1;"/><path d="M68.4688,1785.7734 Q67.8906,1786.0703 67.25,1786.2109 Q66.6094,1786.3672 65.9063,1786.3672 Q63.4063,1786.3672 62.0781,1784.7266 Q60.7656,1783.0703 60.7656,1779.9453 Q60.7656,1776.8203 62.0781,1775.1641 Q63.4063,1773.5078 65.9063,1773.5078 Q66.6094,1773.5078 67.25,1773.6641 Q67.9063,1773.8203 68.4688,1774.1172 L68.4688,1776.8359 Q67.8438,1776.2578 67.25,1775.9922 Q66.6563,1775.7109 66.0313,1775.7109 Q64.6875,1775.7109 64,1776.7891 Q63.3125,1777.8516 63.3125,1779.9453 Q63.3125,1782.0391 64,1783.1172 Q64.6875,1784.1797 66.0313,1784.1797 Q66.6563,1784.1797 67.25,1783.9141 Q67.8438,1783.6328 68.4688,1783.0547 L68.4688,1785.7734 Z " fill="#000000"/><text fill="#000000" font-family="sans-serif" font-size="12" font-style="italic" lengthAdjust="spacing" textLength="64.4824" x="81.8828" y="1776.1387">&#171;external&#187;</text><text fill="#000000" font-family="sans-serif" font-size="14" lengthAdjust="spacing" textLength="69.248" x="79.5" y="1791.9639">Collection</text></g><!--class Argument__class--><g class="entity" data-entity="Argument__class" data-source-line="35" data-uid="ent0015" id="entity_Argument__class"><rect fill="#F1F1F1" height="40.2656" rx="2.5" ry="2.5" style="stroke:#181818;stroke-width:0.5;" width="101.7061" x="50" y="1963"/><ellipse cx="65" cy="1983.1328" fill="#ADD1B2" rx="11" ry="11" style="stroke:#181818;stroke-width:1;"/><path d="M67.9688,1988.7734 Q67.3906,1989.0703 66.75,1989.2109 Q66.1094,1989.3672 65.4063,1989.3672 Q62.9063,1989.3672 61.5781,1987.7266 Q60.2656,1986.0703 60.2656,1982.9453 Q60.2656,1979.8203 61.5781,1978.1641 Q62.9063,1976.5078 65.4063,1976.5078 Q66.1094,1976.5078 66.75,1976.6641 Q67.4063,1976.8203 67.9688,1977.1172 L67.9688,1979.8359 Q67.3438,1979.2578 66.75,1978.9922 Q66.1563,1978.7109 65.5313,1978.7109 Q64.1875,1978.7109 63.5,1979.7891 Q62.8125,1980.8516 62.8125,1982.9453 Q62.8125,1985.0391 63.5,1986.1172 Q64.1875,1987.1797 65.5313,1987.1797 Q66.1563,1987.1797 66.75,1986.9141 Q67.3438,1986.6328 67.9688,1986.0547 L67.9688,1988.7734 Z " fill="#000000"/><text fill="#000000" font-family="sans-serif" font-size="12" font-style="italic" lengthAdjust="spacing" textLength="64.4824" x="81.6118" y="1979.1387">&#171;external&#187;</text><text fill="#000000" font-family="sans-serif" font-size="14" lengthAdjust="spacing" textLength="69.7061" x="79" y="1994.9639">Argument</text></g><!--class Flag__class--><g class="entity" data-entity="Flag__class" data-source-line="43" data-uid="ent0021" id="entity_Flag__class"><rect fill="#F1F1F1" height="40.2656" rx="2.5" ry="2.5" style="stroke:#181818;stroke-width:0.5;" width="92.4824" x="55" y="2021"/><ellipse cx="70" cy="2041.1328" fill="#ADD1B2" rx="11" ry="11" style="stroke:#181818;stroke-width:1;"/><path d="M72.9688,2046.7734 Q72.3906,2047.0703 71.75,2047.2109 Q71.1094,2047.3672 70.4063,2047.3672 Q67.9063,2047.3672 66.5781,2045.7266 Q65.2656,2044.0703 65.2656,2040.9453 Q65.2656,2037.8203 66.5781,2036.1641 Q67.9063,2034.5078 70.4063,2034.5078 Q71.1094,2034.5078 71.75,2034.6641 Q72.4063,2034.8203 72.9688,2035.1172 L72.9688,2037.8359 Q72.3438,2037.2578 71.75,2036.9922 Q71.1563,2036.7109 70.5313,2036.7109 Q69.1875,2036.7109 68.5,2037.7891 Q67.8125,2038.8516 67.8125,2040.9453 Q67.8125,2043.0391 68.5,2044.1172 Q69.1875,2045.1797 70.5313,2045.1797 Q71.1563,2045.1797 71.75,2044.9141 Q72.3438,2044.6328 72.9688,2044.0547 L72.9688,2046.7734 Z " fill="#000000"/><text fill="#000000" font-family="sans-serif" font-size="12" font-style="italic" lengthAdjust="spacing" textLength="64.4824" x="82" y="2037.1387">&#171;external&#187;</text><text fill="#000000" font-family="sans-serif" font-size="14" lengthAdjust="spacing" textLength="29.4082" x="99.5371" y="2052.9639">Flag</text></g><g class="link" data-entity-1="Carbon__class" data-entity-2="SwissEphemerisDateTime__class" data-uid="lnk8" id="link_Carbon__class_SwissEphemerisDateTime__class"><polygon fill="none" points="147.3579,1690.2473,159.6964,1704.6612,165.8771,1694.3753,147.3579,1690.2473" style="stroke:#516F42;stroke-width:1;"/><path d="M162.7868,1699.5183 C178.4632,1708.938 178.9286,1712.4984 188,1729 C213.4413,1775.2796 170.318,2164.1726 205,2204 C214.8145,2215.2706 227.7646,2222.6526 241.8626,2227.3447" fill="none" style="stroke:#516F42;stroke-width:1;"/></g><g class="link" data-entity-1="ServiceProvider__class" data-entity-2="SwissEphemerisServiceProvider__class" data-uid="lnk13" id="link_ServiceProvider__class_SwissEphemerisServiceProvider__class"><polygon fill="none" points="128.6608,1858.3027,138.5231,1874.5117,146.2761,1865.3525,128.6608,1858.3027" style="stroke:#516F42;stroke-width:1;"/><path d="M142.3996,1869.9321 C162.6799,1887.0988 175.4321,1902.0123 188,1932 C201.8484,1965.043 181.2432,2227.1815 205,2254 C209.6634,2259.2644 215.0114,2263.6763 220.8385,2267.3592" fill="none" style="stroke:#516F42;stroke-width:1;"/></g><g class="link" data-entity-1="Argument__class" data-entity-2="SwissEphemerisArgument__class" data-uid="lnk20" id="link_Argument__class_SwissEphemerisArgument__class"><polygon fill="none" points="124.248,1962.6083,141.2423,1954.1706,132.7809,1945.6616,124.248,1962.6083" style="stroke:#516F42;stroke-width:1;"/><path d="M137.0116,1949.9161 C158.0235,1929.0218 175.3782,1907.1112 188,1870 C194.9811,1849.4738 195.4118,330.6729 196,309 C197.1046,268.2992 178.0568,156.5261 205,126 C214.6403,115.0778 227.2269,107.8214 240.9299,103.1305" fill="none" style="stroke:#516F42;stroke-width:1;"/></g><g class="link" data-entity-1="Flag__class" data-entity-2="SwissEphemerisFlag__class" data-uid="lnk23" id="link_Flag__class_SwissEphemerisFlag__class"><polygon fill="none" points="147.227,2036.384,166.1549,2037.7008,163.1594,2026.0807,147.227,2036.384" style="stroke:#516F42;stroke-width:1;"/><path d="M164.6572,2031.8908 C180.119,2027.9049 178.4716,2025.1377 188,2012 C202.7274,1991.694 190.7137,226.6187 205,206 C218.215,186.9273 239.0439,174.4672 260.7381,166.3275" fill="none" style="stroke:#516F42;stroke-width:1;"/></g><g class="link" data-entity-1="ErrorException__class" data-entity-2="SwissEphemerisError__class" data-uid="lnk38" id="link_ErrorException__class_SwissEphemerisError__class"><polygon fill="none" points="169.084,525.093,186.9838,531.3855,187.1793,519.3871,169.084,525.093" style="stroke:#516F42;stroke-width:1;"/><path d="M187.0816,525.3863 C214.6235,525.835 228.9114,526.0678 258.3915,526.5481" fill="none" style="stroke:#516F42;stroke-width:1;"/></g><g class="link" data-entity-1="Exception__class" data-entity-2="SwissEphemerisWarning__class" data-uid="lnk41" id="link_Exception__class_SwissEphemerisWarning__class"><polygon fill="none" points="151.6806,581.1905,169.7759,586.8965,169.5805,574.8981,151.6806,581.1905" style="stroke:#516F42;stroke-width:1;"/><path d="M169.6782,580.8973 C196.9294,580.4533 213.7374,580.1794 246.4251,579.6468" fill="none" style="stroke:#516F42;stroke-width:1;"/></g><g class="link" data-entity-1="AnomalisticRecord__class" data-entity-2="ApogeeRecord__class" data-uid="lnk46" id="link_AnomalisticRecord__class_ApogeeRecord__class"><polygon fill="none" points="430.2784,680,448.2784,686,448.2784,674,430.2784,680" style="stroke:#516F42;stroke-width:1;"/><path d="M448.2784,680 C495.76,680 537.0457,680 581.7575,680" fill="none" style="stroke:#516F42;stroke-width:1;"/></g><g class="link" data-entity-1="Builder__interface" data-entity-2="Builder__class" data-uid="lnk55" id="link_Builder__interface_Builder__class"><polygon fill="none" points="389.757,1381.5194,405.6554,1391.8752,408.6892,1380.2651,389.757,1381.5194" style="stroke:#516F42;stroke-width:1;"/><path d="M407.1723,1386.0701 C464.3022,1400.9986 550.8642,1423.6178 607.9052,1438.523" fill="none" style="stroke:#516F42;stroke-width:1;stroke-dasharray:7,7;"/></g><g class="link" data-entity-1="Builder__class" data-entity-2="FromArray__class" data-uid="lnk60" id="link_Builder__class_FromArray__class"><polygon fill="none" points="670.9218,1465.0227,681.7205,1480.6235,688.9213,1471.0241,670.9218,1465.0227" style="stroke:#516F42;stroke-width:1;"/><path d="M685.3209,1475.8238 C711.4045,1495.3897 743.3627,1518.0317 786,1542 C806.5534,1553.554 830.4709,1564.5221 850.1837,1572.9525" fill="none" style="stroke:#516F42;stroke-width:1;"/></g><g class="link" data-entity-1="Builder__class" data-entity-2="FromSynodicRhythm__class" data-uid="lnk63" id="link_Builder__class_FromSynodicRhythm__class"><polygon fill="none" points="690.1706,1438.9573,709.0884,1440.4126,706.178,1428.7709,690.1706,1438.9573" style="stroke:#516F42;stroke-width:1;"/><path d="M707.6332,1434.5917 C744.5965,1425.3509 782.5914,1415.8521 825.7127,1405.0718" fill="none" style="stroke:#516F42;stroke-width:1;"/></g><g class="link" data-entity-1="Builder__class" data-entity-2="FromSynodicRhythm__class" data-uid="lnk66" id="link_Builder__class_FromSynodicRhythm__class"><polygon fill="none" points="666.0608,1432.7172,683.1331,1424.4385,674.7514,1415.8509,666.0608,1432.7172" style="stroke:#516F42;stroke-width:1;"/><path d="M678.9423,1420.1447 C702.9433,1396.7191 737.6602,1366.24 786,1342 C795.2767,1337.3482 805.4191,1333.3974 815.616,1330.0622" fill="none" style="stroke:#516F42;stroke-width:1;"/></g><g class="link" data-entity-1="Builder__class" data-entity-2="FromArray__class" data-uid="lnk69" id="link_Builder__class_FromArray__class"><polygon fill="none" points="690.0197,1461.3443,705.5042,1472.3092,708.9862,1460.8255,690.0197,1461.3443" style="stroke:#516F42;stroke-width:1;"/><path d="M707.2452,1466.5673 C734.2587,1474.7582 753.5433,1480.3318 786,1489 C802.7749,1493.4801 821.1695,1498.0225 837.7629,1501.9841" fill="none" style="stroke:#516F42;stroke-width:1;"/></g><g class="link" data-entity-1="Builder__class" data-entity-2="FromRecords__class" data-uid="lnk71" id="link_Builder__class_FromRecords__class"><polygon fill="none" points="690.1706,1451.5107,707.7613,1458.6218,708.5098,1446.6452,690.1706,1451.5107" style="stroke:#516F42;stroke-width:1;"/><path d="M708.1356,1452.6335 C745.8995,1454.9937 785.0026,1457.4377 828.4972,1460.1561" fill="none" style="stroke:#516F42;stroke-width:1;"/></g><g class="link" data-entity-1="WithFuzzyCondition__trait" data-entity-2="Strategy__class" data-uid="lnk76" id="link_WithFuzzyCondition__trait_Strategy__class"><polygon fill="#516F42" points="424.9517,1946.9768,434.8005,1946.9361,429.5123,1944.9272,431.5211,1939.6391,424.9517,1946.9768" style="stroke:#516F42;stroke-width:1;"/><path d="M430.4244,1944.5173 C450.0252,1935.7085 463.6153,1925.6571 476,1908 C519.8148,1845.5324 485.5092,1280.3084 537,1224 C553.3853,1206.0816 579.9401,1200.8293 602.9684,1200.1767" fill="none" style="stroke:#516F42;stroke-width:1;"/><text fill="#000000" font-family="sans-serif" font-size="13" lengthAdjust="spacing" textLength="29.7832" x="496" y="1241.0669">uses</text></g><g class="link" data-entity-1="BuilderStrategy__interface" data-entity-2="Strategy__class" data-uid="lnk77" id="link_BuilderStrategy__interface_Strategy__class"><polygon fill="none" points="366.5438,1304.8756,383.9213,1297.2583,375.8754,1288.3553,366.5438,1304.8756" style="stroke:#516F42;stroke-width:1;"/><path d="M379.8983,1292.8068 C405.3735,1269.7842 442.5601,1240.2245 494,1221 C529.023,1207.9109 571.4147,1204.0239 602.8479,1203.205" fill="none" style="stroke:#516F42;stroke-width:1;stroke-dasharray:7,7;"/></g><g class="link" data-entity-1="Strategy__class" data-entity-2="AnomalisticStrategy__class" data-uid="lnk81" id="link_Strategy__class_AnomalisticStrategy__class"><polygon fill="none" points="695.1422,1202.4953,713.3321,1207.8923,712.9323,1195.8989,695.1422,1202.4953" style="stroke:#516F42;stroke-width:1;"/><path d="M713.1322,1201.8956 C743.8197,1200.8727 767.3919,1200.0869 804.2493,1198.8584" fill="none" style="stroke:#516F42;stroke-width:1;"/></g><g class="link" data-entity-1="AnomalisticStrategy__class" data-entity-2="Apogee__class" data-uid="lnk83" id="link_AnomalisticStrategy__class_Apogee__class"><polygon fill="none" points="977.7228,1196,995.7228,1202,995.7228,1190,977.7228,1196" style="stroke:#516F42;stroke-width:1;"/><path d="M995.7228,1196 C1017.838,1196 1022.66,1196 1041.3778,1196" fill="none" style="stroke:#516F42;stroke-width:1;"/></g><g class="link" data-entity-1="Strategy__class" data-entity-2="PhaseStrategy__class" data-uid="lnk86" id="link_Strategy__class_PhaseStrategy__class"><polygon fill="none" points="678.9496,1187.9571,697.602,1184.4803,691.7854,1173.9842,678.9496,1187.9571" style="stroke:#516F42;stroke-width:1;"/><path d="M694.6937,1179.2322 C740.8228,1153.669 814.7541,1112.6988 860.9477,1087.0998" fill="none" style="stroke:#516F42;stroke-width:1;"/></g><g class="link" data-entity-1="PhaseStrategy__class" data-entity-2="FirstQuarter__class" data-uid="lnk88" id="link_PhaseStrategy__class_FirstQuarter__class"><polygon fill="none" points="958.2665,1071,976.2665,1077,976.2665,1065,958.2665,1071" style="stroke:#516F42;stroke-width:1;"/><path d="M976.2665,1071 C998.1387,1071 1004.275,1071 1025.4418,1071" fill="none" style="stroke:#516F42;stroke-width:1;"/></g><g class="link" data-entity-1="PhaseStrategy__class" data-entity-2="FullMoon__class" data-uid="lnk90" id="link_PhaseStrategy__class_FullMoon__class"><polygon fill="none" points="953.2217,1054.9734,972.1544,1056.2193,969.1155,1044.6105,953.2217,1054.9734" style="stroke:#516F42;stroke-width:1;"/><path d="M970.6349,1050.4149 C997.5863,1043.3596 1011.324,1039.7634 1036.3501,1033.212" fill="none" style="stroke:#516F42;stroke-width:1;"/></g><g class="link" data-entity-1="PhaseStrategy__class" data-entity-2="NewMoon__class" data-uid="lnk92" id="link_PhaseStrategy__class_NewMoon__class"><polygon fill="none" points="918.068,1054.7821,936.5586,1050.5279,930.3079,1040.2844,918.068,1054.7821" style="stroke:#516F42;stroke-width:1;"/><path d="M933.4332,1045.4061 C959.4998,1029.5002 985.6144,1014.4008 1023,996 C1029.1761,992.9602 1035.8156,989.9496 1042.347,987.1269" fill="none" style="stroke:#516F42;stroke-width:1;"/></g><g class="link" data-entity-1="PhaseStrategy__class" data-entity-2="ThirdQuarter__class" data-uid="lnk94" id="link_PhaseStrategy__class_ThirdQuarter__class"><polygon fill="none" points="953.2217,1087.0266,969.1155,1097.3895,972.1544,1085.7807,953.2217,1087.0266" style="stroke:#516F42;stroke-width:1;"/><path d="M970.6349,1091.5851 C992.8943,1097.4121 1000.6052,1099.4307 1022.7774,1105.2349" fill="none" style="stroke:#516F42;stroke-width:1;"/></g><g class="link" data-entity-1="Collection__class" data-entity-2="AnomalisticRhythm__class" data-uid="lnk98" id="link_Collection__class_AnomalisticRhythm__class"><polygon fill="none" points="123.4751,1759.7702,140.9452,1752.3677,133.0097,1743.3661,123.4751,1759.7702" style="stroke:#516F42;stroke-width:1;"/><path d="M136.9774,1747.8669 C156.6436,1730.5297 173.8477,1718.2269 205,1705 C223.4958,1697.1469 244.3478,1691.7606 264.277,1688.0662" fill="none" style="stroke:#516F42;stroke-width:1;"/></g><g class="link" data-entity-1="Collection__class" data-entity-2="Apogees__class" data-uid="lnk100" id="link_Collection__class_Apogees__class"><polygon fill="none" points="151.6518,1788.5916,166.8918,1799.8939,170.6252,1788.4894,151.6518,1788.5916" style="stroke:#516F42;stroke-width:1;"/><path d="M168.7585,1794.1917 C181.8923,1798.4911 178.0554,1799.3374 188,1809 C203.6321,1824.1888 188.2629,1841.0383 205,1855 C231.81,1877.3642 271.5171,1882.8127 302.212,1883.1215" fill="none" style="stroke:#516F42;stroke-width:1;"/></g><g class="link" data-entity-1="Collection__class" data-entity-2="Periods__class" data-uid="lnk102" id="link_Collection__class_Periods__class"><polygon fill="none" points="151.6232,1767.2708,170.5349,1768.8027,167.6717,1757.1493,151.6232,1767.2708" style="stroke:#516F42;stroke-width:1;"/><path d="M169.1033,1762.976 C185.9888,1758.8273 187.5279,1758.6491 205,1755 C239.1758,1747.8623 278.25,1741.1053 306.8276,1736.4199" fill="none" style="stroke:#516F42;stroke-width:1;"/></g><g class="link" data-entity-1="Collection__class" data-entity-2="Phases__class" data-uid="lnk104" id="link_Collection__class_Phases__class"><polygon fill="none" points="151.6806,1780,169.6806,1786,169.6806,1774,151.6806,1780" style="stroke:#516F42;stroke-width:1;"/><path d="M169.6806,1780 C215.6364,1780 265.0757,1780 307.6125,1780" fill="none" style="stroke:#516F42;stroke-width:1;"/></g><g class="link" data-entity-1="Collection__class" data-entity-2="SynodicRhythm__class" data-uid="lnk106" id="link_Collection__class_SynodicRhythm__class"><polygon fill="none" points="151.6232,1792.7292,167.6717,1802.8507,170.5349,1791.1973,151.6232,1792.7292" style="stroke:#516F42;stroke-width:1;"/><path d="M169.1033,1797.024 C185.9888,1801.1727 187.5279,1801.3509 205,1805 C228.4805,1809.904 254.2732,1814.6282 277.3854,1818.6244" fill="none" style="stroke:#516F42;stroke-width:1;"/></g><g class="link" data-entity-1="QueryTemplate__class" data-entity-2="ApogeeTemplate__class" data-uid="lnk111" id="link_QueryTemplate__class_ApogeeTemplate__class"><polygon fill="none" points="419.1083,2103.8298,436.5447,2111.3112,437.5462,2099.353,419.1083,2103.8298" style="stroke:#516F42;stroke-width:1;"/><path d="M437.0455,2105.3321 C483.3011,2109.2061 526.0528,2112.7867 573.3163,2116.7451" fill="none" style="stroke:#516F42;stroke-width:1;"/></g><g class="link" data-entity-1="QueryTemplate__class" data-entity-2="SynodicRhythmTemplate__class" data-uid="lnk113" id="link_QueryTemplate__class_SynodicRhythmTemplate__class"><polygon fill="none" points="419.1083,2092.1702,437.5462,2096.647,436.5447,2084.6888,419.1083,2092.1702" style="stroke:#516F42;stroke-width:1;"/><path d="M437.0455,2090.6679 C474.429,2087.5369 503.3028,2085.1187 544.8348,2081.6403" fill="none" style="stroke:#516F42;stroke-width:1;"/></g><!--SRC=[tLdRRjiu47ttLt3JboxG0krYTmiKHO4ajO42lQIrWRm8C1XhBB7bHI2f9EwY_xuKAScaJTzYsNNZ5vD3SkQSuP0palue9CuOHXJFHAcHOg0nnps4aFfEU84bPkXSId5tAQYGwCa_B_-T_lrNE8udcjmIFRiGCWMvpKGy-Pv9KVAqdZorl_ZaTmGpmTEjbJVpjx6XSfoAEy8pDCLKGQ-tUcW-GWa7FIi02QbpqSj92WXOeMU80Ri1gNeKfXffWIJ9SerI8i5W4xodG2EE6QW2Js08bJfje2L9hzUAqKSi9-9IS4KoIaIIz8iS64YYq7yLU8Gc52k5pZwOrRT0XtT4gNRE6S8AHKV6OxVE_9oUdxsVdjLBB6y4huTg2qvcLRfce-FD6mJt6YJ75Brz6rEtBOaGupkiOKGOM9FneJcD2W5FbV6U0zVyjpDYkDvJMZB2ZR8a6PP5OROmv3m4UKicS2N5hTbNwP24iaDx8GfXtOoOJo94JMF5kXZsynIp2mcwMfO3fTSI5mL8usN16EPfwBPpcPKCkBPWcqu7Zbeq5_TOO3q-5FFH9efcnkBg_Jqre3YpEAl6qJpKMbqMFympmSeT0VTvoPeZ0APjRXgdjaNfzSTZEsLl4vzBNPHw82J3BavyGLT6hYWskK5z8ChPyFfTcVWAMV_-2kigMgmDNz2LaQ79UnG6f4fRfVfyyyqaC1S-aO5kZJgNUSQSe2iZLGuPQYXSfcnxUwXFae-YpPnr69XXaRe8iCsErUTOkHnfMqlAwnkWRyessR-VG54L7tP-A5fr-smBhz6pFfrPcv6xnyfZbqySP8HVIEsuhAwnv2Oy8xpgaIYpDQIs0lSL9gOC3cC2toWjJV4xpyLSC4pDbKCcRhvBoelI3GNXZYXQuuN807oxdY3castjcAIqaa67-2D7zn1kiWVNyvBNFup1uOoBr3Wkd-cSUOOZyZq0M2scSL4IQWfCqthFpH6ScdNDSIAD09tLiooEkZqUpyVtjhxgW4Jjjfm9AoXKHT-cw5n7jfNwX8xYpQ7XgY6R-UmQMQVURO-bFU2Bj-L02dOk9NOusjwkDy2oqSKDwug6E-qn6i4HQUa4qXEcLLqiZuvL0FDtZxnDPEfhlQLJztyveP74HAlmwVQQw7nG_lWnCqjIuegp2lUoV3pMrVggJ7iwUlPaC7ZrwiMBFv5LQker3ynQMWv4agmnyFpvpfwfBqm2ytORGAzHQKxKW_TyhdfLUWfky4NhdIUeM6xOFx9z1mRLsshQNdaNU20Ytp_qrstmKUY7zR9NANVBRS5uK4GVXNUGVvRst8u6knr8ViDzZkTR8fN-KcAfwwhJ5nnYmnsA-lyNyYufhOOTvxhpYFb-WhkMRjr-n6n7EP6f7zM-u3HuR_pSSoaeTH_dwlVEJRUJD_CjgzYB4kzjnhm6Nv9k_Mrd6Jhg4grxoFFob3eHPFLpc_V6vcIGsN2TPxLJmRNyvBVngUz0A4TWIbcZT6LzyAK4EMjcMQY1vE5lgbhBQw8zi1kAThpTF6jn_9sY3tOp814TEHoN_m40]--></g></svg>